<svg xmlns="http://www.w3.org/2000/svg" xmlns:xlink="http://www.w3.org/1999/xlink" width="270" zoomAndPan="magnify" viewBox="0 0 202.5 225" height="300" preserveAspectRatio="xMidYMid meet" version="1.0"><defs><clipPath id="a795cba8a5"><path d="M 0 42 L 202 42 L 202 183.382812 L 0 183.382812 Z M 0 42 " clip-rule="nonzero"/></clipPath></defs><g clip-path="url(#a795cba8a5)"><path fill="#04195c" d="M 60.648438 42.234375 C 60.464844 42.253906 59.898438 42.316406 59.382812 42.371094 C 55.988281 42.734375 53.738281 43.363281 49.117188 45.230469 C 35.664062 50.667969 23.039062 53.722656 12.910156 53.988281 L 10.78125 54.046875 L 10.78125 167.175781 L 10.992188 167.175781 C 11.363281 167.175781 14.511719 166.800781 16.589844 166.507812 C 27.867188 164.929688 39.820312 161.945312 49.117188 158.386719 C 53.292969 156.785156 55.613281 156.199219 58.960938 155.898438 C 69.347656 154.96875 84.21875 158.976562 97.871094 166.378906 C 98.679688 166.816406 99.363281 167.175781 99.394531 167.175781 C 99.425781 167.175781 99.453125 141.71875 99.453125 110.601562 L 99.453125 54.03125 L 98.164062 53.242188 C 88.632812 47.410156 78.207031 43.585938 68.613281 42.402344 C 67.417969 42.257812 61.542969 42.128906 60.648438 42.234375 M 136.480469 42.230469 C 136.300781 42.25 135.6875 42.3125 135.121094 42.367188 C 125.878906 43.246094 114.238281 47.527344 104.308594 53.695312 L 103.867188 53.96875 L 103.863281 110.582031 C 103.859375 141.714844 103.890625 167.175781 103.929688 167.160156 C 103.96875 167.140625 104.691406 166.753906 105.53125 166.296875 C 117.976562 159.519531 131.378906 155.644531 141.730469 155.832031 C 146.515625 155.917969 148.742188 156.363281 153.679688 158.21875 C 162.796875 161.648438 172.457031 164.203125 182.691406 165.894531 C 186.226562 166.480469 191.441406 167.175781 192.300781 167.175781 L 192.535156 167.175781 L 192.535156 54.046875 L 190.308594 53.988281 C 180.269531 53.722656 167.128906 50.546875 154.195312 45.257812 C 149.796875 43.457031 147.886719 42.910156 144.257812 42.402344 C 143.238281 42.257812 137.382812 42.132812 136.480469 42.230469 M 5.90625 60.886719 C 5.519531 60.921875 4.03125 60.988281 2.601562 61.027344 L 0 61.09375 L 0 183.246094 L 0.402344 183.246094 C 1 183.246094 5.53125 182.71875 8.15625 182.34375 C 20.871094 180.53125 32.925781 177.617188 43.820312 173.730469 C 49.511719 171.703125 52.292969 171.136719 57.417969 170.972656 C 68.644531 170.605469 84.175781 174.796875 98.621094 182.082031 C 99.886719 182.722656 100.953125 183.246094 100.984375 183.246094 C 101.019531 183.246094 102.363281 182.59375 103.976562 181.796875 C 120.597656 173.574219 137.027344 169.738281 148.945312 171.300781 C 152.058594 171.710938 153.804688 172.171875 158.226562 173.75 C 168.933594 177.570312 181.078125 180.511719 193.519531 182.296875 C 196.660156 182.746094 200.929688 183.246094 201.636719 183.246094 L 202 183.246094 L 202 61.066406 L 200.289062 61.0625 C 198.742188 61.0625 197.917969 61.019531 195.324219 60.824219 L 194.503906 60.761719 L 194.503906 170.933594 L 194.148438 170.933594 C 192.765625 170.933594 185.273438 169.898438 180.542969 169.054688 C 170.738281 167.300781 162.277344 165.078125 153.539062 161.953125 C 150.804688 160.976562 149.460938 160.585938 147.566406 160.226562 C 136.070312 158.03125 119.746094 161.542969 103.394531 169.726562 L 101.007812 170.921875 L 98.378906 169.617188 C 82.765625 161.878906 67.253906 158.328125 56.101562 159.945312 C 53.371094 160.34375 51.921875 160.722656 48.554688 161.929688 C 36.300781 166.316406 19.574219 170.046875 8.359375 170.894531 L 7.5 170.960938 L 7.5 60.785156 L 7.054688 60.800781 C 6.808594 60.808594 6.292969 60.847656 5.90625 60.886719 " fill-opacity="1" fill-rule="evenodd"/></g></svg>