<svg xmlns="http://www.w3.org/2000/svg" xmlns:xlink="http://www.w3.org/1999/xlink" width="270" zoomAndPan="magnify" viewBox="0 0 202.5 225" height="300" preserveAspectRatio="xMidYMid meet" version="1.0"><defs><g/><clipPath id="cf5dd02a36"><path d="M 102.972656 97.460938 L 171 97.460938 L 171 165.542969 L 102.972656 165.542969 Z M 102.972656 97.460938 " clip-rule="nonzero"/></clipPath><clipPath id="82513449bc"><path d="M 33 82.074219 L 99.746094 82.074219 L 99.746094 149.40625 L 33 149.40625 Z M 33 82.074219 " clip-rule="nonzero"/></clipPath><clipPath id="f084013fad"><path d="M 32.414062 82.074219 L 99.746094 82.074219 L 99.746094 149.40625 L 32.414062 149.40625 Z M 32.414062 82.074219 " clip-rule="nonzero"/></clipPath><clipPath id="41221d246c"><path d="M 103 27.128906 L 171 27.128906 L 171 95 L 103 95 Z M 103 27.128906 " clip-rule="nonzero"/></clipPath><clipPath id="d1c26362c3"><path d="M 102.972656 27.128906 L 171 27.128906 L 171 95 L 102.972656 95 Z M 102.972656 27.128906 " clip-rule="nonzero"/></clipPath><clipPath id="3c80fdb3be"><path d="M 33 11.28125 L 99.746094 11.28125 L 99.746094 78.613281 L 33 78.613281 Z M 33 11.28125 " clip-rule="nonzero"/></clipPath><clipPath id="cbbb8df508"><path d="M 32.414062 11.28125 L 99.746094 11.28125 L 99.746094 78.613281 L 32.414062 78.613281 Z M 32.414062 11.28125 " clip-rule="nonzero"/></clipPath></defs><g fill="#0f224a" fill-opacity="1"><g transform="translate(8.263964, 201.310069)"><g><path d="M 10.359375 0.359375 C 9.304688 0.359375 8.3125 0.203125 7.375 -0.109375 C 6.445312 -0.421875 5.597656 -0.859375 4.828125 -1.421875 C 4.054688 -1.992188 3.390625 -2.664062 2.828125 -3.4375 C 2.265625 -4.21875 1.828125 -5.070312 1.515625 -6 C 1.210938 -6.925781 1.0625 -7.90625 1.0625 -8.9375 C 1.0625 -9.96875 1.210938 -10.945312 1.515625 -11.875 C 1.828125 -12.8125 2.265625 -13.664062 2.828125 -14.4375 C 3.390625 -15.21875 4.054688 -15.890625 4.828125 -16.453125 C 5.597656 -17.015625 6.445312 -17.453125 7.375 -17.765625 C 8.3125 -18.078125 9.304688 -18.234375 10.359375 -18.234375 C 11.304688 -18.234375 12.226562 -18.097656 13.125 -17.828125 C 14.03125 -17.566406 14.863281 -17.164062 15.625 -16.625 C 16.382812 -16.082031 17.035156 -15.40625 17.578125 -14.59375 C 18.117188 -13.789062 18.5 -12.851562 18.71875 -11.78125 L 16.359375 -11.78125 C 16.085938 -12.738281 15.65625 -13.535156 15.0625 -14.171875 C 14.476562 -14.816406 13.773438 -15.296875 12.953125 -15.609375 C 12.140625 -15.929688 11.253906 -16.09375 10.296875 -16.09375 C 9.328125 -16.09375 8.421875 -15.914062 7.578125 -15.5625 C 6.742188 -15.21875 6.015625 -14.722656 5.390625 -14.078125 C 4.765625 -13.429688 4.273438 -12.671875 3.921875 -11.796875 C 3.566406 -10.929688 3.390625 -9.976562 3.390625 -8.9375 C 3.390625 -7.882812 3.566406 -6.921875 3.921875 -6.046875 C 4.273438 -5.171875 4.765625 -4.414062 5.390625 -3.78125 C 6.015625 -3.144531 6.742188 -2.65625 7.578125 -2.3125 C 8.421875 -1.96875 9.328125 -1.796875 10.296875 -1.796875 C 11.253906 -1.796875 12.140625 -1.953125 12.953125 -2.265625 C 13.765625 -2.585938 14.46875 -3.066406 15.0625 -3.703125 C 15.65625 -4.347656 16.082031 -5.144531 16.34375 -6.09375 L 18.71875 -6.09375 C 18.5 -5.019531 18.117188 -4.078125 17.578125 -3.265625 C 17.046875 -2.460938 16.394531 -1.789062 15.625 -1.25 C 14.863281 -0.71875 14.035156 -0.316406 13.140625 -0.046875 C 12.242188 0.222656 11.316406 0.359375 10.359375 0.359375 Z M 10.359375 0.359375 "/></g></g></g><g fill="#0f224a" fill-opacity="1"><g transform="translate(35.972891, 201.310069)"><g><path d="M 4.75 0 L 2.421875 0 L 2.421875 -17.84375 L 10 -17.84375 C 10.875 -17.84375 11.671875 -17.707031 12.390625 -17.4375 C 13.109375 -17.164062 13.734375 -16.78125 14.265625 -16.28125 C 14.796875 -15.789062 15.203125 -15.203125 15.484375 -14.515625 C 15.773438 -13.835938 15.921875 -13.078125 15.921875 -12.234375 C 15.921875 -11.359375 15.757812 -10.566406 15.4375 -9.859375 C 15.113281 -9.160156 14.65625 -8.570312 14.0625 -8.09375 C 13.476562 -7.613281 12.796875 -7.269531 12.015625 -7.0625 L 16.3125 0 L 13.640625 0 L 9.671875 -6.71875 C 9.578125 -6.707031 9.484375 -6.703125 9.390625 -6.703125 C 9.296875 -6.703125 9.203125 -6.703125 9.109375 -6.703125 L 4.75 -6.703125 Z M 4.75 -15.75 L 4.75 -8.6875 L 9.953125 -8.6875 C 10.648438 -8.6875 11.269531 -8.832031 11.8125 -9.125 C 12.363281 -9.425781 12.796875 -9.84375 13.109375 -10.375 C 13.429688 -10.90625 13.59375 -11.519531 13.59375 -12.21875 C 13.59375 -12.90625 13.429688 -13.507812 13.109375 -14.03125 C 12.785156 -14.5625 12.347656 -14.976562 11.796875 -15.28125 C 11.242188 -15.59375 10.617188 -15.75 9.921875 -15.75 Z M 4.75 -15.75 "/></g></g></g><g fill="#0f224a" fill-opacity="1"><g transform="translate(61.020246, 201.310069)"><g><path d="M 9.453125 -19.15625 L 7.78125 -19.15625 L 10.0625 -22.875 L 11.78125 -22.28125 Z M 14.40625 0 L 2.421875 0 L 2.421875 -17.84375 L 14.28125 -17.84375 L 14.28125 -15.71875 L 4.75 -15.71875 L 4.75 -10.078125 L 13.03125 -10.078125 L 13.03125 -8.078125 L 4.75 -8.078125 L 4.75 -2.09375 L 14.40625 -2.09375 Z M 14.40625 0 "/></g></g></g><g fill="#0f224a" fill-opacity="1"><g transform="translate(84.284482, 201.310069)"><g><path d="M 8.984375 0 L 2.421875 0 L 2.421875 -17.84375 L 8.9375 -17.84375 C 10.351562 -17.84375 11.632812 -17.628906 12.78125 -17.203125 C 13.9375 -16.773438 14.929688 -16.164062 15.765625 -15.375 C 16.597656 -14.59375 17.234375 -13.65625 17.671875 -12.5625 C 18.117188 -11.476562 18.34375 -10.269531 18.34375 -8.9375 C 18.34375 -7.59375 18.117188 -6.375 17.671875 -5.28125 C 17.234375 -4.1875 16.597656 -3.242188 15.765625 -2.453125 C 14.941406 -1.660156 13.957031 -1.050781 12.8125 -0.625 C 11.664062 -0.207031 10.390625 0 8.984375 0 Z M 4.703125 -15.765625 L 4.703125 -2.09375 L 8.9375 -2.09375 C 10.394531 -2.09375 11.648438 -2.367188 12.703125 -2.921875 C 13.753906 -3.484375 14.566406 -4.269531 15.140625 -5.28125 C 15.710938 -6.300781 16 -7.5 16 -8.875 C 16 -10.257812 15.710938 -11.46875 15.140625 -12.5 C 14.566406 -13.53125 13.75 -14.332031 12.6875 -14.90625 C 11.625 -15.476562 10.351562 -15.765625 8.875 -15.765625 Z M 4.703125 -15.765625 "/></g></g></g><g fill="#0f224a" fill-opacity="1"><g transform="translate(111.626297, 201.310069)"><g><path d="M 4.75 0 L 2.421875 0 L 2.421875 -17.84375 L 4.75 -17.84375 Z M 4.75 0 "/></g></g></g><g fill="#0f224a" fill-opacity="1"><g transform="translate(126.722277, 201.310069)"><g><path d="M 8.609375 0 L 6.28125 0 L 6.28125 -15.75 L 0.640625 -15.75 L 0.640625 -17.84375 L 14.25 -17.84375 L 14.25 -15.75 L 8.609375 -15.75 Z M 8.609375 0 "/></g></g></g><g fill="#0f224a" fill-opacity="1"><g transform="translate(149.553857, 201.310069)"><g><path d="M 10.578125 0.359375 C 9.535156 0.359375 8.535156 0.203125 7.578125 -0.109375 C 6.628906 -0.421875 5.757812 -0.859375 4.96875 -1.421875 C 4.175781 -1.992188 3.484375 -2.664062 2.890625 -3.4375 C 2.304688 -4.21875 1.851562 -5.070312 1.53125 -6 C 1.21875 -6.925781 1.0625 -7.90625 1.0625 -8.9375 C 1.0625 -9.96875 1.21875 -10.945312 1.53125 -11.875 C 1.851562 -12.8125 2.304688 -13.664062 2.890625 -14.4375 C 3.484375 -15.21875 4.175781 -15.890625 4.96875 -16.453125 C 5.757812 -17.015625 6.628906 -17.453125 7.578125 -17.765625 C 8.535156 -18.078125 9.535156 -18.234375 10.578125 -18.234375 C 11.640625 -18.234375 12.644531 -18.078125 13.59375 -17.765625 C 14.550781 -17.453125 15.425781 -17.015625 16.21875 -16.453125 C 17.019531 -15.890625 17.710938 -15.21875 18.296875 -14.4375 C 18.878906 -13.664062 19.328125 -12.8125 19.640625 -11.875 C 19.960938 -10.945312 20.125 -9.96875 20.125 -8.9375 C 20.125 -7.90625 19.960938 -6.925781 19.640625 -6 C 19.328125 -5.070312 18.878906 -4.21875 18.296875 -3.4375 C 17.710938 -2.664062 17.019531 -1.992188 16.21875 -1.421875 C 15.425781 -0.859375 14.550781 -0.421875 13.59375 -0.109375 C 12.644531 0.203125 11.640625 0.359375 10.578125 0.359375 Z M 10.578125 -1.796875 C 11.578125 -1.796875 12.515625 -1.972656 13.390625 -2.328125 C 14.265625 -2.691406 15.03125 -3.195312 15.6875 -3.84375 C 16.351562 -4.488281 16.875 -5.242188 17.25 -6.109375 C 17.625 -6.972656 17.8125 -7.914062 17.8125 -8.9375 C 17.8125 -9.945312 17.625 -10.882812 17.25 -11.75 C 16.875 -12.625 16.351562 -13.382812 15.6875 -14.03125 C 15.03125 -14.675781 14.265625 -15.179688 13.390625 -15.546875 C 12.515625 -15.910156 11.578125 -16.09375 10.578125 -16.09375 C 9.585938 -16.09375 8.65625 -15.910156 7.78125 -15.546875 C 6.914062 -15.179688 6.148438 -14.675781 5.484375 -14.03125 C 4.828125 -13.382812 4.3125 -12.625 3.9375 -11.75 C 3.570312 -10.882812 3.390625 -9.945312 3.390625 -8.9375 C 3.390625 -7.914062 3.570312 -6.972656 3.9375 -6.109375 C 4.3125 -5.242188 4.828125 -4.488281 5.484375 -3.84375 C 6.148438 -3.195312 6.914062 -2.691406 7.78125 -2.328125 C 8.65625 -1.972656 9.585938 -1.796875 10.578125 -1.796875 Z M 10.578125 -1.796875 "/></g></g></g><g fill="#0f224a" fill-opacity="1"><g transform="translate(178.665668, 201.310069)"><g><path d="M 7.984375 0.375 C 6.773438 0.375 5.726562 0.21875 4.84375 -0.09375 C 3.96875 -0.414062 3.242188 -0.84375 2.671875 -1.375 C 2.097656 -1.90625 1.671875 -2.5 1.390625 -3.15625 C 1.117188 -3.820312 0.984375 -4.492188 0.984375 -5.171875 L 3.3125 -5.171875 C 3.3125 -4.546875 3.492188 -3.960938 3.859375 -3.421875 C 4.234375 -2.878906 4.765625 -2.441406 5.453125 -2.109375 C 6.148438 -1.773438 6.988281 -1.609375 7.96875 -1.609375 C 9.488281 -1.609375 10.65625 -1.882812 11.46875 -2.4375 C 12.28125 -3 12.6875 -3.832031 12.6875 -4.9375 C 12.6875 -5.632812 12.484375 -6.195312 12.078125 -6.625 C 11.671875 -7.050781 11.117188 -7.382812 10.421875 -7.625 C 9.722656 -7.863281 8.929688 -8.050781 8.046875 -8.1875 C 7.441406 -8.28125 6.828125 -8.398438 6.203125 -8.546875 C 5.585938 -8.703125 4.992188 -8.898438 4.421875 -9.140625 C 3.859375 -9.390625 3.351562 -9.695312 2.90625 -10.0625 C 2.457031 -10.425781 2.097656 -10.875 1.828125 -11.40625 C 1.566406 -11.9375 1.4375 -12.554688 1.4375 -13.265625 C 1.4375 -13.929688 1.554688 -14.5625 1.796875 -15.15625 C 2.035156 -15.757812 2.414062 -16.289062 2.9375 -16.75 C 3.457031 -17.207031 4.125 -17.566406 4.9375 -17.828125 C 5.75 -18.097656 6.738281 -18.234375 7.90625 -18.234375 C 9.300781 -18.234375 10.472656 -18.015625 11.421875 -17.578125 C 12.378906 -17.148438 13.101562 -16.554688 13.59375 -15.796875 C 14.082031 -15.035156 14.328125 -14.15625 14.328125 -13.15625 L 12 -13.15625 C 12 -13.75 11.84375 -14.269531 11.53125 -14.71875 C 11.21875 -15.175781 10.753906 -15.535156 10.140625 -15.796875 C 9.523438 -16.054688 8.769531 -16.1875 7.875 -16.1875 C 7.070312 -16.1875 6.40625 -16.101562 5.875 -15.9375 C 5.34375 -15.769531 4.921875 -15.546875 4.609375 -15.265625 C 4.304688 -14.992188 4.085938 -14.679688 3.953125 -14.328125 C 3.828125 -13.984375 3.765625 -13.628906 3.765625 -13.265625 C 3.765625 -12.640625 3.957031 -12.125 4.34375 -11.71875 C 4.738281 -11.3125 5.304688 -10.984375 6.046875 -10.734375 C 6.785156 -10.492188 7.691406 -10.300781 8.765625 -10.15625 C 9.359375 -10.050781 9.953125 -9.921875 10.546875 -9.765625 C 11.148438 -9.609375 11.71875 -9.40625 12.25 -9.15625 C 12.789062 -8.90625 13.269531 -8.585938 13.6875 -8.203125 C 14.113281 -7.828125 14.445312 -7.367188 14.6875 -6.828125 C 14.925781 -6.296875 15.046875 -5.664062 15.046875 -4.9375 C 15.046875 -3.820312 14.757812 -2.863281 14.1875 -2.0625 C 13.625 -1.269531 12.8125 -0.664062 11.75 -0.25 C 10.695312 0.164062 9.441406 0.375 7.984375 0.375 Z M 7.984375 0.375 "/></g></g></g><path fill="#ff0000" d="M 169.953125 131.941406 C 169.589844 132.535156 168.976562 132.882812 168.367188 133.222656 C 168.625 133.59375 168.617188 134.09375 168.5 134.527344 C 168.386719 134.964844 168.179688 135.375 168.0625 135.808594 C 167.945312 136.246094 167.976562 136.824219 168.230469 137.195312 C 167.882812 137.210938 167.589844 137.492188 167.445312 137.8125 C 167.304688 138.132812 167.285156 138.488281 167.253906 138.835938 C 167.222656 139.183594 167.175781 139.542969 166.996094 139.84375 L 167.003906 139.84375 C 167.503906 140.042969 168.023438 140.253906 168.378906 140.660156 C 168.480469 140.78125 168.570312 140.914062 168.625 141.0625 C 168.746094 141.398438 168.695312 141.78125 168.558594 142.109375 C 168.417969 142.441406 168.199219 142.734375 167.984375 143.019531 C 168.265625 143.300781 168.726562 143.613281 168.855469 143.988281 C 168.933594 144.230469 168.941406 144.488281 168.976562 144.738281 C 169.101562 145.628906 169.574219 146.464844 169.542969 147.359375 L 169.542969 147.363281 C 169.542969 147.453125 169.472656 147.53125 169.394531 147.578125 C 169.316406 147.625 169.230469 147.652344 169.148438 147.691406 C 168.871094 147.835938 168.722656 148.152344 168.664062 148.460938 C 168.605469 148.769531 168.613281 149.089844 168.550781 149.394531 C 168.414062 150.019531 167.9375 150.527344 167.519531 151.015625 C 167.746094 151.300781 167.976562 151.589844 168.105469 151.929688 C 168.234375 152.269531 168.25 152.671875 168.058594 152.976562 C 167.820312 153.355469 167.253906 153.535156 166.824219 153.648438 C 167.140625 153.953125 167.476562 154.292969 167.539062 154.730469 C 167.582031 155.035156 167.488281 155.34375 167.527344 155.644531 C 167.5625 155.910156 167.695312 156.148438 167.867188 156.351562 C 168.035156 156.550781 168.246094 156.71875 168.449219 156.886719 C 168.078125 157.445312 168.113281 158.238281 168.289062 158.886719 C 168.464844 159.53125 168.773438 160.136719 168.945312 160.785156 C 169.164062 161.609375 169.148438 162.496094 168.902344 163.316406 C 167.792969 163.578125 166.503906 163.582031 165.425781 163.210938 C 164.929688 163.042969 164.453125 162.808594 163.9375 162.695312 C 163.425781 162.585938 162.808594 162.605469 162.390625 162.921875 C 162.199219 162.605469 161.902344 162.355469 161.5625 162.21875 C 161.167969 162.058594 160.730469 162.050781 160.308594 161.984375 C 159.886719 161.917969 159.417969 161.734375 159.179688 161.382812 C 159.078125 161.824219 158.871094 162.246094 158.578125 162.59375 C 158.472656 162.71875 158.34375 162.839844 158.183594 162.863281 C 158.0625 162.878906 157.941406 162.839844 157.828125 162.792969 C 157.394531 162.625 156.972656 162.367188 156.59375 162.101562 C 156.367188 162.089844 156.164062 162.234375 156.007812 162.398438 C 155.855469 162.558594 155.71875 162.746094 155.53125 162.867188 C 155.042969 163.171875 154.386719 162.933594 153.851562 163.144531 C 153.414062 163.3125 153.042969 163.726562 152.800781 164.132812 C 152.648438 164 152.441406 163.957031 152.242188 163.9375 C 152.042969 163.921875 151.839844 163.929688 151.644531 163.886719 C 151.347656 163.820312 151.089844 163.644531 150.804688 163.554688 C 150.398438 163.421875 149.949219 163.460938 149.546875 163.328125 C 149.085938 163.179688 148.726562 162.824219 148.386719 162.480469 C 147.960938 162.796875 147.765625 162.871094 147.269531 163.066406 C 147.070312 163.144531 146.855469 163.214844 146.648438 163.164062 C 146.476562 163.121094 146.332031 163 146.207031 162.875 C 145.839844 162.507812 145.539062 162.035156 145.335938 161.554688 C 144.792969 161.832031 144.125 161.628906 143.542969 161.8125 C 143.140625 161.941406 142.777344 162.285156 142.636719 162.6875 C 142.34375 162.40625 141.878906 162.40625 141.492188 162.527344 C 141.105469 162.644531 140.757812 162.863281 140.371094 162.984375 C 139.847656 163.144531 139.269531 163.113281 138.769531 162.890625 L 138.769531 162.78125 C 138.582031 163.5 138.066406 164.128906 137.398438 164.453125 C 137.207031 164.542969 137 164.613281 136.792969 164.582031 C 136.617188 164.554688 136.460938 164.457031 136.320312 164.355469 C 135.796875 163.980469 135.351562 163.5 135.015625 162.949219 C 134.421875 163.050781 133.816406 163.152344 133.265625 162.910156 C 132.984375 162.789062 132.738281 162.585938 132.449219 162.480469 C 131.996094 162.3125 131.453125 162.421875 131.097656 162.746094 C 131.023438 162.398438 130.726562 162.113281 130.402344 161.96875 C 130.082031 161.824219 129.722656 161.785156 129.371094 161.746094 C 129.019531 161.710938 128.660156 161.667969 128.335938 161.519531 C 128.28125 162.035156 128.074219 162.429688 127.726562 162.8125 C 127.585938 162.96875 127.417969 163.113281 127.210938 163.144531 C 127.078125 163.164062 126.941406 163.136719 126.8125 163.101562 C 126.339844 162.972656 125.890625 162.761719 125.496094 162.472656 C 124.851562 162.695312 124.46875 163.367188 123.804688 163.515625 C 123.492188 163.585938 123.15625 163.523438 122.84375 163.59375 C 122.597656 163.648438 122.378906 163.777344 122.136719 163.847656 C 121.710938 163.976562 121.230469 163.917969 120.847656 164.144531 C 120.648438 163.6875 120.160156 163.316406 119.683594 163.179688 C 119.402344 163.097656 119.101562 163.09375 118.816406 163.03125 C 118.269531 162.917969 117.671875 162.496094 117.339844 162.046875 C 117.09375 162.273438 117.050781 162.316406 116.757812 162.484375 C 116.46875 162.652344 116.128906 162.75 115.796875 162.703125 C 115.496094 162.65625 115.222656 162.484375 115.027344 162.25 C 114.832031 162.015625 114.675781 161.628906 114.636719 161.324219 C 114.382812 161.730469 113.917969 161.980469 113.445312 162.027344 C 113.121094 162.0625 112.789062 162.007812 112.472656 162.070312 C 112.023438 162.152344 111.550781 162.535156 111.363281 162.949219 C 110.964844 162.65625 110.433594 162.621094 109.945312 162.6875 C 109.160156 162.796875 108.429688 163.140625 107.664062 163.34375 C 106.78125 163.578125 105.550781 163.585938 104.851562 163.316406 C 104.605469 162.5 104.59375 161.613281 104.8125 160.785156 C 104.984375 160.140625 105.292969 159.535156 105.46875 158.886719 C 105.640625 158.242188 105.679688 157.445312 105.308594 156.886719 C 105.515625 156.722656 105.71875 156.554688 105.890625 156.351562 C 106.0625 156.148438 106.195312 155.910156 106.226562 155.648438 C 106.265625 155.34375 106.171875 155.035156 106.214844 154.730469 C 106.28125 154.292969 106.617188 153.957031 106.933594 153.648438 C 106.5 153.539062 105.933594 153.355469 105.699219 152.980469 C 105.503906 152.671875 105.519531 152.269531 105.648438 151.929688 C 105.777344 151.589844 106.011719 151.300781 106.234375 151.019531 C 105.820312 150.53125 105.339844 150.023438 105.207031 149.398438 C 105.140625 149.089844 105.152344 148.769531 105.09375 148.460938 C 105.035156 148.152344 104.886719 147.835938 104.609375 147.695312 C 104.527344 147.652344 104.4375 147.625 104.359375 147.578125 C 104.28125 147.53125 104.214844 147.457031 104.210938 147.363281 C 104.179688 146.464844 104.652344 145.628906 104.777344 144.742188 C 104.8125 144.488281 104.820312 144.230469 104.902344 143.992188 C 105.03125 143.613281 105.488281 143.300781 105.773438 143.019531 C 105.554688 142.734375 105.335938 142.445312 105.199219 142.113281 C 105.058594 141.78125 105.007812 141.398438 105.132812 141.0625 C 105.1875 140.914062 105.273438 140.78125 105.378906 140.664062 C 105.730469 140.253906 106.253906 140.042969 106.753906 139.84375 L 106.761719 139.84375 C 106.578125 139.542969 106.535156 139.1875 106.503906 138.835938 C 106.472656 138.488281 106.449219 138.132812 106.308594 137.8125 C 106.167969 137.496094 105.875 137.214844 105.527344 137.199219 C 105.78125 136.824219 105.808594 136.246094 105.695312 135.8125 C 105.578125 135.375 105.371094 134.96875 105.253906 134.53125 C 105.140625 134.09375 105.132812 133.59375 105.386719 133.222656 C 104.78125 132.886719 104.167969 132.535156 103.804688 131.941406 C 103.667969 131.71875 103.574219 131.453125 103.621094 131.195312 C 103.65625 131 103.769531 130.828125 103.890625 130.671875 C 104.089844 130.414062 104.316406 130.179688 104.574219 129.980469 C 104.742188 129.84375 104.925781 129.71875 105.0625 129.546875 C 105.195312 129.378906 105.277344 129.144531 105.203125 128.9375 C 105.164062 128.597656 105.175781 128.183594 105.285156 127.855469 C 105.40625 127.484375 105.679688 127.179688 105.789062 126.804688 C 105.917969 126.378906 105.820312 125.878906 105.527344 125.542969 C 105.730469 125.457031 105.941406 125.367188 106.089844 125.199219 C 106.21875 125.050781 106.285156 124.855469 106.335938 124.660156 C 106.480469 124.121094 106.527344 123.5625 106.574219 123.007812 C 106.582031 122.953125 106.585938 122.894531 106.554688 122.847656 C 106.527344 122.800781 106.347656 122.753906 106.3125 122.796875 C 105.699219 122.648438 105.195312 122.113281 105.082031 121.488281 C 104.96875 120.867188 105.257812 120.191406 105.785156 119.839844 C 105.324219 119.550781 105.003906 119.042969 104.839844 118.527344 C 104.675781 118.011719 104.621094 117.464844 104.539062 116.929688 C 104.457031 116.394531 104.335938 115.851562 104.058594 115.386719 C 104.496094 115.058594 104.964844 114.742188 105.109375 114.238281 C 105.214844 113.871094 105.191406 113.472656 105.28125 113.101562 C 105.398438 112.585938 105.738281 112.128906 106.195312 111.859375 C 105.96875 111.574219 105.746094 111.207031 105.636719 110.863281 C 105.523438 110.515625 105.519531 110.121094 105.707031 109.8125 C 105.945312 109.414062 106.472656 109.214844 106.921875 109.109375 L 106.941406 109.109375 C 106.714844 108.945312 106.726562 108.957031 106.566406 108.730469 C 106.371094 108.457031 106.285156 108.117188 106.234375 107.785156 C 106.183594 107.449219 106.160156 107.113281 106.066406 106.789062 C 106.074219 106.558594 105.953125 106.285156 105.757812 106.15625 C 105.632812 106.074219 105.464844 106.023438 105.402344 105.882812 C 105.363281 105.792969 105.382812 105.6875 105.433594 105.605469 C 105.484375 105.523438 105.574219 105.445312 105.660156 105.398438 C 105.632812 104.476562 105.257812 103.601562 105.019531 102.707031 C 104.722656 101.613281 104.632812 100.464844 104.753906 99.335938 C 105.453125 99.070312 106.789062 99.132812 107.671875 99.371094 C 108.433594 99.574219 109.164062 99.917969 109.949219 100.027344 C 110.4375 100.09375 110.96875 100.054688 111.367188 99.765625 C 111.554688 100.179688 112.027344 100.5625 112.476562 100.644531 C 112.796875 100.703125 113.125 100.652344 113.449219 100.6875 C 113.925781 100.734375 114.390625 100.984375 114.640625 101.386719 C 114.683594 101.085938 114.839844 100.699219 115.035156 100.460938 C 115.226562 100.226562 115.503906 100.058594 115.804688 100.011719 C 116.136719 99.960938 116.472656 100.0625 116.765625 100.230469 C 117.054688 100.398438 117.101562 100.441406 117.34375 100.667969 C 117.679688 100.21875 118.273438 99.796875 118.820312 99.679688 C 119.109375 99.621094 119.40625 99.613281 119.6875 99.53125 C 120.167969 99.394531 120.652344 99.027344 120.855469 98.570312 C 121.238281 98.796875 121.71875 98.738281 122.144531 98.863281 C 122.382812 98.933594 122.605469 99.066406 122.851562 99.117188 C 123.164062 99.1875 123.496094 99.125 123.808594 99.195312 C 124.472656 99.34375 124.855469 100.019531 125.5 100.238281 C 125.894531 99.953125 126.34375 99.738281 126.816406 99.613281 C 126.949219 99.574219 127.082031 99.546875 127.214844 99.570312 C 127.421875 99.601562 127.59375 99.742188 127.734375 99.898438 C 128.078125 100.28125 128.285156 100.679688 128.34375 101.191406 C 128.664062 101.046875 129.023438 101.003906 129.375 100.964844 C 129.726562 100.929688 130.085938 100.890625 130.410156 100.746094 C 130.734375 100.601562 131.03125 100.3125 131.101562 99.964844 C 131.457031 100.292969 132 100.402344 132.453125 100.234375 C 132.746094 100.128906 132.988281 99.921875 133.269531 99.800781 C 133.824219 99.5625 134.429688 99.664062 135.023438 99.761719 C 135.355469 99.210938 135.800781 98.734375 136.324219 98.359375 C 136.46875 98.253906 136.621094 98.160156 136.796875 98.132812 C 137.003906 98.101562 137.214844 98.167969 137.402344 98.261719 C 138.070312 98.585938 138.585938 99.210938 138.777344 99.933594 L 138.773438 99.824219 C 139.273438 99.601562 139.855469 99.566406 140.378906 99.726562 C 140.765625 99.847656 141.113281 100.066406 141.5 100.1875 C 141.882812 100.308594 142.347656 100.304688 142.644531 100.027344 C 142.78125 100.425781 143.144531 100.773438 143.550781 100.902344 C 144.128906 101.085938 144.800781 100.878906 145.339844 101.15625 C 145.546875 100.675781 145.84375 100.207031 146.210938 99.835938 C 146.339844 99.710938 146.480469 99.59375 146.652344 99.550781 C 146.859375 99.5 147.078125 99.566406 147.273438 99.648438 C 147.769531 99.84375 147.964844 99.914062 148.390625 100.234375 C 148.734375 99.890625 149.089844 99.535156 149.550781 99.382812 C 149.957031 99.25 150.40625 99.289062 150.808594 99.160156 C 151.09375 99.066406 151.355469 98.894531 151.648438 98.828125 C 151.84375 98.785156 152.046875 98.792969 152.246094 98.773438 C 152.449219 98.757812 152.65625 98.710938 152.808594 98.582031 C 153.046875 98.984375 153.417969 99.402344 153.855469 99.570312 C 154.394531 99.777344 155.050781 99.539062 155.535156 99.84375 C 155.726562 99.964844 155.859375 100.15625 156.015625 100.316406 C 156.171875 100.476562 156.375 100.621094 156.597656 100.613281 C 156.976562 100.347656 157.402344 100.089844 157.832031 99.917969 C 157.945312 99.875 158.066406 99.832031 158.1875 99.847656 C 158.351562 99.871094 158.476562 99.992188 158.582031 100.117188 C 158.875 100.46875 159.085938 100.886719 159.183594 101.332031 C 159.421875 100.976562 159.890625 100.796875 160.3125 100.726562 C 160.734375 100.660156 161.171875 100.65625 161.570312 100.496094 C 161.910156 100.359375 162.203125 100.109375 162.394531 99.792969 C 162.8125 100.113281 163.429688 100.128906 163.945312 100.015625 C 164.457031 99.90625 164.933594 99.667969 165.429688 99.5 C 166.511719 99.132812 167.898438 99.070312 169.011719 99.335938 C 169.132812 100.464844 169.042969 101.613281 168.75 102.707031 C 168.507812 103.601562 168.132812 104.472656 168.105469 105.398438 C 168.191406 105.441406 168.28125 105.519531 168.335938 105.605469 C 168.386719 105.6875 168.402344 105.796875 168.363281 105.882812 C 168.300781 106.023438 168.136719 106.074219 168.007812 106.15625 C 167.816406 106.28125 167.691406 106.554688 167.699219 106.785156 C 167.605469 107.109375 167.585938 107.449219 167.53125 107.785156 C 167.480469 108.117188 167.398438 108.453125 167.203125 108.730469 C 167.042969 108.953125 167.050781 108.945312 166.828125 109.109375 L 166.847656 109.109375 C 167.296875 109.210938 167.820312 109.414062 168.058594 109.808594 C 168.242188 110.121094 168.242188 110.515625 168.132812 110.863281 C 168.019531 111.207031 167.796875 111.574219 167.574219 111.859375 C 168.027344 112.125 168.367188 112.585938 168.488281 113.101562 C 168.574219 113.472656 168.550781 113.867188 168.660156 114.234375 C 168.804688 114.738281 169.273438 115.054688 169.710938 115.382812 C 169.429688 115.847656 169.308594 116.390625 169.226562 116.929688 C 169.144531 117.464844 169.09375 118.007812 168.929688 118.527344 C 168.761719 119.042969 168.441406 119.550781 167.980469 119.839844 C 168.507812 120.191406 168.796875 120.867188 168.683594 121.488281 C 168.574219 122.109375 168.070312 122.648438 167.453125 122.792969 C 167.417969 122.75 167.238281 122.796875 167.210938 122.84375 C 167.183594 122.890625 167.1875 122.949219 167.191406 123.007812 C 167.238281 123.5625 167.289062 124.121094 167.429688 124.660156 C 167.480469 124.855469 167.546875 125.046875 167.679688 125.199219 C 167.824219 125.367188 168.035156 125.457031 168.242188 125.542969 C 167.949219 125.878906 167.851562 126.378906 167.976562 126.804688 C 168.089844 127.175781 168.359375 127.484375 168.480469 127.855469 C 168.589844 128.179688 168.601562 128.59375 168.5625 128.9375 C 168.488281 129.144531 168.570312 129.378906 168.707031 129.546875 C 168.839844 129.71875 169.023438 129.839844 169.195312 129.976562 C 169.449219 130.179688 169.675781 130.414062 169.875 130.667969 C 169.996094 130.828125 170.109375 131 170.144531 131.195312 C 170.183594 131.449219 170.089844 131.714844 169.953125 131.941406 Z M 169.953125 131.941406 " fill-opacity="1" fill-rule="nonzero"/><g clip-path="url(#cf5dd02a36)"><path fill="#04195c" d="M 102.972656 97.460938 L 170.773438 97.460938 L 170.773438 165.261719 L 102.972656 165.261719 Z M 102.972656 97.460938 " fill-opacity="1" fill-rule="nonzero"/></g><g clip-path="url(#82513449bc)"><path fill="#ff0000" d="M 99.265625 116.488281 C 98.90625 117.082031 98.292969 117.429688 97.6875 117.769531 C 97.941406 118.140625 97.933594 118.636719 97.820312 119.070312 C 97.703125 119.507812 97.496094 119.914062 97.382812 120.351562 C 97.265625 120.785156 97.292969 121.363281 97.546875 121.734375 C 97.199219 121.75 96.90625 122.027344 96.765625 122.347656 C 96.625 122.667969 96.601562 123.023438 96.574219 123.371094 C 96.542969 123.71875 96.496094 124.078125 96.316406 124.375 L 96.324219 124.375 C 96.820312 124.574219 97.339844 124.785156 97.695312 125.191406 C 97.796875 125.3125 97.886719 125.445312 97.941406 125.59375 C 98.0625 125.929688 98.011719 126.308594 97.875 126.640625 C 97.738281 126.96875 97.519531 127.261719 97.304688 127.546875 C 97.582031 127.824219 98.042969 128.140625 98.171875 128.515625 C 98.25 128.753906 98.257812 129.011719 98.292969 129.261719 C 98.417969 130.148438 98.890625 130.984375 98.859375 131.878906 L 98.859375 131.882812 C 98.855469 131.972656 98.789062 132.050781 98.710938 132.097656 C 98.632812 132.144531 98.546875 132.167969 98.464844 132.210938 C 98.1875 132.351562 98.039062 132.667969 97.980469 132.976562 C 97.921875 133.285156 97.929688 133.605469 97.867188 133.910156 C 97.734375 134.535156 97.253906 135.042969 96.839844 135.527344 C 97.066406 135.8125 97.296875 136.101562 97.425781 136.4375 C 97.554688 136.777344 97.566406 137.179688 97.375 137.484375 C 97.140625 137.863281 96.574219 138.042969 96.144531 138.152344 C 96.460938 138.460938 96.796875 138.800781 96.859375 139.234375 C 96.902344 139.539062 96.808594 139.847656 96.847656 140.148438 C 96.882812 140.410156 97.015625 140.652344 97.183594 140.851562 C 97.355469 141.054688 97.5625 141.222656 97.765625 141.386719 C 97.394531 141.941406 97.433594 142.738281 97.605469 143.382812 C 97.78125 144.027344 98.089844 144.628906 98.261719 145.277344 C 98.480469 146.101562 98.464844 146.988281 98.21875 147.804688 C 97.113281 148.066406 95.828125 148.070312 94.746094 147.699219 C 94.253906 147.53125 93.777344 147.296875 93.265625 147.1875 C 92.753906 147.074219 92.136719 147.09375 91.71875 147.410156 C 91.527344 147.09375 91.234375 146.84375 90.894531 146.707031 C 90.5 146.550781 90.0625 146.542969 89.640625 146.476562 C 89.21875 146.410156 88.753906 146.226562 88.515625 145.875 C 88.414062 146.316406 88.207031 146.734375 87.914062 147.082031 C 87.808594 147.207031 87.679688 147.328125 87.519531 147.351562 C 87.398438 147.371094 87.277344 147.328125 87.164062 147.285156 C 86.734375 147.117188 86.308594 146.859375 85.933594 146.59375 C 85.707031 146.582031 85.503906 146.726562 85.351562 146.886719 C 85.195312 147.046875 85.058594 147.238281 84.871094 147.355469 C 84.386719 147.660156 83.730469 147.425781 83.195312 147.632812 C 82.757812 147.800781 82.386719 148.214844 82.148438 148.617188 C 81.996094 148.488281 81.789062 148.441406 81.589844 148.425781 C 81.390625 148.410156 81.1875 148.417969 80.992188 148.371094 C 80.699219 148.308594 80.441406 148.132812 80.152344 148.042969 C 79.75 147.910156 79.304688 147.949219 78.898438 147.816406 C 78.441406 147.667969 78.082031 147.3125 77.742188 146.96875 C 77.316406 147.289062 77.121094 147.359375 76.628906 147.554688 C 76.429688 147.632812 76.214844 147.703125 76.007812 147.652344 C 75.835938 147.609375 75.691406 147.488281 75.566406 147.363281 C 75.199219 147 74.902344 146.527344 74.695312 146.046875 C 74.15625 146.324219 73.488281 146.121094 72.910156 146.300781 C 72.503906 146.429688 72.144531 146.773438 72.003906 147.175781 C 71.710938 146.898438 71.246094 146.894531 70.863281 147.015625 C 70.476562 147.132812 70.128906 147.355469 69.742188 147.472656 C 69.222656 147.632812 68.640625 147.601562 68.140625 147.378906 L 68.144531 147.269531 C 67.957031 147.988281 67.441406 148.613281 66.773438 148.9375 C 66.585938 149.03125 66.375 149.097656 66.167969 149.066406 C 65.996094 149.039062 65.839844 148.945312 65.699219 148.839844 C 65.175781 148.46875 64.730469 147.988281 64.398438 147.4375 C 63.804688 147.539062 63.203125 147.640625 62.648438 147.402344 C 62.367188 147.28125 62.121094 147.074219 61.835938 146.96875 C 61.382812 146.800781 60.839844 146.910156 60.484375 147.234375 C 60.414062 146.890625 60.117188 146.601562 59.792969 146.457031 C 59.46875 146.316406 59.113281 146.273438 58.761719 146.238281 C 58.410156 146.199219 58.054688 146.160156 57.730469 146.011719 C 57.675781 146.527344 57.46875 146.921875 57.121094 147.304688 C 56.980469 147.457031 56.8125 147.601562 56.605469 147.632812 C 56.472656 147.652344 56.335938 147.625 56.207031 147.589844 C 55.734375 147.460938 55.289062 147.25 54.894531 146.964844 C 54.25 147.183594 53.871094 147.855469 53.207031 148.003906 C 52.894531 148.074219 52.558594 148.011719 52.25 148.082031 C 52.003906 148.136719 51.785156 148.265625 51.542969 148.335938 C 51.117188 148.460938 50.636719 148.402344 50.257812 148.628906 C 50.054688 148.175781 49.570312 147.804688 49.089844 147.667969 C 48.8125 147.589844 48.511719 147.582031 48.226562 147.519531 C 47.683594 147.40625 47.085938 146.984375 46.753906 146.535156 C 46.507812 146.761719 46.464844 146.804688 46.175781 146.972656 C 45.882812 147.140625 45.542969 147.242188 45.214844 147.191406 C 44.914062 147.148438 44.640625 146.976562 44.445312 146.742188 C 44.253906 146.507812 44.09375 146.117188 44.054688 145.816406 C 43.804688 146.222656 43.339844 146.46875 42.867188 146.519531 C 42.542969 146.550781 42.214844 146.5 41.894531 146.558594 C 41.445312 146.644531 40.972656 147.023438 40.789062 147.4375 C 40.390625 147.148438 39.863281 147.109375 39.375 147.175781 C 38.589844 147.285156 37.859375 147.628906 37.097656 147.832031 C 36.214844 148.066406 34.984375 148.074219 34.289062 147.804688 C 34.046875 146.988281 34.03125 146.101562 34.25 145.277344 C 34.421875 144.632812 34.730469 144.03125 34.902344 143.382812 C 35.078125 142.738281 35.117188 141.945312 34.746094 141.390625 C 34.949219 141.222656 35.15625 141.054688 35.328125 140.855469 C 35.496094 140.652344 35.628906 140.414062 35.664062 140.152344 C 35.703125 139.847656 35.605469 139.539062 35.652344 139.234375 C 35.714844 138.800781 36.050781 138.460938 36.367188 138.15625 C 35.9375 138.042969 35.371094 137.863281 35.136719 137.488281 C 34.941406 137.179688 34.957031 136.777344 35.085938 136.441406 C 35.214844 136.101562 35.445312 135.8125 35.671875 135.53125 C 35.257812 135.042969 34.777344 134.539062 34.644531 133.910156 C 34.578125 133.605469 34.589844 133.289062 34.53125 132.980469 C 34.472656 132.671875 34.324219 132.355469 34.046875 132.210938 C 33.964844 132.171875 33.875 132.144531 33.800781 132.097656 C 33.722656 132.050781 33.652344 131.972656 33.652344 131.882812 L 33.652344 131.878906 C 33.621094 130.988281 34.089844 130.152344 34.214844 129.265625 C 34.253906 129.015625 34.257812 128.753906 34.339844 128.515625 C 34.46875 128.140625 34.925781 127.828125 35.207031 127.546875 C 34.992188 127.261719 34.773438 126.972656 34.636719 126.640625 C 34.496094 126.308594 34.445312 125.929688 34.570312 125.59375 C 34.625 125.445312 34.710938 125.3125 34.816406 125.195312 C 35.167969 124.789062 35.6875 124.574219 36.1875 124.378906 L 36.195312 124.375 C 36.015625 124.078125 35.96875 123.71875 35.9375 123.371094 C 35.90625 123.023438 35.886719 122.667969 35.746094 122.347656 C 35.605469 122.03125 35.3125 121.75 34.964844 121.734375 C 35.214844 121.363281 35.246094 120.789062 35.128906 120.351562 C 35.015625 119.917969 34.804688 119.507812 34.691406 119.074219 C 34.578125 118.636719 34.570312 118.140625 34.824219 117.769531 C 34.21875 117.429688 33.605469 117.082031 33.246094 116.488281 C 33.109375 116.265625 33.015625 116 33.0625 115.746094 C 33.097656 115.550781 33.207031 115.378906 33.332031 115.222656 C 33.527344 114.964844 33.757812 114.734375 34.011719 114.53125 C 34.179688 114.394531 34.363281 114.269531 34.5 114.101562 C 34.632812 113.929688 34.714844 113.699219 34.640625 113.492188 C 34.601562 113.152344 34.613281 112.738281 34.722656 112.410156 C 34.84375 112.042969 35.113281 111.734375 35.226562 111.363281 C 35.351562 110.9375 35.253906 110.4375 34.964844 110.105469 C 35.167969 110.019531 35.378906 109.925781 35.523438 109.761719 C 35.65625 109.609375 35.722656 109.414062 35.769531 109.222656 C 35.914062 108.683594 35.960938 108.125 36.011719 107.570312 C 36.015625 107.519531 36.019531 107.457031 35.988281 107.410156 C 35.960938 107.363281 35.78125 107.316406 35.75 107.359375 C 35.136719 107.214844 34.632812 106.679688 34.519531 106.058594 C 34.40625 105.433594 34.695312 104.761719 35.222656 104.410156 C 34.761719 104.121094 34.441406 103.617188 34.277344 103.101562 C 34.113281 102.585938 34.058594 102.039062 33.976562 101.503906 C 33.894531 100.96875 33.777344 100.429688 33.496094 99.964844 C 33.933594 99.636719 34.402344 99.320312 34.546875 98.816406 C 34.652344 98.453125 34.628906 98.058594 34.714844 97.683594 C 34.835938 97.171875 35.175781 96.710938 35.628906 96.445312 C 35.40625 96.164062 35.183594 95.792969 35.070312 95.449219 C 34.960938 95.105469 34.957031 94.710938 35.144531 94.402344 C 35.378906 94.007812 35.90625 93.804688 36.355469 93.699219 L 36.375 93.699219 C 36.152344 93.535156 36.160156 93.546875 36 93.324219 C 35.804688 93.050781 35.722656 92.710938 35.671875 92.378906 C 35.621094 92.046875 35.597656 91.707031 35.503906 91.382812 C 35.511719 91.152344 35.386719 90.878906 35.195312 90.753906 C 35.066406 90.671875 34.902344 90.621094 34.839844 90.480469 C 34.800781 90.390625 34.820312 90.285156 34.871094 90.203125 C 34.921875 90.121094 35.011719 90.042969 35.097656 89.996094 C 35.070312 89.074219 34.695312 88.203125 34.457031 87.3125 C 34.164062 86.21875 34.074219 85.070312 34.191406 83.945312 C 34.890625 83.679688 36.222656 83.742188 37.101562 83.980469 C 37.867188 84.183594 38.59375 84.527344 39.378906 84.632812 C 39.863281 84.703125 40.394531 84.664062 40.792969 84.371094 C 40.980469 84.789062 41.453125 85.167969 41.898438 85.25 C 42.21875 85.3125 42.546875 85.257812 42.871094 85.292969 C 43.347656 85.339844 43.808594 85.589844 44.0625 85.992188 C 44.101562 85.691406 44.257812 85.304688 44.453125 85.070312 C 44.644531 84.835938 44.921875 84.667969 45.21875 84.617188 C 45.550781 84.570312 45.890625 84.667969 46.179688 84.839844 C 46.46875 85.003906 46.515625 85.046875 46.757812 85.277344 C 47.09375 84.828125 47.6875 84.40625 48.234375 84.289062 C 48.519531 84.230469 48.816406 84.222656 49.097656 84.140625 C 49.574219 84.003906 50.0625 83.636719 50.261719 83.179688 C 50.644531 83.40625 51.125 83.347656 51.546875 83.472656 C 51.789062 83.546875 52.007812 83.675781 52.253906 83.730469 C 52.566406 83.796875 52.898438 83.738281 53.210938 83.804688 C 53.875 83.953125 54.257812 84.628906 54.898438 84.847656 C 55.292969 84.5625 55.742188 84.347656 56.210938 84.222656 C 56.34375 84.183594 56.476562 84.15625 56.609375 84.179688 C 56.816406 84.210938 56.988281 84.351562 57.128906 84.507812 C 57.472656 84.890625 57.679688 85.285156 57.738281 85.800781 C 58.058594 85.652344 58.414062 85.609375 58.765625 85.574219 C 59.117188 85.535156 59.476562 85.496094 59.800781 85.351562 C 60.121094 85.207031 60.417969 84.921875 60.488281 84.574219 C 60.84375 84.902344 61.386719 85.007812 61.839844 84.84375 C 62.128906 84.734375 62.371094 84.53125 62.65625 84.410156 C 63.207031 84.171875 63.8125 84.273438 64.402344 84.371094 C 64.738281 83.824219 65.179688 83.34375 65.703125 82.96875 C 65.847656 82.867188 66 82.773438 66.175781 82.742188 C 66.382812 82.710938 66.589844 82.78125 66.777344 82.871094 C 67.445312 83.195312 67.960938 83.824219 68.148438 84.539062 L 68.148438 84.433594 C 68.648438 84.210938 69.226562 84.175781 69.75 84.335938 C 70.132812 84.457031 70.480469 84.675781 70.867188 84.796875 C 71.253906 84.914062 71.714844 84.910156 72.007812 84.636719 C 72.148438 85.035156 72.507812 85.378906 72.914062 85.507812 C 73.492188 85.691406 74.160156 85.484375 74.699219 85.761719 C 74.90625 85.285156 75.203125 84.816406 75.574219 84.445312 C 75.699219 84.320312 75.839844 84.203125 76.011719 84.160156 C 76.21875 84.109375 76.433594 84.175781 76.632812 84.257812 C 77.125 84.453125 77.324219 84.523438 77.746094 84.839844 C 78.085938 84.5 78.445312 84.144531 78.90625 83.992188 C 79.308594 83.859375 79.757812 83.902344 80.160156 83.769531 C 80.445312 83.679688 80.703125 83.503906 80.996094 83.4375 C 81.195312 83.394531 81.394531 83.402344 81.59375 83.382812 C 81.796875 83.367188 82 83.320312 82.15625 83.191406 C 82.394531 83.59375 82.761719 84.011719 83.203125 84.179688 C 83.738281 84.386719 84.394531 84.148438 84.878906 84.453125 C 85.066406 84.574219 85.199219 84.761719 85.355469 84.921875 C 85.511719 85.082031 85.714844 85.230469 85.9375 85.21875 C 86.316406 84.957031 86.742188 84.695312 87.171875 84.527344 C 87.285156 84.480469 87.402344 84.441406 87.527344 84.457031 C 87.6875 84.480469 87.8125 84.601562 87.917969 84.726562 C 88.210938 85.074219 88.417969 85.492188 88.519531 85.9375 C 88.757812 85.582031 89.226562 85.402344 89.644531 85.335938 C 90.066406 85.265625 90.503906 85.261719 90.898438 85.101562 C 91.238281 84.964844 91.53125 84.714844 91.722656 84.402344 C 92.140625 84.71875 92.757812 84.738281 93.269531 84.625 C 93.78125 84.511719 94.257812 84.277344 94.753906 84.109375 C 95.832031 83.742188 97.21875 83.679688 98.328125 83.945312 C 98.449219 85.070312 98.359375 86.21875 98.066406 87.3125 C 97.824219 88.203125 97.449219 89.074219 97.425781 89.996094 C 97.511719 90.042969 97.601562 90.117188 97.652344 90.203125 C 97.703125 90.285156 97.722656 90.394531 97.683594 90.480469 C 97.621094 90.621094 97.453125 90.671875 97.328125 90.753906 C 97.132812 90.878906 97.011719 91.152344 97.019531 91.382812 C 96.925781 91.707031 96.902344 92.042969 96.851562 92.378906 C 96.800781 92.710938 96.71875 93.046875 96.523438 93.320312 C 96.363281 93.546875 96.371094 93.535156 96.148438 93.699219 L 96.167969 93.699219 C 96.617188 93.804688 97.140625 94.003906 97.375 94.398438 C 97.5625 94.710938 97.5625 95.105469 97.449219 95.449219 C 97.335938 95.792969 97.117188 96.160156 96.890625 96.445312 C 97.347656 96.710938 97.6875 97.171875 97.804688 97.683594 C 97.890625 98.054688 97.867188 98.449219 97.976562 98.816406 C 98.121094 99.316406 98.589844 99.636719 99.023438 99.964844 C 98.742188 100.425781 98.625 100.96875 98.542969 101.503906 C 98.460938 102.039062 98.410156 102.582031 98.246094 103.101562 C 98.078125 103.617188 97.761719 104.121094 97.300781 104.410156 C 97.824219 104.761719 98.113281 105.4375 98 106.054688 C 97.890625 106.675781 97.386719 107.210938 96.773438 107.359375 C 96.738281 107.316406 96.558594 107.363281 96.53125 107.410156 C 96.503906 107.457031 96.507812 107.515625 96.511719 107.570312 C 96.558594 108.125 96.609375 108.683594 96.75 109.222656 C 96.800781 109.414062 96.867188 109.609375 96.996094 109.757812 C 97.144531 109.925781 97.355469 110.015625 97.558594 110.101562 C 97.265625 110.4375 97.167969 110.9375 97.296875 111.363281 C 97.40625 111.734375 97.679688 112.042969 97.800781 112.410156 C 97.90625 112.734375 97.917969 113.148438 97.878906 113.492188 C 97.808594 113.695312 97.886719 113.929688 98.023438 114.101562 C 98.15625 114.269531 98.339844 114.394531 98.511719 114.53125 C 98.761719 114.730469 98.992188 114.964844 99.191406 115.21875 C 99.3125 115.375 99.425781 115.550781 99.460938 115.742188 C 99.5 116 99.402344 116.261719 99.265625 116.488281 Z M 99.265625 116.488281 " fill-opacity="1" fill-rule="nonzero"/></g><g clip-path="url(#f084013fad)"><path fill="#999999" d="M 32.414062 82.074219 L 100.085938 82.074219 L 100.085938 149.746094 L 32.414062 149.746094 Z M 32.414062 82.074219 " fill-opacity="1" fill-rule="nonzero"/></g><g clip-path="url(#41221d246c)"><path fill="#ff0000" d="M 169.953125 61.609375 C 169.589844 62.203125 168.976562 62.550781 168.367188 62.890625 C 168.625 63.261719 168.617188 63.761719 168.5 64.195312 C 168.386719 64.632812 168.179688 65.042969 168.0625 65.480469 C 167.945312 65.914062 167.976562 66.492188 168.230469 66.863281 C 167.882812 66.878906 167.589844 67.160156 167.445312 67.480469 C 167.304688 67.800781 167.285156 68.15625 167.253906 68.503906 C 167.222656 68.851562 167.175781 69.210938 166.996094 69.511719 L 167.003906 69.511719 C 167.503906 69.710938 168.023438 69.921875 168.378906 70.328125 C 168.480469 70.449219 168.570312 70.585938 168.625 70.730469 C 168.746094 71.066406 168.695312 71.449219 168.558594 71.777344 C 168.417969 72.109375 168.199219 72.402344 167.984375 72.6875 C 168.265625 72.96875 168.726562 73.28125 168.855469 73.65625 C 168.933594 73.898438 168.941406 74.15625 168.976562 74.40625 C 169.101562 75.296875 169.574219 76.132812 169.542969 77.027344 L 169.542969 77.03125 C 169.542969 77.121094 169.472656 77.199219 169.394531 77.246094 C 169.316406 77.292969 169.230469 77.320312 169.148438 77.359375 C 168.871094 77.503906 168.722656 77.820312 168.664062 78.128906 C 168.605469 78.4375 168.613281 78.757812 168.550781 79.0625 C 168.414062 79.6875 167.9375 80.199219 167.519531 80.683594 C 167.746094 80.96875 167.976562 81.257812 168.105469 81.597656 C 168.234375 81.9375 168.25 82.339844 168.058594 82.644531 C 167.820312 83.023438 167.253906 83.203125 166.824219 83.316406 C 167.140625 83.621094 167.476562 83.960938 167.539062 84.398438 C 167.582031 84.703125 167.488281 85.011719 167.527344 85.316406 C 167.5625 85.578125 167.695312 85.820312 167.867188 86.019531 C 168.035156 86.21875 168.246094 86.386719 168.449219 86.554688 C 168.078125 87.113281 168.113281 87.90625 168.289062 88.554688 C 168.464844 89.199219 168.773438 89.804688 168.945312 90.453125 C 169.164062 91.277344 169.148438 92.164062 168.902344 92.984375 C 167.792969 93.246094 166.503906 93.25 165.425781 92.878906 C 164.929688 92.710938 164.453125 92.476562 163.9375 92.367188 C 163.425781 92.253906 162.808594 92.273438 162.390625 92.589844 C 162.199219 92.273438 161.902344 92.023438 161.5625 91.886719 C 161.167969 91.726562 160.730469 91.722656 160.308594 91.652344 C 159.886719 91.585938 159.417969 91.40625 159.179688 91.050781 C 159.078125 91.492188 158.871094 91.914062 158.578125 92.261719 C 158.472656 92.386719 158.34375 92.507812 158.183594 92.53125 C 158.0625 92.550781 157.941406 92.507812 157.828125 92.464844 C 157.394531 92.292969 156.972656 92.035156 156.59375 91.769531 C 156.367188 91.757812 156.164062 91.90625 156.007812 92.066406 C 155.855469 92.226562 155.71875 92.417969 155.53125 92.535156 C 155.042969 92.839844 154.386719 92.601562 153.851562 92.8125 C 153.414062 92.980469 153.042969 93.394531 152.800781 93.800781 C 152.648438 93.667969 152.441406 93.625 152.242188 93.609375 C 152.042969 93.589844 151.839844 93.597656 151.644531 93.554688 C 151.347656 93.488281 151.089844 93.3125 150.804688 93.222656 C 150.398438 93.089844 149.949219 93.128906 149.546875 92.996094 C 149.085938 92.847656 148.726562 92.492188 148.386719 92.148438 C 147.960938 92.464844 147.765625 92.539062 147.269531 92.734375 C 147.070312 92.8125 146.855469 92.882812 146.648438 92.832031 C 146.476562 92.789062 146.332031 92.667969 146.207031 92.542969 C 145.839844 92.175781 145.539062 91.703125 145.335938 91.222656 C 144.792969 91.5 144.125 91.296875 143.542969 91.480469 C 143.140625 91.609375 142.777344 91.953125 142.636719 92.355469 C 142.34375 92.074219 141.878906 92.074219 141.492188 92.195312 C 141.105469 92.3125 140.757812 92.53125 140.371094 92.652344 C 139.847656 92.8125 139.269531 92.78125 138.769531 92.558594 L 138.769531 92.449219 C 138.582031 93.167969 138.066406 93.796875 137.398438 94.121094 C 137.207031 94.210938 137 94.28125 136.792969 94.25 C 136.617188 94.222656 136.460938 94.125 136.320312 94.023438 C 135.796875 93.648438 135.351562 93.167969 135.015625 92.617188 C 134.421875 92.71875 133.816406 92.820312 133.265625 92.582031 C 132.984375 92.457031 132.738281 92.253906 132.449219 92.148438 C 131.996094 91.980469 131.453125 92.089844 131.097656 92.414062 C 131.023438 92.070312 130.726562 91.78125 130.402344 91.636719 C 130.082031 91.492188 129.722656 91.453125 129.371094 91.414062 C 129.019531 91.378906 128.660156 91.335938 128.335938 91.1875 C 128.28125 91.703125 128.074219 92.097656 127.726562 92.484375 C 127.585938 92.636719 127.417969 92.78125 127.210938 92.8125 C 127.078125 92.832031 126.941406 92.804688 126.8125 92.769531 C 126.339844 92.640625 125.890625 92.429688 125.496094 92.140625 C 124.851562 92.363281 124.46875 93.039062 123.804688 93.183594 C 123.492188 93.253906 123.15625 93.191406 122.84375 93.261719 C 122.597656 93.316406 122.378906 93.445312 122.136719 93.515625 C 121.710938 93.644531 121.230469 93.585938 120.847656 93.8125 C 120.648438 93.355469 120.160156 92.984375 119.683594 92.847656 C 119.402344 92.769531 119.101562 92.761719 118.816406 92.699219 C 118.269531 92.585938 117.671875 92.164062 117.339844 91.714844 C 117.09375 91.941406 117.050781 91.984375 116.757812 92.152344 C 116.46875 92.320312 116.128906 92.417969 115.796875 92.371094 C 115.496094 92.324219 115.222656 92.152344 115.027344 91.917969 C 114.832031 91.683594 114.675781 91.296875 114.636719 90.992188 C 114.382812 91.398438 113.917969 91.648438 113.445312 91.695312 C 113.121094 91.730469 112.789062 91.675781 112.472656 91.738281 C 112.023438 91.820312 111.550781 92.203125 111.363281 92.617188 C 110.964844 92.324219 110.433594 92.289062 109.945312 92.355469 C 109.160156 92.464844 108.429688 92.808594 107.664062 93.011719 C 106.78125 93.246094 105.550781 93.253906 104.851562 92.984375 C 104.605469 92.167969 104.59375 91.28125 104.8125 90.453125 C 104.984375 89.808594 105.292969 89.203125 105.46875 88.554688 C 105.640625 87.910156 105.679688 87.113281 105.308594 86.558594 C 105.515625 86.390625 105.71875 86.222656 105.890625 86.019531 C 106.0625 85.816406 106.195312 85.578125 106.226562 85.316406 C 106.265625 85.011719 106.171875 84.703125 106.214844 84.398438 C 106.28125 83.964844 106.617188 83.625 106.933594 83.316406 C 106.5 83.207031 105.933594 83.023438 105.699219 82.648438 C 105.503906 82.339844 105.519531 81.9375 105.648438 81.597656 C 105.777344 81.257812 106.011719 80.96875 106.234375 80.6875 C 105.820312 80.199219 105.339844 79.691406 105.207031 79.066406 C 105.140625 78.757812 105.152344 78.441406 105.09375 78.128906 C 105.035156 77.820312 104.886719 77.503906 104.609375 77.363281 C 104.527344 77.320312 104.4375 77.292969 104.359375 77.246094 C 104.28125 77.199219 104.214844 77.125 104.210938 77.03125 C 104.179688 76.132812 104.652344 75.296875 104.777344 74.410156 C 104.8125 74.15625 104.820312 73.898438 104.902344 73.660156 C 105.03125 73.28125 105.488281 72.96875 105.773438 72.6875 C 105.554688 72.402344 105.335938 72.113281 105.199219 71.78125 C 105.058594 71.449219 105.007812 71.066406 105.132812 70.730469 C 105.1875 70.582031 105.273438 70.449219 105.378906 70.332031 C 105.730469 69.921875 106.253906 69.710938 106.753906 69.515625 L 106.761719 69.511719 C 106.578125 69.210938 106.535156 68.855469 106.503906 68.503906 C 106.472656 68.15625 106.449219 67.800781 106.308594 67.480469 C 106.167969 67.164062 105.875 66.882812 105.527344 66.867188 C 105.78125 66.492188 105.808594 65.917969 105.695312 65.480469 C 105.578125 65.042969 105.371094 64.636719 105.253906 64.199219 C 105.140625 63.761719 105.132812 63.265625 105.386719 62.894531 C 104.78125 62.554688 104.167969 62.203125 103.804688 61.609375 C 103.667969 61.386719 103.574219 61.121094 103.621094 60.863281 C 103.65625 60.667969 103.769531 60.496094 103.890625 60.339844 C 104.089844 60.082031 104.316406 59.851562 104.574219 59.648438 C 104.742188 59.511719 104.925781 59.386719 105.0625 59.214844 C 105.195312 59.046875 105.277344 58.8125 105.203125 58.609375 C 105.164062 58.265625 105.175781 57.851562 105.285156 57.523438 C 105.40625 57.152344 105.679688 56.847656 105.789062 56.472656 C 105.917969 56.046875 105.820312 55.546875 105.527344 55.210938 C 105.730469 55.125 105.941406 55.035156 106.089844 54.867188 C 106.21875 54.71875 106.285156 54.523438 106.335938 54.328125 C 106.480469 53.789062 106.527344 53.230469 106.574219 52.675781 C 106.582031 52.621094 106.585938 52.5625 106.554688 52.515625 C 106.527344 52.46875 106.347656 52.421875 106.3125 52.464844 C 105.699219 52.316406 105.195312 51.78125 105.082031 51.15625 C 104.96875 50.535156 105.257812 49.859375 105.785156 49.507812 C 105.324219 49.21875 105.003906 48.710938 104.839844 48.195312 C 104.675781 47.679688 104.621094 47.132812 104.539062 46.597656 C 104.457031 46.0625 104.335938 45.519531 104.058594 45.054688 C 104.496094 44.726562 104.964844 44.410156 105.109375 43.90625 C 105.214844 43.539062 105.191406 43.140625 105.28125 42.769531 C 105.398438 42.253906 105.738281 41.796875 106.195312 41.527344 C 105.96875 41.246094 105.746094 40.875 105.636719 40.53125 C 105.523438 40.1875 105.519531 39.789062 105.707031 39.480469 C 105.945312 39.085938 106.472656 38.882812 106.921875 38.777344 L 106.941406 38.777344 C 106.714844 38.613281 106.726562 38.625 106.566406 38.398438 C 106.371094 38.125 106.285156 37.785156 106.234375 37.453125 C 106.183594 37.117188 106.160156 36.78125 106.066406 36.457031 C 106.074219 36.226562 105.953125 35.953125 105.757812 35.828125 C 105.632812 35.742188 105.464844 35.691406 105.402344 35.554688 C 105.363281 35.464844 105.382812 35.355469 105.433594 35.273438 C 105.484375 35.191406 105.574219 35.113281 105.660156 35.066406 C 105.632812 34.144531 105.257812 33.269531 105.019531 32.378906 C 104.722656 31.28125 104.632812 30.132812 104.753906 29.003906 C 105.453125 28.738281 106.789062 28.800781 107.671875 29.039062 C 108.433594 29.242188 109.164062 29.585938 109.949219 29.695312 C 110.4375 29.761719 110.96875 29.722656 111.367188 29.433594 C 111.554688 29.847656 112.027344 30.230469 112.476562 30.3125 C 112.796875 30.371094 113.125 30.320312 113.449219 30.355469 C 113.925781 30.402344 114.390625 30.652344 114.640625 31.054688 C 114.683594 30.753906 114.839844 30.367188 115.035156 30.128906 C 115.226562 29.894531 115.503906 29.726562 115.804688 29.679688 C 116.136719 29.628906 116.472656 29.730469 116.765625 29.898438 C 117.054688 30.066406 117.101562 30.109375 117.34375 30.335938 C 117.679688 29.886719 118.273438 29.464844 118.820312 29.347656 C 119.109375 29.289062 119.40625 29.28125 119.6875 29.203125 C 120.167969 29.0625 120.652344 28.695312 120.855469 28.238281 C 121.238281 28.464844 121.71875 28.40625 122.144531 28.53125 C 122.382812 28.605469 122.605469 28.734375 122.851562 28.789062 C 123.164062 28.855469 123.496094 28.796875 123.808594 28.863281 C 124.472656 29.011719 124.855469 29.6875 125.5 29.90625 C 125.894531 29.621094 126.34375 29.40625 126.816406 29.28125 C 126.949219 29.246094 127.082031 29.214844 127.214844 29.238281 C 127.421875 29.269531 127.59375 29.410156 127.734375 29.566406 C 128.078125 29.949219 128.285156 30.347656 128.34375 30.863281 C 128.664062 30.714844 129.023438 30.671875 129.375 30.632812 C 129.726562 30.597656 130.085938 30.558594 130.410156 30.414062 C 130.734375 30.269531 131.03125 29.980469 131.101562 29.632812 C 131.457031 29.960938 132 30.070312 132.453125 29.902344 C 132.746094 29.796875 132.988281 29.589844 133.269531 29.46875 C 133.824219 29.230469 134.429688 29.332031 135.023438 29.433594 C 135.355469 28.878906 135.800781 28.402344 136.324219 28.027344 C 136.46875 27.921875 136.621094 27.828125 136.796875 27.800781 C 137.003906 27.769531 137.214844 27.835938 137.402344 27.929688 C 138.070312 28.253906 138.585938 28.878906 138.777344 29.601562 L 138.773438 29.492188 C 139.273438 29.269531 139.855469 29.234375 140.378906 29.398438 C 140.765625 29.515625 141.113281 29.734375 141.5 29.855469 C 141.882812 29.976562 142.347656 29.972656 142.644531 29.695312 C 142.78125 30.097656 143.144531 30.441406 143.550781 30.570312 C 144.128906 30.753906 144.800781 30.546875 145.339844 30.824219 C 145.546875 30.34375 145.84375 29.875 146.210938 29.507812 C 146.339844 29.378906 146.480469 29.261719 146.652344 29.21875 C 146.859375 29.167969 147.078125 29.234375 147.273438 29.316406 C 147.769531 29.511719 147.964844 29.582031 148.390625 29.902344 C 148.734375 29.558594 149.089844 29.203125 149.550781 29.050781 C 149.957031 28.917969 150.40625 28.960938 150.808594 28.828125 C 151.09375 28.734375 151.355469 28.5625 151.648438 28.496094 C 151.84375 28.453125 152.046875 28.460938 152.246094 28.441406 C 152.449219 28.425781 152.65625 28.378906 152.808594 28.25 C 153.046875 28.652344 153.417969 29.070312 153.855469 29.238281 C 154.394531 29.445312 155.050781 29.207031 155.535156 29.511719 C 155.726562 29.632812 155.859375 29.824219 156.015625 29.984375 C 156.171875 30.144531 156.375 30.292969 156.597656 30.28125 C 156.976562 30.015625 157.402344 29.757812 157.832031 29.585938 C 157.945312 29.542969 158.066406 29.5 158.1875 29.515625 C 158.351562 29.539062 158.476562 29.660156 158.582031 29.785156 C 158.875 30.136719 159.085938 30.554688 159.183594 31 C 159.421875 30.644531 159.890625 30.464844 160.3125 30.394531 C 160.734375 30.328125 161.171875 30.324219 161.570312 30.164062 C 161.910156 30.027344 162.203125 29.777344 162.394531 29.460938 C 162.8125 29.78125 163.429688 29.796875 163.945312 29.683594 C 164.457031 29.574219 164.933594 29.335938 165.429688 29.167969 C 166.511719 28.800781 167.898438 28.738281 169.011719 29.003906 C 169.132812 30.132812 169.042969 31.28125 168.75 32.375 C 168.507812 33.269531 168.132812 34.140625 168.105469 35.066406 C 168.191406 35.109375 168.28125 35.1875 168.335938 35.273438 C 168.386719 35.355469 168.402344 35.464844 168.363281 35.550781 C 168.300781 35.691406 168.136719 35.742188 168.007812 35.824219 C 167.816406 35.949219 167.691406 36.222656 167.699219 36.457031 C 167.605469 36.777344 167.585938 37.117188 167.53125 37.453125 C 167.480469 37.785156 167.398438 38.121094 167.203125 38.398438 C 167.042969 38.621094 167.050781 38.613281 166.828125 38.777344 L 166.847656 38.777344 C 167.296875 38.882812 167.820312 39.082031 168.058594 39.480469 C 168.242188 39.789062 168.242188 40.183594 168.132812 40.53125 C 168.019531 40.875 167.796875 41.242188 167.574219 41.527344 C 168.027344 41.792969 168.367188 42.253906 168.488281 42.769531 C 168.574219 43.140625 168.550781 43.535156 168.660156 43.902344 C 168.804688 44.40625 169.273438 44.726562 169.710938 45.050781 C 169.429688 45.515625 169.308594 46.058594 169.226562 46.597656 C 169.144531 47.132812 169.09375 47.675781 168.929688 48.195312 C 168.761719 48.710938 168.441406 49.21875 167.980469 49.507812 C 168.507812 49.859375 168.796875 50.535156 168.683594 51.15625 C 168.574219 51.777344 168.070312 52.316406 167.453125 52.464844 C 167.417969 52.421875 167.238281 52.464844 167.210938 52.511719 C 167.183594 52.5625 167.1875 52.617188 167.191406 52.675781 C 167.238281 53.230469 167.289062 53.789062 167.429688 54.328125 C 167.480469 54.523438 167.546875 54.714844 167.679688 54.867188 C 167.824219 55.035156 168.035156 55.125 168.242188 55.210938 C 167.949219 55.546875 167.851562 56.046875 167.976562 56.472656 C 168.089844 56.84375 168.359375 57.152344 168.480469 57.523438 C 168.589844 57.847656 168.601562 58.261719 168.5625 58.605469 C 168.488281 58.8125 168.570312 59.046875 168.707031 59.214844 C 168.839844 59.386719 169.023438 59.511719 169.195312 59.644531 C 169.449219 59.847656 169.675781 60.082031 169.875 60.339844 C 169.996094 60.496094 170.109375 60.667969 170.144531 60.863281 C 170.183594 61.117188 170.089844 61.382812 169.953125 61.609375 Z M 169.953125 61.609375 " fill-opacity="1" fill-rule="nonzero"/></g><g clip-path="url(#d1c26362c3)"><path fill="#999999" d="M 102.972656 27.128906 L 170.773438 27.128906 L 170.773438 94.929688 L 102.972656 94.929688 Z M 102.972656 27.128906 " fill-opacity="1" fill-rule="nonzero"/></g><g clip-path="url(#3c80fdb3be)"><path fill="#ff0000" d="M 99.265625 45.695312 C 98.90625 46.289062 98.292969 46.636719 97.6875 46.976562 C 97.941406 47.347656 97.933594 47.84375 97.820312 48.28125 C 97.703125 48.714844 97.496094 49.125 97.382812 49.558594 C 97.265625 49.996094 97.292969 50.570312 97.546875 50.941406 C 97.199219 50.957031 96.90625 51.238281 96.765625 51.554688 C 96.625 51.875 96.601562 52.230469 96.574219 52.578125 C 96.542969 52.925781 96.496094 53.285156 96.316406 53.582031 L 96.324219 53.585938 C 96.820312 53.785156 97.339844 53.996094 97.695312 54.402344 C 97.796875 54.519531 97.886719 54.65625 97.941406 54.800781 C 98.0625 55.136719 98.011719 55.519531 97.875 55.847656 C 97.738281 56.179688 97.519531 56.46875 97.304688 56.753906 C 97.582031 57.035156 98.042969 57.347656 98.171875 57.722656 C 98.25 57.964844 98.257812 58.222656 98.292969 58.472656 C 98.417969 59.359375 98.890625 60.191406 98.859375 61.085938 L 98.859375 61.089844 C 98.855469 61.179688 98.789062 61.257812 98.710938 61.304688 C 98.632812 61.351562 98.546875 61.378906 98.464844 61.417969 C 98.1875 61.5625 98.039062 61.878906 97.980469 62.1875 C 97.921875 62.496094 97.929688 62.8125 97.867188 63.117188 C 97.734375 63.742188 97.253906 64.25 96.839844 64.738281 C 97.066406 65.019531 97.296875 65.308594 97.425781 65.648438 C 97.554688 65.984375 97.566406 66.386719 97.375 66.695312 C 97.140625 67.070312 96.574219 67.25 96.144531 67.363281 C 96.460938 67.667969 96.796875 68.007812 96.859375 68.441406 C 96.902344 68.746094 96.808594 69.054688 96.847656 69.359375 C 96.882812 69.621094 97.015625 69.859375 97.183594 70.0625 C 97.355469 70.261719 97.5625 70.429688 97.765625 70.597656 C 97.394531 71.152344 97.433594 71.945312 97.605469 72.589844 C 97.78125 73.238281 98.089844 73.839844 98.261719 74.484375 C 98.480469 75.3125 98.464844 76.195312 98.21875 77.011719 C 97.113281 77.277344 95.828125 77.277344 94.746094 76.910156 C 94.253906 76.738281 93.777344 76.503906 93.265625 76.394531 C 92.753906 76.285156 92.136719 76.300781 91.71875 76.617188 C 91.527344 76.304688 91.234375 76.054688 90.894531 75.917969 C 90.5 75.757812 90.0625 75.75 89.640625 75.683594 C 89.21875 75.617188 88.753906 75.4375 88.515625 75.082031 C 88.414062 75.523438 88.207031 75.945312 87.914062 76.292969 C 87.808594 76.414062 87.679688 76.539062 87.519531 76.5625 C 87.398438 76.578125 87.277344 76.539062 87.164062 76.492188 C 86.734375 76.324219 86.308594 76.066406 85.933594 75.800781 C 85.707031 75.789062 85.503906 75.933594 85.351562 76.097656 C 85.195312 76.257812 85.058594 76.445312 84.871094 76.566406 C 84.386719 76.871094 83.730469 76.632812 83.195312 76.839844 C 82.757812 77.011719 82.386719 77.421875 82.148438 77.828125 C 81.996094 77.695312 81.789062 77.652344 81.589844 77.636719 C 81.390625 77.617188 81.1875 77.625 80.992188 77.582031 C 80.699219 77.515625 80.441406 77.339844 80.152344 77.25 C 79.75 77.117188 79.304688 77.15625 78.898438 77.027344 C 78.441406 76.875 78.082031 76.519531 77.742188 76.179688 C 77.316406 76.496094 77.121094 76.566406 76.628906 76.761719 C 76.429688 76.84375 76.214844 76.910156 76.007812 76.859375 C 75.835938 76.816406 75.691406 76.699219 75.566406 76.574219 C 75.199219 76.207031 74.902344 75.734375 74.695312 75.257812 C 74.15625 75.53125 73.488281 75.328125 72.910156 75.511719 C 72.503906 75.640625 72.144531 75.980469 72.003906 76.382812 C 71.710938 76.105469 71.246094 76.105469 70.863281 76.222656 C 70.476562 76.34375 70.128906 76.5625 69.742188 76.683594 C 69.222656 76.84375 68.640625 76.808594 68.140625 76.585938 L 68.144531 76.480469 C 67.957031 77.195312 67.441406 77.824219 66.773438 78.148438 C 66.585938 78.238281 66.375 78.308594 66.167969 78.277344 C 65.996094 78.25 65.839844 78.152344 65.699219 78.050781 C 65.175781 77.675781 64.730469 77.195312 64.398438 76.648438 C 63.804688 76.746094 63.203125 76.847656 62.648438 76.609375 C 62.367188 76.488281 62.121094 76.285156 61.835938 76.175781 C 61.382812 76.011719 60.839844 76.117188 60.484375 76.445312 C 60.414062 76.097656 60.117188 75.8125 59.792969 75.667969 C 59.46875 75.523438 59.113281 75.484375 58.761719 75.445312 C 58.410156 75.410156 58.054688 75.367188 57.730469 75.21875 C 57.675781 75.734375 57.46875 76.128906 57.121094 76.511719 C 56.980469 76.667969 56.8125 76.808594 56.605469 76.839844 C 56.472656 76.863281 56.335938 76.832031 56.207031 76.796875 C 55.734375 76.671875 55.289062 76.457031 54.894531 76.171875 C 54.25 76.390625 53.871094 77.066406 53.207031 77.214844 C 52.894531 77.28125 52.558594 77.222656 52.25 77.289062 C 52.003906 77.34375 51.785156 77.472656 51.542969 77.542969 C 51.117188 77.671875 50.636719 77.613281 50.257812 77.839844 C 50.054688 77.382812 49.570312 77.015625 49.089844 76.878906 C 48.8125 76.796875 48.511719 76.789062 48.226562 76.730469 C 47.683594 76.613281 47.085938 76.191406 46.753906 75.746094 C 46.507812 75.96875 46.464844 76.011719 46.175781 76.183594 C 45.882812 76.351562 45.542969 76.449219 45.214844 76.402344 C 44.914062 76.355469 44.640625 76.183594 44.445312 75.949219 C 44.253906 75.714844 44.09375 75.328125 44.054688 75.027344 C 43.804688 75.429688 43.339844 75.679688 42.867188 75.726562 C 42.542969 75.761719 42.214844 75.707031 41.894531 75.769531 C 41.445312 75.851562 40.972656 76.234375 40.789062 76.648438 C 40.390625 76.355469 39.863281 76.316406 39.375 76.386719 C 38.589844 76.492188 37.859375 76.835938 37.097656 77.039062 C 36.214844 77.273438 34.984375 77.28125 34.289062 77.015625 C 34.046875 76.195312 34.03125 75.3125 34.25 74.488281 C 34.421875 73.84375 34.730469 73.238281 34.902344 72.59375 C 35.078125 71.949219 35.117188 71.152344 34.746094 70.597656 C 34.949219 70.429688 35.15625 70.265625 35.328125 70.0625 C 35.496094 69.859375 35.628906 69.621094 35.664062 69.359375 C 35.703125 69.054688 35.605469 68.746094 35.652344 68.445312 C 35.714844 68.007812 36.050781 67.671875 36.367188 67.363281 C 35.9375 67.253906 35.371094 67.070312 35.136719 66.695312 C 34.941406 66.390625 34.957031 65.988281 35.085938 65.648438 C 35.214844 65.308594 35.445312 65.019531 35.671875 64.738281 C 35.257812 64.25 34.777344 63.746094 34.644531 63.121094 C 34.578125 62.8125 34.589844 62.496094 34.53125 62.1875 C 34.472656 61.878906 34.324219 61.5625 34.046875 61.421875 C 33.964844 61.378906 33.875 61.351562 33.800781 61.304688 C 33.722656 61.257812 33.652344 61.183594 33.652344 61.089844 C 33.621094 60.195312 34.089844 59.359375 34.214844 58.472656 C 34.253906 58.222656 34.257812 57.964844 34.339844 57.726562 C 34.46875 57.347656 34.925781 57.035156 35.207031 56.757812 C 34.992188 56.46875 34.773438 56.179688 34.636719 55.847656 C 34.496094 55.519531 34.445312 55.136719 34.570312 54.800781 C 34.625 54.65625 34.710938 54.519531 34.816406 54.402344 C 35.167969 53.996094 35.6875 53.78125 36.1875 53.585938 L 36.195312 53.585938 C 36.015625 53.285156 35.96875 52.929688 35.9375 52.582031 C 35.90625 52.234375 35.886719 51.875 35.746094 51.558594 C 35.605469 51.238281 35.3125 50.960938 34.964844 50.945312 C 35.214844 50.570312 35.246094 49.996094 35.128906 49.5625 C 35.015625 49.125 34.804688 48.71875 34.691406 48.28125 C 34.578125 47.847656 34.570312 47.347656 34.824219 46.976562 C 34.21875 46.640625 33.605469 46.289062 33.246094 45.699219 C 33.109375 45.476562 33.015625 45.210938 33.0625 44.953125 C 33.097656 44.757812 33.207031 44.585938 33.332031 44.429688 C 33.527344 44.171875 33.757812 43.941406 34.011719 43.738281 C 34.179688 43.605469 34.363281 43.480469 34.5 43.308594 C 34.632812 43.140625 34.714844 42.90625 34.640625 42.703125 C 34.601562 42.359375 34.613281 41.949219 34.722656 41.617188 C 34.84375 41.25 35.113281 40.945312 35.226562 40.570312 C 35.351562 40.148438 35.253906 39.644531 34.964844 39.3125 C 35.167969 39.226562 35.378906 39.136719 35.523438 38.96875 C 35.65625 38.820312 35.722656 38.625 35.769531 38.433594 C 35.914062 37.894531 35.960938 37.335938 36.011719 36.78125 C 36.015625 36.726562 36.019531 36.667969 35.988281 36.621094 C 35.960938 36.574219 35.78125 36.527344 35.75 36.570312 C 35.136719 36.421875 34.632812 35.886719 34.519531 35.265625 C 34.40625 34.644531 34.695312 33.96875 35.222656 33.617188 C 34.761719 33.332031 34.441406 32.824219 34.277344 32.308594 C 34.113281 31.792969 34.058594 31.25 33.976562 30.714844 C 33.894531 30.179688 33.777344 29.636719 33.496094 29.171875 C 33.933594 28.84375 34.402344 28.53125 34.546875 28.027344 C 34.652344 27.660156 34.628906 27.265625 34.714844 26.894531 C 34.835938 26.378906 35.175781 25.921875 35.628906 25.65625 C 35.40625 25.371094 35.183594 25.003906 35.070312 24.660156 C 34.960938 24.3125 34.957031 23.921875 35.144531 23.609375 C 35.378906 23.214844 35.90625 23.011719 36.355469 22.910156 L 36.375 22.910156 C 36.152344 22.742188 36.160156 22.753906 36 22.53125 C 35.804688 22.257812 35.722656 21.917969 35.671875 21.585938 C 35.621094 21.253906 35.597656 20.914062 35.503906 20.589844 C 35.511719 20.363281 35.386719 20.089844 35.195312 19.964844 C 35.066406 19.882812 34.902344 19.828125 34.839844 19.691406 C 34.800781 19.601562 34.820312 19.492188 34.871094 19.410156 C 34.921875 19.328125 35.011719 19.253906 35.097656 19.207031 C 35.070312 18.285156 34.695312 17.414062 34.457031 16.519531 C 34.164062 15.425781 34.074219 14.28125 34.191406 13.15625 C 34.890625 12.886719 36.222656 12.953125 37.101562 13.1875 C 37.867188 13.390625 38.59375 13.734375 39.378906 13.84375 C 39.863281 13.910156 40.394531 13.871094 40.792969 13.582031 C 40.980469 13.996094 41.453125 14.378906 41.898438 14.460938 C 42.21875 14.519531 42.546875 14.46875 42.871094 14.5 C 43.347656 14.550781 43.808594 14.796875 44.0625 15.203125 C 44.101562 14.902344 44.257812 14.515625 44.453125 14.277344 C 44.644531 14.042969 44.921875 13.875 45.21875 13.828125 C 45.550781 13.777344 45.890625 13.878906 46.179688 14.046875 C 46.46875 14.214844 46.515625 14.253906 46.757812 14.484375 C 47.09375 14.035156 47.6875 13.613281 48.234375 13.5 C 48.519531 13.4375 48.816406 13.429688 49.097656 13.351562 C 49.574219 13.214844 50.0625 12.847656 50.261719 12.390625 C 50.644531 12.617188 51.125 12.554688 51.546875 12.683594 C 51.789062 12.753906 52.007812 12.882812 52.253906 12.9375 C 52.566406 13.007812 52.898438 12.945312 53.210938 13.015625 C 53.875 13.160156 54.257812 13.835938 54.898438 14.054688 C 55.292969 13.769531 55.742188 13.554688 56.210938 13.429688 C 56.34375 13.394531 56.476562 13.367188 56.609375 13.386719 C 56.816406 13.417969 56.988281 13.5625 57.128906 13.714844 C 57.472656 14.097656 57.679688 14.492188 57.738281 15.007812 C 58.058594 14.859375 58.414062 14.820312 58.765625 14.78125 C 59.117188 14.742188 59.476562 14.703125 59.800781 14.5625 C 60.121094 14.417969 60.417969 14.128906 60.488281 13.78125 C 60.84375 14.109375 61.386719 14.21875 61.839844 14.050781 C 62.128906 13.945312 62.371094 13.738281 62.65625 13.617188 C 63.207031 13.382812 63.8125 13.480469 64.402344 13.582031 C 64.738281 13.03125 65.179688 12.550781 65.703125 12.179688 C 65.847656 12.074219 66 11.980469 66.175781 11.953125 C 66.382812 11.921875 66.589844 11.988281 66.777344 12.082031 C 67.445312 12.402344 67.960938 13.03125 68.148438 13.75 L 68.148438 13.640625 C 68.648438 13.417969 69.226562 13.382812 69.75 13.546875 C 70.132812 13.664062 70.480469 13.882812 70.867188 14.003906 C 71.253906 14.125 71.714844 14.121094 72.007812 13.84375 C 72.148438 14.242188 72.507812 14.585938 72.914062 14.71875 C 73.492188 14.898438 74.160156 14.695312 74.699219 14.972656 C 74.90625 14.492188 75.203125 14.023438 75.574219 13.65625 C 75.699219 13.53125 75.839844 13.410156 76.011719 13.367188 C 76.21875 13.316406 76.433594 13.386719 76.632812 13.464844 C 77.125 13.660156 77.324219 13.730469 77.746094 14.050781 C 78.085938 13.707031 78.445312 13.355469 78.90625 13.203125 C 79.308594 13.070312 79.757812 13.109375 80.160156 12.976562 C 80.445312 12.886719 80.703125 12.710938 80.996094 12.648438 C 81.195312 12.605469 81.394531 12.613281 81.59375 12.59375 C 81.796875 12.578125 82 12.527344 82.15625 12.398438 C 82.394531 12.804688 82.761719 13.21875 83.203125 13.386719 C 83.738281 13.59375 84.394531 13.355469 84.878906 13.664062 C 85.066406 13.78125 85.199219 13.972656 85.355469 14.132812 C 85.511719 14.292969 85.714844 14.4375 85.9375 14.425781 C 86.316406 14.164062 86.742188 13.90625 87.171875 13.734375 C 87.285156 13.691406 87.402344 13.648438 87.527344 13.667969 C 87.6875 13.6875 87.8125 13.808594 87.917969 13.933594 C 88.210938 14.285156 88.417969 14.703125 88.519531 15.144531 C 88.757812 14.792969 89.226562 14.609375 89.644531 14.542969 C 90.066406 14.476562 90.503906 14.46875 90.898438 14.3125 C 91.238281 14.175781 91.53125 13.925781 91.722656 13.609375 C 92.140625 13.929688 92.757812 13.945312 93.269531 13.832031 C 93.78125 13.722656 94.257812 13.488281 94.753906 13.316406 C 95.832031 12.949219 97.21875 12.890625 98.328125 13.152344 C 98.449219 14.277344 98.359375 15.425781 98.066406 16.519531 C 97.824219 17.410156 97.449219 18.28125 97.425781 19.203125 C 97.511719 19.25 97.601562 19.328125 97.652344 19.410156 C 97.703125 19.496094 97.722656 19.601562 97.683594 19.691406 C 97.621094 19.828125 97.453125 19.878906 97.328125 19.960938 C 97.132812 20.085938 97.011719 20.359375 97.019531 20.589844 C 96.925781 20.914062 96.902344 21.253906 96.851562 21.585938 C 96.800781 21.917969 96.71875 22.253906 96.523438 22.53125 C 96.363281 22.753906 96.371094 22.742188 96.148438 22.90625 L 96.167969 22.90625 C 96.617188 23.011719 97.140625 23.214844 97.375 23.609375 C 97.5625 23.917969 97.5625 24.3125 97.449219 24.65625 C 97.335938 25 97.117188 25.371094 96.890625 25.652344 C 97.347656 25.917969 97.6875 26.378906 97.804688 26.890625 C 97.890625 27.265625 97.867188 27.65625 97.976562 28.027344 C 98.121094 28.527344 98.589844 28.84375 99.023438 29.171875 C 98.742188 29.636719 98.625 30.179688 98.542969 30.714844 C 98.460938 31.246094 98.410156 31.792969 98.246094 32.308594 C 98.078125 32.824219 97.761719 33.328125 97.300781 33.617188 C 97.824219 33.96875 98.113281 34.644531 98 35.265625 C 97.890625 35.886719 97.386719 36.421875 96.773438 36.570312 C 96.738281 36.527344 96.558594 36.570312 96.53125 36.617188 C 96.503906 36.664062 96.507812 36.722656 96.511719 36.78125 C 96.558594 37.335938 96.609375 37.890625 96.75 38.429688 C 96.800781 38.625 96.867188 38.816406 96.996094 38.96875 C 97.144531 39.132812 97.355469 39.226562 97.558594 39.3125 C 97.265625 39.644531 97.167969 40.144531 97.296875 40.570312 C 97.40625 40.941406 97.679688 41.25 97.800781 41.617188 C 97.90625 41.945312 97.917969 42.355469 97.878906 42.699219 C 97.808594 42.90625 97.886719 43.136719 98.023438 43.308594 C 98.15625 43.476562 98.339844 43.601562 98.511719 43.738281 C 98.761719 43.941406 98.992188 44.171875 99.191406 44.429688 C 99.3125 44.585938 99.425781 44.757812 99.460938 44.953125 C 99.5 45.207031 99.402344 45.472656 99.265625 45.695312 Z M 99.265625 45.695312 " fill-opacity="1" fill-rule="nonzero"/></g><g clip-path="url(#cbbb8df508)"><path fill="#04195c" d="M 32.414062 11.28125 L 100.085938 11.28125 L 100.085938 78.953125 L 32.414062 78.953125 Z M 32.414062 11.28125 " fill-opacity="1" fill-rule="nonzero"/></g><g fill="#ffffff" fill-opacity="1"><g transform="translate(46.007042, 63.824369)"><g><path d="M 36.34375 -4.703125 C 35.53125 -3.890625 34.421875 -3.085938 33.015625 -2.296875 C 31.617188 -1.503906 30.007812 -0.835938 28.1875 -0.296875 C 26.363281 0.234375 24.425781 0.5 22.375 0.5 C 19.800781 0.5 17.398438 0.0703125 15.171875 -0.78125 C 12.953125 -1.644531 11.003906 -2.867188 9.328125 -4.453125 C 7.660156 -6.035156 6.363281 -7.945312 5.4375 -10.1875 C 4.507812 -12.4375 4.046875 -14.945312 4.046875 -17.71875 C 4.046875 -20.3125 4.535156 -22.703125 5.515625 -24.890625 C 6.492188 -27.085938 7.851562 -28.992188 9.59375 -30.609375 C 11.332031 -32.234375 13.3125 -33.492188 15.53125 -34.390625 C 17.757812 -35.285156 20.125 -35.734375 22.625 -35.734375 C 24.71875 -35.734375 26.679688 -35.4375 28.515625 -34.84375 C 30.359375 -34.25 31.992188 -33.492188 33.421875 -32.578125 C 34.859375 -31.671875 36 -30.710938 36.84375 -29.703125 L 33.34375 -25.5625 C 31.863281 -26.9375 30.21875 -28.070312 28.40625 -28.96875 C 26.601562 -29.863281 24.609375 -30.3125 22.421875 -30.3125 C 20.265625 -30.3125 18.207031 -29.804688 16.25 -28.796875 C 14.289062 -27.785156 12.691406 -26.332031 11.453125 -24.4375 C 10.222656 -22.550781 9.609375 -20.3125 9.609375 -17.71875 C 9.609375 -14.882812 10.238281 -12.519531 11.5 -10.625 C 12.769531 -8.738281 14.425781 -7.3125 16.46875 -6.34375 C 18.507812 -5.382812 20.710938 -4.90625 23.078125 -4.90625 C 25.472656 -4.90625 27.546875 -5.367188 29.296875 -6.296875 C 31.054688 -7.222656 32.507812 -8.191406 33.65625 -9.203125 Z M 36.34375 -4.703125 "/></g></g></g><g fill="#ffffff" fill-opacity="1"><g transform="translate(120.409643, 149.796022)"><g><path d="M 10.140625 0 L 4 0 L 4 -33.546875 L 18.125 -33.546875 C 19.820312 -33.546875 21.378906 -33.265625 22.796875 -32.703125 C 24.222656 -32.148438 25.453125 -31.363281 26.484375 -30.34375 C 27.523438 -29.332031 28.332031 -28.132812 28.90625 -26.75 C 29.476562 -25.375 29.765625 -23.875 29.765625 -22.25 C 29.765625 -20.519531 29.476562 -18.945312 28.90625 -17.53125 C 28.34375 -16.125 27.546875 -14.910156 26.515625 -13.890625 C 25.492188 -12.867188 24.273438 -12.082031 22.859375 -11.53125 C 21.453125 -10.976562 19.910156 -10.703125 18.234375 -10.703125 L 10.140625 -10.703125 Z M 10.140625 -28.0625 L 10.140625 -16.1875 L 17.9375 -16.1875 C 19 -16.1875 19.960938 -16.453125 20.828125 -16.984375 C 21.691406 -17.515625 22.375 -18.234375 22.875 -19.140625 C 23.375 -20.054688 23.625 -21.09375 23.625 -22.25 C 23.625 -23.269531 23.367188 -24.222656 22.859375 -25.109375 C 22.347656 -25.992188 21.660156 -26.707031 20.796875 -27.25 C 19.941406 -27.789062 18.96875 -28.0625 17.875 -28.0625 Z M 10.140625 -28.0625 "/></g></g></g></svg>