<svg xmlns="http://www.w3.org/2000/svg" xmlns:xlink="http://www.w3.org/1999/xlink" width="270" zoomAndPan="magnify" viewBox="0 0 202.5 225" height="300" preserveAspectRatio="xMidYMid meet" version="1.0"><defs><clipPath id="8844a6953e"><path d="M 0 20.476562 L 188 20.476562 L 188 208.261719 L 0 208.261719 Z M 0 20.476562 " clip-rule="nonzero"/></clipPath></defs><g clip-path="url(#8844a6953e)"><path fill="#04195c" d="M 175.90625 80.011719 L 163.460938 87.902344 C 166.609375 96.128906 168.398438 105.03125 168.398438 114.363281 C 168.398438 155.410156 135.085938 188.679688 93.996094 188.679688 C 52.90625 188.679688 19.597656 155.410156 19.597656 114.363281 C 19.597656 73.320312 52.90625 40.050781 93.996094 40.050781 C 114.710938 40.050781 133.414062 48.53125 146.902344 62.171875 L 159.628906 54.09375 L 160.140625 47.785156 C 143.140625 30.933594 119.78125 20.472656 93.996094 20.472656 C 42.164062 20.472656 -0.00390625 62.59375 -0.00390625 114.363281 C -0.00390625 166.136719 42.164062 208.257812 93.996094 208.257812 C 145.828125 208.257812 188 166.136719 188 114.363281 C 188 103.148438 185.976562 92.40625 182.339844 82.425781 L 175.90625 80.011719 " fill-opacity="1" fill-rule="nonzero"/></g><path fill="#04195c" d="M 133.59375 97.636719 C 135.789062 102.789062 137.085938 108.410156 137.085938 114.363281 C 137.085938 138.132812 117.792969 157.40625 93.996094 157.40625 C 70.199219 157.40625 50.910156 138.132812 50.910156 114.363281 C 50.910156 90.597656 70.199219 71.328125 93.996094 71.328125 C 106.402344 71.328125 117.515625 76.625 125.378906 85.003906 L 139.320312 76.113281 C 128.414062 63.234375 112.167969 55.011719 93.996094 55.011719 C 61.230469 55.011719 34.574219 81.636719 34.574219 114.363281 C 34.574219 147.09375 61.230469 173.71875 93.996094 173.71875 C 126.761719 173.71875 153.417969 147.09375 153.417969 114.363281 C 153.417969 105.214844 151.273438 96.578125 147.550781 88.832031 L 133.59375 97.636719 " fill-opacity="1" fill-rule="nonzero"/><path fill="#04195c" d="M 105.984375 115.050781 C 105.625 121.375 100.421875 126.410156 93.996094 126.410156 C 87.335938 126.410156 81.9375 121.015625 81.9375 114.367188 C 81.9375 107.714844 87.335938 102.320312 93.996094 102.320312 C 95.175781 102.320312 96.285156 102.550781 97.351562 102.878906 L 112.695312 93.09375 C 107.695312 88.699219 101.160156 86.003906 93.996094 86.003906 C 78.34375 86.003906 65.605469 98.726562 65.605469 114.367188 C 65.605469 130.003906 78.34375 142.726562 93.996094 142.726562 C 109.648438 142.726562 122.386719 130.003906 122.386719 114.367188 C 122.386719 111.300781 121.859375 108.371094 120.953125 105.609375 L 105.984375 115.050781 " fill-opacity="1" fill-rule="nonzero"/><path fill="#04195c" d="M 182.722656 79.085938 L 201.996094 66.867188 L 185.34375 61.136719 L 191.898438 57 C 193.972656 55.683594 194.589844 52.9375 193.269531 50.859375 C 191.957031 48.789062 189.207031 48.175781 187.125 49.492188 L 180.761719 53.550781 L 182.613281 36.398438 L 163.347656 48.621094 L 161.988281 65.523438 L 158.210938 67.933594 L 159.261719 58.195312 L 148.519531 65.011719 L 147.746094 74.605469 L 92.960938 109.550781 C 92.960938 109.550781 89.820312 111.394531 91.996094 115.101562 C 94.003906 118.507812 97.449219 116.574219 97.449219 116.574219 L 152.941406 81.574219 L 161.988281 84.972656 L 172.734375 78.160156 L 163.429688 74.957031 L 166.519531 73.007812 L 182.722656 79.085938 " fill-opacity="1" fill-rule="nonzero"/></svg>