<svg xmlns="http://www.w3.org/2000/svg" xmlns:xlink="http://www.w3.org/1999/xlink" width="270" zoomAndPan="magnify" viewBox="0 0 202.5 225" height="300" preserveAspectRatio="xMidYMid meet" version="1.0"><defs><clipPath id="cae2af19c3"><path d="M 147 54 L 202 54 L 202 106 L 147 106 Z M 147 54 " clip-rule="nonzero"/></clipPath><clipPath id="bb1156287f"><path d="M 65 115 L 155 115 L 155 217.988281 L 65 217.988281 Z M 65 115 " clip-rule="nonzero"/></clipPath><clipPath id="073b91434f"><path d="M 130 115 L 202 115 L 202 198 L 130 198 Z M 130 115 " clip-rule="nonzero"/></clipPath><clipPath id="7b269a440f"><path d="M 16 0.277344 L 67 0.277344 L 67 50 L 16 50 Z M 16 0.277344 " clip-rule="nonzero"/></clipPath></defs><g clip-path="url(#cae2af19c3)"><path fill="#04195c" d="M 173.183594 54.601562 L 202.070312 105.589844 L 169.800781 105.589844 L 147.707031 54.601562 L 173.183594 54.601562 " fill-opacity="1" fill-rule="nonzero"/></g><path fill="#04195c" d="M 132.324219 54.601562 L 154.410156 105.589844 L 65.859375 105.589844 L 87.953125 54.601562 L 132.324219 54.601562 " fill-opacity="1" fill-rule="nonzero"/><path fill="#04195c" d="M 47.09375 54.601562 L 72.566406 54.601562 L 50.476562 105.589844 L 18.203125 105.589844 L 47.09375 54.601562 " fill-opacity="1" fill-rule="nonzero"/><path fill="#04195c" d="M 18.203125 115.789062 L 50.347656 115.789062 L 89.613281 196.003906 C 90.089844 196.992188 88.75 197.882812 88.015625 197.054688 L 18.203125 115.789062 " fill-opacity="1" fill-rule="nonzero"/><g clip-path="url(#bb1156287f)"><path fill="#04195c" d="M 65.511719 115.789062 L 154.765625 115.789062 L 111.03125 217.195312 C 110.710938 217.957031 109.59375 217.957031 109.273438 217.195312 L 65.511719 115.789062 " fill-opacity="1" fill-rule="nonzero"/></g><g clip-path="url(#073b91434f)"><path fill="#04195c" d="M 130.664062 196.003906 L 169.925781 115.789062 L 202.070312 115.789062 L 132.257812 197.019531 C 131.527344 197.882812 130.183594 196.992188 130.664062 196.003906 " fill-opacity="1" fill-rule="nonzero"/></g><path fill="#04195c" d="M 99.707031 33.988281 L 114.332031 30.757812 L 99.710938 27.523438 L 96.464844 12.921875 L 93.226562 27.523438 L 78.605469 30.757812 L 93.234375 33.992188 L 96.464844 48.589844 L 99.707031 33.988281 " fill-opacity="1" fill-rule="nonzero"/><g clip-path="url(#7b269a440f)"><path fill="#04195c" d="M 47.113281 28.726562 L 66.585938 20.105469 L 45.289062 19.722656 L 36.640625 0.285156 L 36.257812 21.546875 L 16.792969 30.179688 L 38.097656 30.566406 L 46.730469 49.992188 L 47.113281 28.726562 " fill-opacity="1" fill-rule="nonzero"/></g><path fill="#04195c" d="M 16.5625 69.902344 L 28.011719 67.375 L 16.5625 64.84375 L 14.027344 53.40625 L 11.484375 64.84375 L 0.0390625 67.375 L 11.492188 69.910156 L 14.019531 81.339844 L 16.5625 69.902344 " fill-opacity="1" fill-rule="nonzero"/></svg>