<svg xmlns="http://www.w3.org/2000/svg" xmlns:xlink="http://www.w3.org/1999/xlink" width="270" zoomAndPan="magnify" viewBox="0 0 202.5 225" height="300" preserveAspectRatio="xMidYMid meet" version="1.0"><path fill="#04195c" d="M 195.089844 113.890625 C 185.261719 98.6875 175.519531 83.421875 165.660156 68.234375 C 163.503906 64.699219 160.136719 62.21875 157.082031 59.5625 C 154.414062 54.082031 149.699219 49.554688 143.847656 47.683594 C 135.765625 44.765625 126.195312 47.367188 120.460938 53.695312 C 115.542969 58.910156 113.703125 66.476562 114.910156 73.46875 C 113.257812 78.417969 112.371094 83.667969 113.222656 88.875 C 110.066406 85.652344 106.714844 81.585938 101.726562 81.796875 C 96.730469 81.578125 93.371094 85.644531 90.214844 88.882812 C 90.652344 85.144531 90.722656 81.316406 89.75 77.65625 C 89.320312 75.664062 88.144531 73.753906 88.65625 71.660156 C 90.378906 60.941406 82.820312 49.878906 72.382812 47.242188 C 62.859375 44.5 51.871094 49.21875 47.289062 58 C 46.34375 60.398438 43.820312 61.378906 42.113281 63.121094 C 39.042969 65.894531 36.910156 69.480469 34.703125 72.9375 C 25.753906 86.957031 16.816406 100.984375 7.839844 114.976562 C 0.777344 126.574219 0.0117188 141.660156 5.671875 153.96875 C 10.261719 164.222656 19.15625 172.417969 29.714844 176.195312 C 40.074219 179.976562 51.917969 179.441406 61.878906 174.683594 C 72.289062 169.871094 80.425781 160.578125 84.035156 149.695312 C 87.394531 150.652344 91.25 150.171875 93.910156 147.78125 C 96.628906 145.335938 99.09375 142.625 101.71875 140.074219 C 104.359375 142.636719 106.84375 145.375 109.585938 147.828125 C 112.230469 150.199219 116.046875 150.644531 119.382812 149.734375 C 123.730469 163.039062 135.0625 173.757812 148.609375 177.246094 C 161.148438 180.664062 175.167969 177.773438 185.34375 169.675781 C 195.117188 162.109375 201.1875 150.042969 201.46875 137.667969 C 201.976562 129.320312 199.609375 120.898438 195.089844 113.890625 Z M 137.878906 118.214844 C 141.585938 113.835938 146.652344 110.617188 152.203125 109.183594 C 165.683594 105.300781 181.078125 113.308594 185.726562 126.527344 C 190.730469 138.992188 185.160156 154.449219 173.421875 160.914062 C 162.105469 167.71875 146.269531 164.976562 137.910156 154.746094 C 129.007812 144.710938 129 128.269531 137.878906 118.214844 Z M 89.636719 96.207031 C 91.003906 94.144531 93.136719 92.640625 94.789062 90.785156 C 96.472656 89.238281 97.882812 87.128906 100.179688 86.46875 C 102.160156 85.96875 104.414062 86.453125 105.824219 87.984375 C 108.519531 90.632812 111.144531 93.347656 113.835938 95.988281 C 114.707031 106.070312 115.53125 116.148438 116.390625 126.230469 C 113.710938 123.632812 111.210938 120.851562 108.441406 118.34375 C 104.601562 114.957031 98.1875 115.128906 94.546875 118.734375 C 91.988281 121.15625 89.574219 123.730469 87.042969 126.191406 C 87.9375 116.203125 88.640625 106.179688 89.636719 96.207031 Z M 37.070312 109.121094 C 45.628906 106.894531 55.167969 109.019531 61.949219 114.71875 C 71.75 122.542969 75.054688 137.238281 69.492188 148.496094 C 64.378906 159.84375 51.144531 166.679688 38.941406 164.21875 C 26.300781 162.132812 16.140625 150.449219 15.859375 137.621094 C 15.070312 124.667969 24.476562 112.109375 37.070312 109.121094 Z M 90.890625 144.175781 C 89.378906 145.570312 87.210938 145.523438 85.3125 145.148438 C 86.019531 141.285156 86.097656 137.355469 86.441406 133.449219 C 88.296875 131.625 90.144531 129.789062 91.953125 127.914062 C 92.761719 131.6875 95.824219 134.15625 98.398438 136.738281 C 95.871094 139.191406 93.527344 141.839844 90.890625 144.175781 Z M 112.113281 143.832031 C 107.367188 139.136719 102.652344 134.40625 97.976562 129.640625 C 96.003906 127.664062 96.113281 124.160156 98.09375 122.230469 C 100.003906 120.191406 103.5625 120.054688 105.550781 122.050781 C 109.417969 125.804688 113.164062 129.679688 117 133.460938 C 117.347656 137.371094 117.421875 141.300781 118.121094 145.171875 C 116.039062 145.707031 113.648438 145.496094 112.113281 143.832031 Z M 112.113281 143.832031 " fill-opacity="1" fill-rule="nonzero"/></svg>