<svg xmlns="http://www.w3.org/2000/svg" width="73" height="30" viewBox="0 0 73 30" fill="none">
<path d="M47.5974 1.09325C47.0297 1.09325 46.6254 1.34497 46.4215 1.64998V0.106569C46.4215 0.0477722 46.3737 0 46.3149 0H45.6847C45.6259 0 45.5781 0.0477722 45.5781 0.106569V4.77905C45.5781 4.83418 45.6222 4.87644 45.6755 4.87644H46.2598C46.3149 4.87644 46.3572 4.83234 46.3572 4.77905V4.27745C46.5979 4.65411 47.0315 4.87644 47.5974 4.87644C48.6888 4.87644 49.3062 4.02021 49.3062 2.9876C49.3062 1.95498 48.6888 1.09325 47.5974 1.09325ZM47.4265 4.14515C46.7816 4.14515 46.3921 3.6362 46.3921 2.9876C46.3921 2.339 46.7816 1.82453 47.4265 1.82453C48.0715 1.82453 48.461 2.32614 48.461 2.9876C48.461 3.64906 48.0641 4.14515 47.4265 4.14515Z" fill="#FA6300"/>
<path d="M56.5474 1.09326C55.9465 1.09326 55.5699 1.37071 55.4137 1.6555V1.27884C55.4137 1.22372 55.3696 1.17962 55.3145 1.17962H55.0591C55.0462 1.17962 55.0352 1.17594 55.0223 1.17594C55.0095 1.17594 54.9966 1.17778 54.9856 1.17962H54.732C54.6769 1.17962 54.6328 1.22372 54.6328 1.27884V4.76988C54.6328 4.82868 54.6806 4.87645 54.7394 4.87645H55.3696C55.4284 4.87645 55.4762 4.82868 55.4762 4.76988V4.50713C55.4762 4.50713 55.4762 4.49795 55.4762 4.49243V2.69547C55.4762 2.12588 55.8143 1.79882 56.3544 1.80433C56.755 1.80801 57.071 2.14241 57.071 2.53561V4.49427C57.071 4.49427 57.071 4.50346 57.071 4.50897V4.77172C57.071 4.83051 57.1188 4.87829 57.1776 4.87829H57.8078C57.8666 4.87829 57.9144 4.83051 57.9144 4.77172V2.52275C57.9144 1.67939 57.4385 1.0951 56.5455 1.0951L56.5474 1.09326Z" fill="#FA6300"/>
<path d="M60.4973 1.82466C60.9125 1.82466 61.2285 2.0525 61.3535 2.39241C61.3553 2.39976 61.3608 2.40344 61.3645 2.41079C61.3774 2.45488 61.416 2.48796 61.4656 2.48796H62.094C62.1528 2.48796 62.2005 2.44019 62.2005 2.38139C62.2005 2.38139 62.1877 2.17193 62.0296 1.89815C62.0278 1.89264 62.026 1.88897 62.0241 1.88346C62.0205 1.87611 62.015 1.87059 62.0113 1.86508C62.0039 1.85222 61.9966 1.83752 61.9874 1.82466C61.7871 1.51414 61.4913 1.35061 61.4913 1.35061V1.35429C61.2304 1.19627 60.9052 1.09521 60.5065 1.09521C59.4224 1.09521 58.6709 1.93858 58.6709 2.98956C58.6709 4.04055 59.4224 4.8784 60.5065 4.8784C60.9052 4.8784 61.2322 4.77735 61.4913 4.61749C61.4913 4.61749 61.7871 4.45764 61.9874 4.14528C61.9929 4.1361 61.9984 4.12691 62.0039 4.11772C62.0113 4.10854 62.0186 4.09751 62.0241 4.08832C62.0278 4.08098 62.0297 4.07363 62.0333 4.06628C62.1877 3.79434 62.2005 3.58855 62.2005 3.58855C62.2005 3.52976 62.1528 3.48199 62.094 3.48199H61.4637C61.4141 3.48199 61.3755 3.5169 61.3627 3.56283C61.359 3.56834 61.3553 3.57386 61.3535 3.57937C61.2267 3.91745 60.9125 4.14712 60.4973 4.14712C59.8946 4.14712 59.5124 3.66572 59.5124 2.98956C59.5124 2.31341 59.8946 1.8265 60.4973 1.8265V1.82466Z" fill="#FA6300"/>
<path d="M64.6885 1.09326C63.518 1.09326 62.7812 1.97153 62.7812 2.98761C62.7812 4.00369 63.518 4.87645 64.6885 4.87645C65.8589 4.87645 66.603 4.00553 66.603 2.98761C66.603 1.9697 65.8662 1.09326 64.6885 1.09326ZM64.6885 4.14517C64.0784 4.14517 63.6246 3.68582 63.6246 2.98761C63.6246 2.2894 64.0784 1.82454 64.6885 1.82454C65.2985 1.82454 65.7597 2.28389 65.7597 2.98761C65.7597 3.69133 65.3058 4.14517 64.6885 4.14517Z" fill="#FA6300"/>
<path d="M53.5138 1.17959H52.9296C52.8744 1.17959 52.8303 1.22369 52.8303 1.27881V1.69774C52.597 1.32291 52.1634 1.10059 51.5901 1.10059C50.506 1.10059 49.8887 1.95681 49.8887 2.98942C49.8887 4.02204 50.506 4.87826 51.5901 4.87826C52.1652 4.87826 52.597 4.65594 52.8303 4.27927V4.77904C52.8303 4.83416 52.8744 4.87826 52.9296 4.87826H53.5138C53.569 4.87826 53.6131 4.83416 53.6131 4.77904V1.27881C53.6131 1.22369 53.569 1.17959 53.5138 1.17959ZM51.7683 4.14514C51.1308 4.14514 50.7339 3.63619 50.7339 2.98759C50.7339 2.33899 51.1308 1.83003 51.7683 1.83003C52.4059 1.83003 52.8028 2.33899 52.8028 2.98759C52.8028 3.63619 52.4132 4.14514 51.7683 4.14514Z" fill="#FA6300"/>
<path d="M7.0625 8.68739C7.0625 8.01674 7.66149 7.50043 8.32479 7.59965C11.8563 8.13066 14.5682 11.1771 14.5682 14.8555C14.5682 20.6084 9.95455 21.8505 7.96282 22.1187C7.48326 22.183 7.06434 21.799 7.06434 21.3158C7.06434 21.3158 7.06434 12.0167 7.06434 8.68739H7.0625Z" fill="#462A71"/>
<path d="M4.53792 15.311H1.25267C0.796997 15.311 0.427681 14.9417 0.427681 14.486L0.427681 4.92426C0.427681 2.55587 2.34959 0.633957 4.71799 0.633957H6.25037C6.6987 0.635794 7.0625 0.999597 7.0625 1.44792L7.0625 12.7865C7.0625 14.181 5.93067 15.311 4.53792 15.311Z" fill="#FA6300"/>
<path d="M50.155 7.41225C48.2662 7.41225 47.0498 8.11413 45.9106 9.92396C45.082 7.97817 43.5808 7.43797 42.1826 7.43797C41.0948 7.43797 39.6194 7.78892 38.8183 9.2478L38.6382 8.19314C38.5923 7.92856 38.3626 7.73379 38.0944 7.73379H35.8491C35.5441 7.73379 35.2979 7.98 35.2979 8.28501V20.5275C35.2979 20.8326 35.5441 21.0788 35.8491 21.0788H38.4729C38.7779 21.0788 39.0241 20.8326 39.0241 20.5275V13.9479C39.0241 12.4357 39.8013 11.0025 41.2767 11.0025C42.7521 11.0025 43.5294 12.1637 43.5294 13.9203V20.5275C43.5294 20.8326 43.7756 21.0788 44.0806 21.0788H46.6529C46.9579 21.0788 47.2041 20.8326 47.2041 20.5275V13.9203C47.2041 12.4081 47.8766 11.0834 49.3521 11.0834C50.8275 11.0834 51.5 12.1913 51.5 13.8652V20.5257C51.5 20.8307 51.7462 21.0769 52.0512 21.0769H54.7007C55.0057 21.0769 55.2519 20.8307 55.2519 20.5257V13.7825C55.2519 8.81234 52.8192 7.40674 50.1532 7.40674L50.155 7.41225Z" fill="#FA6300"/>
<path d="M26.4374 7.32396C24.8554 7.32396 23.3543 7.81638 22.2077 9.23484V1.86874C22.2077 1.5619 21.9579 1.31201 21.651 1.31201H18.8067C18.4999 1.31201 18.25 1.5619 18.25 1.86874V20.5238C18.25 20.8306 18.4999 21.0805 18.8067 21.0805H21.2872C21.5647 21.0805 21.7998 20.8766 21.8384 20.6028L22.0167 19.3625C23.2716 20.9721 24.8003 21.3543 26.4925 21.3543C30.4503 21.3543 33.1512 18.5431 33.1512 14.341C33.1512 10.1388 30.3952 7.32763 26.4374 7.32763V7.32396ZM26.0203 17.8026C24.1058 17.8026 22.555 16.2518 22.555 14.3373C22.555 12.4227 24.1058 10.872 26.0203 10.872C27.9349 10.872 29.4856 12.4227 29.4856 14.3373C29.4856 16.2518 27.9349 17.8026 26.0203 17.8026Z" fill="#FA6300"/>
<path d="M69.2272 19.3C71.241 18.2655 72.1376 16.4171 72.1928 14.4585C72.1928 12.8067 71.761 11.4433 71.037 10.3666L72.2938 8.91506C72.5014 8.66701 72.4629 8.29586 72.2056 8.09926L70.1827 6.54299C69.9309 6.34822 69.569 6.39967 69.3797 6.6569L68.3048 8.07905C67.252 7.59581 66.0669 7.35327 64.8561 7.35144C60.9975 7.35511 57.3926 9.70514 57.3926 14.4015C57.3926 18.6826 60.3306 21.3689 64.8634 21.3689C67.3531 21.3689 68.2203 22.4033 68.2203 23.7465C68.2203 25.4534 66.5979 26.2931 64.8064 26.2931C63.015 26.2931 61.7049 25.7198 61.3926 23.9559C61.3448 23.6877 61.1059 23.4948 60.8322 23.4948H58.1698C57.8427 23.4948 57.5818 23.7704 57.5984 24.0974C57.795 27.7079 60.2681 29.8466 64.8046 29.8466C68.6098 29.8466 72.303 27.8604 72.303 23.7465C72.303 22.9344 72.303 20.6688 69.2254 19.2982L69.2272 19.3ZM64.8064 17.7823C62.8937 17.7823 61.3448 16.2315 61.3448 14.3207C61.3448 12.4098 62.8956 10.859 64.8064 10.859C66.7173 10.859 68.2681 12.4098 68.2681 14.3207C68.2681 16.2315 66.7173 17.7823 64.8064 17.7823Z" fill="#FA6300"/>
</svg>