<svg xmlns="http://www.w3.org/2000/svg" width="73" height="13" viewBox="0 0 73 13" fill="none">
<path d="M43.6 9.69398C43.6226 9.74092 43.6226 9.79726 43.6 9.8442C43.6 9.85359 43.5719 9.88551 43.4949 9.88551H41.0538C41.0181 9.88927 40.9824 9.87612 40.958 9.84796C40.9298 9.80101 40.9242 9.74468 40.9411 9.69398L42.1673 6.34213C42.1898 6.28016 42.2274 6.24261 42.2668 6.24261C42.3062 6.24261 42.3344 6.26702 42.3513 6.34213L43.6 9.69398ZM46.1801 11.829L43.4498 4.71784C43.3616 4.49063 43.1437 4.34229 42.9015 4.34229H41.619C41.3767 4.34229 41.1589 4.49251 41.0707 4.71784L38.2052 12.2628L38.1676 12.3679C38.1113 12.5219 38.1901 12.6947 38.3441 12.751C38.3779 12.7642 38.4136 12.7698 38.4493 12.7698H39.6116L40.0998 11.3295H44.445L44.9295 12.7191L44.9445 12.7698H46.1013C46.2665 12.7698 46.4017 12.6346 46.4017 12.4693C46.4017 12.4337 46.3961 12.398 46.3829 12.3642L46.1801 11.829Z" fill="#0000FE"/>
<path d="M37.935 10.3864L37.2909 9.85314C37.2271 9.79681 37.1426 9.76676 37.0562 9.77239C36.9623 9.79305 36.8797 9.84938 36.8252 9.92825L36.8158 9.93952C36.5548 10.3752 36.1774 10.7282 35.7267 10.9592C35.2066 11.1939 34.6413 11.3065 34.0705 11.2896C33.2236 11.2896 32.5495 11.0868 32.0688 10.6869C31.5881 10.2869 31.3533 9.67099 31.3533 8.80909V8.32086C31.3627 6.6778 32.2716 5.84406 34.0705 5.84406C35.2929 5.84406 36.1868 6.26281 36.7313 7.09091L36.7426 7.10406C36.8402 7.24489 37.0318 7.28057 37.1726 7.1848C37.1914 7.17166 37.2083 7.15851 37.2233 7.14161L37.858 6.54636C37.9256 6.49941 37.9707 6.42618 37.9838 6.34543C37.9913 6.2553 37.9669 6.16516 37.9143 6.09193C37.1858 4.92395 35.892 4.33057 34.0705 4.33057C31.2538 4.33057 29.8887 5.64502 29.8887 8.33213V8.7828C29.8887 11.4774 31.2576 12.7919 34.0705 12.7919C35.8807 12.7919 37.2008 12.144 37.9951 10.8709L38.0063 10.854C38.0627 10.7864 38.0852 10.6963 38.0702 10.6099C38.0589 10.5179 38.012 10.4353 37.9387 10.3808" fill="#0000FE"/>
<path d="M54.555 4.33103H53.6687C53.5861 4.33103 53.5072 4.36671 53.4547 4.43055C53.3946 4.49815 53.3626 4.58829 53.3645 4.67842V9.37289C53.3626 9.55503 53.2143 9.69962 53.0322 9.69774C52.9345 9.69774 52.8425 9.65268 52.7805 9.57569L48.6851 4.42492C48.6456 4.36107 48.5724 4.32352 48.4973 4.33103H47.4063C47.3256 4.33103 47.2504 4.36858 47.1997 4.43055C47.1415 4.50003 47.1115 4.58829 47.1134 4.67842V12.428C47.1115 12.5182 47.1415 12.6064 47.1997 12.6759C47.2504 12.7379 47.3256 12.7754 47.4063 12.7754H48.3039C48.3865 12.7754 48.4654 12.7416 48.5179 12.6778C48.578 12.6083 48.61 12.5201 48.6081 12.428V6.78342L53.2857 12.6909C53.327 12.7548 53.3983 12.7905 53.4734 12.7848H54.5532C54.6339 12.7848 54.7109 12.7491 54.7635 12.6872C54.8236 12.6177 54.8574 12.5294 54.8574 12.4374V4.67842C54.8592 4.58453 54.8254 4.4944 54.7635 4.42492C54.709 4.36483 54.6339 4.33103 54.5532 4.33103" fill="#0000FE"/>
<path d="M64.9751 4.33064H64.0362C63.9554 4.33064 63.8803 4.36819 63.8315 4.43016C63.7733 4.49964 63.7414 4.58789 63.7432 4.67803V12.4277C63.7432 12.5178 63.7733 12.606 63.8315 12.6755C63.8803 12.7375 63.9573 12.775 64.0362 12.775H64.9751C65.0558 12.775 65.1328 12.7394 65.1835 12.6755C65.2398 12.606 65.2699 12.5178 65.268 12.4277V4.67803C65.2699 4.58602 65.2398 4.49588 65.1797 4.4264C65.1291 4.36444 65.0539 4.32876 64.9751 4.33064Z" fill="#0000FE"/>
<path d="M71.9223 11.2897C71.8678 11.2296 71.7908 11.1939 71.7101 11.1921H68.3038C68.0447 11.1921 67.8343 10.9818 67.8325 10.7226V4.67991C67.8343 4.58789 67.8043 4.49776 67.7442 4.4264C67.6935 4.36444 67.6184 4.32876 67.5395 4.33064H66.6006C66.5218 4.33064 66.4448 4.36819 66.396 4.43016C66.3377 4.49964 66.3058 4.58789 66.3077 4.67991V12.4277C66.3077 12.5178 66.3377 12.606 66.396 12.6755C66.4448 12.7375 66.5218 12.775 66.6006 12.775H71.6932C71.7758 12.775 71.8528 12.7394 71.9073 12.6774C71.9673 12.6079 72.0012 12.5197 72.0012 12.4277V11.5432C72.0087 11.4512 71.9805 11.3611 71.9223 11.2897Z" fill="#0000FE"/>
<path d="M27.7682 7.07048C27.7682 7.54369 27.6442 7.8892 27.3926 8.12392C27.0903 8.37742 26.7016 8.50699 26.3072 8.48258H23.1807V6.325C23.1901 6.06587 23.4042 5.86307 23.6633 5.8687H26.3091C26.6959 5.84241 27.0828 5.9363 27.4151 6.13722C27.6574 6.30998 27.7757 6.61606 27.7757 7.07612M29.3042 7.07612C29.3042 6.09216 29.0601 5.38611 28.5794 4.95985C28.0986 4.53359 27.3776 4.33643 26.418 4.33643H21.9883C21.9076 4.33643 21.8325 4.3721 21.7836 4.43595C21.7254 4.50543 21.6935 4.59368 21.6954 4.68382V12.4278C21.6954 12.5179 21.7254 12.6062 21.7836 12.6757C21.8325 12.7395 21.9076 12.7752 21.9883 12.7752H22.8765C22.9573 12.7752 23.0343 12.7395 23.0868 12.6776C23.1469 12.6081 23.1807 12.5198 23.1807 12.4278V9.98669H25.9167L27.6292 12.5405C27.7325 12.6926 27.9052 12.7808 28.0874 12.7752H28.8272C28.9774 12.7827 29.1145 12.6945 29.1671 12.5536C29.2328 12.4034 29.2084 12.2269 29.1033 12.1011L27.5353 9.78764L27.6874 9.73319C28.7559 9.35763 29.2967 8.45629 29.2967 7.06297" fill="#0000FE"/>
<path d="M62.7837 4.4714L62.8344 4.42446C62.7799 4.36437 62.7048 4.33057 62.6241 4.33057H55.8396C55.7589 4.33057 55.6819 4.36624 55.6293 4.42821C55.5692 4.49769 55.5354 4.58595 55.5354 4.67796V5.53235C55.5317 5.62436 55.5673 5.7145 55.6312 5.78022C55.6856 5.83655 55.7608 5.86847 55.8396 5.86847H58.4685V12.4276C58.4685 12.5196 58.5023 12.6079 58.5624 12.6773C58.6131 12.7393 58.6901 12.775 58.7709 12.775H59.6928C59.7755 12.775 59.8525 12.7412 59.905 12.6773C59.9651 12.6079 59.9971 12.5196 59.9971 12.4276V6.27971C60.0215 6.03935 60.228 5.85909 60.4684 5.86847H62.6203C62.6992 5.86847 62.7743 5.83467 62.8288 5.77834C62.8926 5.71262 62.9264 5.62436 62.9245 5.53235V4.67796C62.9264 4.58407 62.8926 4.49393 62.8306 4.42446L62.7837 4.4714Z" fill="#0000FE"/>
<path d="M20.7157 11.192H16.669V9.36867H17.9272C18.0718 9.3574 18.1807 9.22971 18.1713 9.08512V7.95845C18.1807 7.81386 18.0718 7.68617 17.9272 7.67491H16.669V6.2891C16.6878 6.04686 16.8925 5.86096 17.1366 5.86847H20.6706C20.7495 5.86847 20.8246 5.83655 20.8753 5.77646C20.9354 5.70886 20.9673 5.62248 20.9635 5.53235V4.67796C20.9654 4.58595 20.9354 4.49581 20.8753 4.42633C20.8246 4.36437 20.7495 4.33057 20.6706 4.33057H15.4597C15.3734 4.33057 15.2907 4.36812 15.2363 4.43384C15.18 4.50332 15.1499 4.5897 15.1518 4.67796V7.66927H13.9463C13.8054 7.68617 13.7021 7.81011 13.7115 7.95282V9.07949C13.7021 9.22408 13.8111 9.35177 13.9556 9.36304H15.1537V12.2511C15.1386 12.3957 15.1781 12.5403 15.2626 12.6586C15.3565 12.7487 15.486 12.7919 15.6156 12.775H20.7157C20.7945 12.775 20.8697 12.7431 20.9222 12.6848C20.988 12.606 21.0236 12.5065 21.0199 12.4032V11.5469C21.0218 11.4511 20.988 11.3591 20.9241 11.2878C20.8715 11.2277 20.7964 11.192 20.7157 11.192Z" fill="#0000FE"/>
<path d="M12.4063 4.33058H11.3265C11.2514 4.32307 11.1801 4.35875 11.1388 4.42071L6.93815 9.72546C6.87055 9.81372 6.75601 9.84752 6.65085 9.81184C6.53631 9.77241 6.46119 9.66537 6.46307 9.5452V4.67985C6.46307 4.58784 6.43115 4.4977 6.36918 4.42823C6.3166 4.36626 6.23962 4.33058 6.15887 4.33058H5.0829C5.00779 4.32307 4.93643 4.35875 4.89512 4.42071L0.14995 10.2907C0.0710832 10.3902 0.0278941 10.5123 0.0278941 10.6381L0.00160509 12.4839C-0.00966163 12.5778 0.0391608 12.6698 0.123661 12.713C0.191262 12.7374 0.268251 12.713 0.31144 12.6567L4.48952 7.39889C4.55712 7.31251 4.67354 7.27683 4.7787 7.31251C4.89324 7.35194 4.96835 7.45897 4.96648 7.57915V12.4163C4.9646 12.5008 4.98901 12.5853 5.03595 12.6548C5.08478 12.7299 5.16928 12.7769 5.25941 12.7769H6.34289C6.42927 12.7806 6.51002 12.7393 6.55508 12.6661L10.7407 7.38386C10.8101 7.29749 10.9247 7.26369 11.0299 7.29749C11.1425 7.3388 11.2176 7.44583 11.2176 7.56601V12.4051C11.2139 12.5065 11.2496 12.606 11.3153 12.683C11.3679 12.7431 11.443 12.7769 11.5218 12.775H12.395C12.4645 12.775 12.5302 12.7487 12.5828 12.7036C12.6616 12.6342 12.7048 12.5328 12.7011 12.4276V4.67985C12.7011 4.58596 12.6692 4.49583 12.6053 4.42823C12.5546 4.36626 12.4776 4.33058 12.3969 4.33058" fill="#0000FE"/>
<path d="M6.71274 2.20343C6.91742 2.20343 7.0207 2.12081 7.0207 1.95556C7.0207 1.79032 6.92869 1.7321 6.74091 1.7321H5.5917C5.57292 1.73023 5.55415 1.74337 5.55227 1.76403C5.55227 1.76778 5.55227 1.77342 5.55227 1.77342V2.164C5.55227 2.19028 5.56541 2.20343 5.5917 2.20343H6.71274ZM6.57566 1.28707C6.74091 1.28707 6.84794 1.19694 6.84794 1.05986C6.84794 0.922778 6.76344 0.857056 6.58881 0.857056H5.5917C5.57292 0.855178 5.55415 0.868322 5.55227 0.8871C5.55227 0.890856 5.55227 0.894611 5.55227 0.900245V1.24388C5.54851 1.26266 5.55978 1.28144 5.57856 1.28707C5.58231 1.28707 5.58607 1.28707 5.5917 1.28707H6.57566ZM5.04151 2.7893C4.9833 2.79118 4.9326 2.74611 4.93072 2.68602V0.398875C4.92884 0.340664 4.97391 0.289964 5.034 0.288086H6.70899C7.21035 0.288086 7.49015 0.507787 7.49015 0.909634C7.50329 1.1237 7.39626 1.3265 7.21411 1.43917C7.19158 1.45983 7.19158 1.47297 7.21411 1.48424C7.47888 1.5462 7.66478 1.78093 7.66478 2.05133C7.66478 2.54331 7.34931 2.7893 6.81978 2.7893H5.04151Z" fill="#0000FE"/>
<path d="M9.86019 1.90096C9.89399 1.90096 9.90525 1.88406 9.89211 1.85026L9.48275 0.911364C9.48275 0.877564 9.44144 0.877564 9.42642 0.911364L9.02645 1.85026C9.02082 1.88406 9.03208 1.90096 9.06025 1.90096H9.86019ZM8.13074 2.78915C8.06314 2.79478 8.00306 2.74408 7.99742 2.67648C7.99554 2.6502 8.00118 2.62391 8.01432 2.60137L9.03021 0.333006C9.04523 0.29545 9.08278 0.272916 9.12222 0.274794H9.79259C9.83202 0.271039 9.8677 0.29545 9.88084 0.333006L10.908 2.61076C10.9455 2.6671 10.9286 2.74221 10.8723 2.77976C10.8498 2.79479 10.8216 2.8023 10.7934 2.79854H10.3315C10.2883 2.80042 10.2508 2.77225 10.2395 2.73094L10.1193 2.45678C10.1118 2.43801 10.093 2.42486 10.0724 2.42486H8.8443C8.82365 2.42486 8.80299 2.43613 8.79548 2.45678L8.67718 2.73094C8.66591 2.77225 8.62648 2.80042 8.58329 2.79854L8.13074 2.78915Z" fill="#0000FE"/>
<path d="M13.9889 0.278377C14.0471 0.276499 14.0978 0.321566 14.0997 0.381655V2.67819C14.0997 2.73828 14.0527 2.7871 13.9926 2.78898H13.495C13.4668 2.79086 13.4406 2.77771 13.4255 2.75518L12.128 1.25295C12.1073 1.22478 12.0754 1.23417 12.0754 1.27173V2.68007C12.0773 2.73828 12.0322 2.78898 11.9721 2.79086H11.5571C11.497 2.79086 11.4482 2.74391 11.4463 2.68382V0.398555C11.4445 0.340344 11.4895 0.289644 11.5496 0.287766H12.051C12.0773 0.285888 12.1036 0.297155 12.1205 0.315933L13.4143 1.81816C13.4387 1.84445 13.4668 1.83506 13.4668 1.79751V0.398555C13.465 0.340344 13.51 0.289644 13.5701 0.287766H13.5776L13.9889 0.278377Z" fill="#0000FE"/>
<path d="M17.523 2.11501C17.5719 2.14694 17.5869 2.21078 17.555 2.2596C17.5531 2.26336 17.5493 2.26711 17.5474 2.27087C17.2489 2.66145 16.7963 2.85486 16.1673 2.85486C15.1814 2.85486 14.6895 2.43424 14.6895 1.59487V1.46718C14.6895 0.629684 15.1814 0.210938 16.1673 0.210938C16.7926 0.210938 17.2395 0.383694 17.5061 0.731085C17.5437 0.776151 17.5381 0.841874 17.493 0.87943C17.493 0.87943 17.4892 0.881308 17.4874 0.883185L17.1775 1.14983C17.1231 1.19678 17.0423 1.19114 16.9954 1.13669C16.9954 1.13669 16.9916 1.13293 16.9897 1.13105C16.7794 0.907597 16.479 0.789296 16.1729 0.806196C15.619 0.806196 15.3429 1.0259 15.3429 1.4653V1.60426C15.3429 2.04178 15.619 2.26148 16.1729 2.26148C16.4978 2.28965 16.8151 2.16008 17.0273 1.91221C17.0705 1.854 17.1512 1.84086 17.2113 1.88217L17.2151 1.88592L17.523 2.11501Z" fill="#0000FE"/>
<path d="M20.071 2.10563C20.2362 1.99484 20.3301 1.80142 20.3132 1.60238V1.46342C20.3132 1.0259 20.0184 0.806196 19.425 0.804318C19.2109 0.794929 18.9969 0.843752 18.8072 0.945152C18.6288 1.05594 18.5274 1.25499 18.5424 1.46342V1.60238C18.5237 1.80142 18.6157 1.99484 18.7809 2.10563C18.9743 2.21641 19.194 2.27087 19.4175 2.2596C19.6428 2.27087 19.8663 2.21829 20.0634 2.10563M17.8965 1.59487V1.46718C17.8965 0.644706 18.4054 0.210938 19.425 0.210938C20.4446 0.210938 20.961 0.644706 20.961 1.46718V1.59487C20.961 2.42297 20.4484 2.85486 19.425 2.85486C18.4016 2.85486 17.8965 2.43612 17.8965 1.59487Z" fill="#0000FE"/>
</svg>