<svg xmlns="http://www.w3.org/2000/svg" width="72" height="23" viewBox="0 0 72 23" fill="none">
<g clip-path="url(#clip0_4571_130107)">
<path d="M44.6339 12.578C44.3532 12.4702 44.0854 12.3769 43.803 12.2691C43.0935 12.0149 42.3302 11.694 41.4872 11.3328C40.3499 10.8108 39.7877 10.2357 39.7877 9.56566C39.7877 8.62944 40.3499 8.14679 41.4872 8.14679H45.0892V5.92433H41.0594C37.7792 5.92433 36.1463 7.14296 36.1463 9.56566C36.1463 10.6765 36.7086 11.587 37.8459 12.3238L40.9789 13.8095C42.1162 14.3452 42.6785 14.9074 42.6785 15.5099C42.6785 16.0319 42.545 16.4735 42.2643 16.8218C41.969 17.1701 41.5814 17.3438 41.0594 17.3438H36.386V19.4191H41.3537C42.9198 19.4191 44.058 19.2308 44.7674 18.8432C45.8123 18.2946 46.3335 17.1436 46.3335 15.3901C46.3335 14.2254 45.7584 13.2866 44.6339 12.578Z" fill="#0053A1"/>
<path d="M34.8875 5.92348H31.5277V19.4182H34.8875V5.92348Z" fill="#0053A1"/>
<path d="M22.8381 5.92348L18.9829 19.4182H22.3033L23.1197 16.5129H26.5608L27.3241 19.4182H30.9115L26.8415 5.92348H22.8381ZM23.5484 14.4915L24.6336 8.76209H24.6729V8.84253L24.8201 9.40392L26.0918 14.4915H23.5484Z" fill="#0053A1"/>
<path d="M8.84874 14.2108H8.76915L6.6802 3.23291H0V19.4191H4.02986V6.72705H4.10944L6.6802 19.4191H10.6835L13.4811 6.72705H13.5478V19.4191H17.5777V3.23291H11.1114L8.84874 14.2108Z" fill="#0053A1"/>
<path d="M72.0002 0H49.3486V22.6516H72.0002V0Z" fill="#FFE400"/>
<path d="M55.2866 10.7659L59.8641 7.69793L57.8813 6.38431L60.4341 4.65393L65.8717 8.3235L57.0726 14.2763L58.9245 15.5223L69.8322 8.20883L60.6771 2.05664L51.457 8.22509L55.2866 10.7659Z" fill="#0053A1"/>
<path d="M53.326 16.8085L51.415 18.099L51.4339 20.5962L55.2147 18.0973L53.344 16.8214L53.326 16.8085Z" fill="#0053A1"/>
<path d="M66.0274 11.833L61.4499 14.901L63.4336 16.2146L60.8799 17.945L55.4432 14.2763L64.2423 8.32264L62.3912 7.07663L51.4741 14.4175L60.6044 20.5423L69.8588 14.3738L66.0274 11.833Z" fill="#0053A1"/>
<path d="M66.1789 4.59488L68.0051 5.84688L68.0745 5.8948L69.9298 4.65478L69.9341 2.10628L66.1789 4.59488Z" fill="#0053A1"/>
</g>
<defs>
<clipPath id="clip0_4571_130107">
<rect width="72" height="22.6516" fill="white"/>
</clipPath>
</defs>
</svg>