<svg xmlns="http://www.w3.org/2000/svg" width="73" height="31" viewBox="0 0 73 31" fill="none">
<g clip-path="url(#clip0_5006_18845)">
<path fillRule="evenodd" clipRule="evenodd" d="M4.16563 4.37428C4.85738 4.55537 5.40064 4.86684 5.79179 5.30507C6.18656 5.7433 6.38575 6.25758 6.38575 6.84792C6.38575 7.58314 6.12861 8.15899 5.61432 8.58636C5.10004 9.0101 4.40104 9.22016 3.52096 9.22016L1.12338 9.20929L1.13062 1.92237C1.13062 1.4443 1.06905 1.13646 0.953157 0.991586C0.83364 0.843095 0.587363 0.770661 0.210703 0.770661H0.102051V0.412109H3.15517C3.89762 0.412109 4.40829 0.43384 4.68716 0.477301C4.96966 0.524383 5.21956 0.62217 5.44048 0.770661C5.86785 1.06764 6.07791 1.48414 6.07791 2.03102C6.07791 2.53807 5.91855 2.98716 5.59984 3.37831C5.28113 3.76945 4.80306 4.09903 4.16201 4.37066M2.24974 0.767039V4.28736H3.31453C3.68756 4.28736 4.07871 4.07368 4.49159 3.63907C4.83565 3.28052 5.0095 2.83867 5.0095 2.3099C5.0095 1.78112 4.82841 1.40809 4.4771 1.15094C4.12579 0.8938 3.59702 0.767039 2.88354 0.767039H2.24974ZM2.24974 4.63867V7.72076C2.24974 8.48495 2.74591 8.86523 3.74913 8.86523C4.20909 8.86523 4.58937 8.70225 4.8936 8.37629C5.19783 8.04672 5.34994 7.63384 5.34994 7.13766C5.34994 6.43143 5.07106 5.83746 4.51332 5.35577C3.95919 4.8777 3.27106 4.63505 2.45618 4.63505H2.25336L2.24974 4.63867Z" fill="#666666"/>
<path fillRule="evenodd" clipRule="evenodd" d="M11.2389 8.10104C10.9165 8.53203 10.5652 8.85436 10.1994 9.07167C9.83364 9.28535 9.45336 9.394 9.0441 9.394C8.63485 9.394 8.30165 9.25637 8.03002 8.97388C7.75839 8.69138 7.62438 8.33283 7.62438 7.90909C7.62438 7.43464 7.83807 7.03263 8.26543 6.70306C8.69279 6.36986 9.40265 6.06201 10.3914 5.77227L11.1519 5.54772V4.65678C11.1519 4.26925 11.1302 3.99762 11.0868 3.84551C11.0433 3.68978 10.9491 3.56301 10.8006 3.45436C10.5725 3.28414 10.2972 3.19722 9.96764 3.19722C9.63807 3.19722 9.37006 3.27328 9.20346 3.41815C9.03324 3.56664 8.94994 3.78756 8.94994 4.08817V4.37066L7.75477 4.76181V4.59159C7.75477 4.13525 8.01191 3.70788 8.5262 3.29863C9.03324 2.90386 9.66342 2.70104 10.4204 2.70104C11.0433 2.70104 11.496 2.83143 11.7749 3.09219C12.0501 3.35658 12.1914 3.78394 12.1914 4.37428V7.06523C12.1914 7.74974 12.2493 8.20607 12.3689 8.43424C12.4884 8.66241 12.7238 8.77831 13.0715 8.77831C13.1837 8.77831 13.3033 8.76744 13.4373 8.74933V9.08615C13.0715 9.29621 12.7129 9.39762 12.3544 9.39762C12.0429 9.39762 11.793 9.28897 11.6047 9.07529C11.42 8.85798 11.2968 8.53565 11.2389 8.10466M11.1556 5.92438L10.8405 6.02579C9.98213 6.30104 9.42076 6.55094 9.14913 6.77549C8.88112 6.99642 8.74712 7.31513 8.74712 7.728C8.74712 7.99963 8.83766 8.23505 9.01875 8.43786C9.20346 8.63706 9.42076 8.73847 9.67066 8.73847C10.0872 8.73847 10.4674 8.53927 10.8188 8.1445C11.0433 7.88374 11.1592 7.52519 11.1592 7.06161V5.928L11.1556 5.92438Z" fill="#666666"/>
<path fillRule="evenodd" clipRule="evenodd" d="M16.1499 4.37428V7.72438C16.1499 8.19521 16.2115 8.50668 16.3346 8.65155C16.4614 8.79641 16.7186 8.86885 17.1169 8.86885H17.1894V9.22378H14.0856V8.86885H14.1833C14.5672 8.86885 14.8135 8.79641 14.933 8.65155C15.0562 8.50305 15.1141 8.19521 15.1141 7.72438V5.16744C15.1141 4.64591 15.0779 4.30909 15.0055 4.16422C14.9294 4.01573 14.7302 3.87086 14.4006 3.72961L14.0856 3.58837V3.50145L16.1499 2.71553V4.0266C16.5954 3.58837 17.0155 3.25879 17.4103 3.03786C17.8087 2.81694 18.1854 2.70829 18.533 2.70829C19.0365 2.70829 19.453 2.88575 19.7789 3.23706C20.1157 3.59923 20.2823 4.25114 20.2823 5.20004V7.728C20.2823 8.19883 20.3439 8.5103 20.4634 8.65517C20.5866 8.80004 20.8437 8.87247 21.2348 8.87247H21.3109V9.2274H18.2143V8.87247H18.3012C18.6888 8.87247 18.9423 8.79641 19.0618 8.65155C19.1813 8.50668 19.2429 8.19521 19.2429 7.728V5.17831C19.2429 4.61694 19.1524 4.2113 18.9713 3.9614C18.7938 3.71151 18.5004 3.58837 18.0948 3.58837C17.7978 3.58837 17.49 3.65356 17.164 3.78756C16.8381 3.91432 16.4976 4.1099 16.1427 4.3779" fill="#666666"/>
<path fillRule="evenodd" clipRule="evenodd" d="M27.2976 8.427V8.9775C26.5841 9.26 25.8851 9.39762 25.2006 9.39762C24.2626 9.39762 23.4984 9.10426 22.9081 8.51754C22.3214 7.9272 22.0316 7.15939 22.0316 6.21412C22.0316 5.19279 22.354 4.35255 22.9914 3.69702C23.6324 3.03786 24.4509 2.70829 25.4469 2.70829C26.2328 2.70829 26.9246 2.95094 27.5258 3.43263L26.7399 4.2946C26.2509 3.50145 25.6715 3.1103 25.0014 3.1103C24.4618 3.1103 24.0308 3.3602 23.7121 3.85275C23.3934 4.34893 23.234 5.01533 23.234 5.84833C23.234 6.77549 23.4405 7.49621 23.8534 8.01774C24.2699 8.53565 24.8493 8.79279 25.5918 8.79279C26.2039 8.79279 26.7725 8.67328 27.294 8.427" fill="#666666"/>
<path fillRule="evenodd" clipRule="evenodd" d="M31.3431 9.394C30.4268 9.394 29.6771 9.08253 29.0831 8.45235C28.4928 7.82217 28.1994 7.02177 28.1994 6.04752C28.1994 5.07328 28.4928 4.27287 29.0831 3.64631C29.6735 3.01613 30.4268 2.70466 31.3431 2.70466C32.2594 2.70466 33.0127 3.01976 33.6031 3.64631C34.1934 4.2765 34.4904 5.0769 34.4904 6.04752C34.4904 7.01815 34.1934 7.82579 33.6031 8.45235C33.0127 9.08253 32.263 9.394 31.3431 9.394ZM31.3431 8.99561C31.9117 8.99561 32.3717 8.7276 32.7194 8.18434C33.067 7.6447 33.2409 6.9276 33.2409 6.0439C33.2409 5.1602 33.067 4.45034 32.7194 3.9107C32.3717 3.37106 31.9153 3.09943 31.3431 3.09943C30.7709 3.09943 30.3218 3.37106 29.9741 3.9107C29.6264 4.45034 29.4526 5.16382 29.4526 6.0439C29.4526 6.92398 29.6264 7.64108 29.9741 8.18434C30.3218 8.72398 30.7781 8.99561 31.3431 8.99561Z" fill="#666666"/>
<path fillRule="evenodd" clipRule="evenodd" d="M3.01413 12.2405V21.657C3.01413 22.6457 3.84712 23.1383 5.51312 23.1383C6.75537 23.1383 7.74773 22.6566 8.48656 21.6932C9.22901 20.7262 9.59843 19.4332 9.59843 17.8179C9.59843 16.2027 9.15658 14.9097 8.26201 13.863C7.73686 13.2473 7.15376 12.8272 6.51272 12.5954C5.87891 12.36 4.9771 12.2405 3.81091 12.2405H3.01413ZM1.50749 23.6779L1.49662 13.8014C1.49662 13.1568 1.41694 12.7367 1.25396 12.5411C1.09461 12.3419 0.757788 12.2405 0.247124 12.2405H0.0986328V11.7588H4.43022C5.91151 11.7878 6.95819 11.8856 7.56664 12.0485C8.17871 12.2079 8.83062 12.5338 9.526 13.0336C10.6922 13.9536 11.2753 15.3588 11.2753 17.2493C11.2753 19.1399 10.7465 20.6103 9.68897 21.896C9.12761 22.5733 8.46845 23.0369 7.71513 23.294C6.96181 23.5511 5.86443 23.6779 4.42298 23.6779H1.49662H1.50749Z" fill="#001C55"/>
<path fillRule="evenodd" clipRule="evenodd" d="M17.7473 22.164C17.3091 22.7471 16.8383 23.1853 16.3421 23.4787C15.8495 23.7684 15.3316 23.9169 14.7811 23.9169C14.2306 23.9169 13.7707 23.7286 13.4085 23.3483C13.0427 22.9644 12.8616 22.4827 12.8616 21.9069C12.8616 21.2658 13.1477 20.7226 13.7308 20.2771C14.3103 19.8244 15.2701 19.4079 16.6065 19.0167L17.635 18.7125V17.5065C17.635 16.9813 17.6061 16.6155 17.5445 16.4091C17.4866 16.199 17.3562 16.0252 17.1534 15.8803C16.8491 15.6485 16.4725 15.5326 16.027 15.5326C15.5815 15.5326 15.2194 15.634 14.9912 15.8332C14.763 16.0324 14.6471 16.333 14.6471 16.7387V17.1226L13.0318 17.6513V17.4196C13.0318 16.8039 13.3795 16.2244 14.0749 15.6703C14.763 15.1342 15.6141 14.8626 16.6355 14.8626C17.4829 14.8626 18.0914 15.0401 18.4681 15.3914C18.8447 15.7499 19.033 16.3294 19.033 17.1262V20.766C19.033 21.6932 19.1127 22.3089 19.2721 22.6167C19.4314 22.9246 19.7501 23.0803 20.2246 23.0803C20.3731 23.0803 20.5397 23.0658 20.7208 23.0405V23.4968C20.2318 23.7793 19.7429 23.9169 19.2576 23.9169C18.8375 23.9169 18.497 23.7721 18.2435 23.4787C17.99 23.1853 17.827 22.7471 17.7473 22.164ZM17.635 19.2159L17.2077 19.3536C16.0451 19.7266 15.2809 20.0634 14.9188 20.3676C14.5566 20.6646 14.3755 21.0956 14.3755 21.657C14.3755 22.0264 14.4986 22.3451 14.7449 22.6167C14.9948 22.8884 15.2882 23.0224 15.6214 23.0224C16.1827 23.0224 16.7006 22.7544 17.1751 22.2183C17.4829 21.8634 17.635 21.3781 17.635 20.7515V19.2159Z" fill="#001C55"/>
<path fillRule="evenodd" clipRule="evenodd" d="M38.5397 22.6022V23.3447C37.5727 23.725 36.6274 23.9133 35.7039 23.9133C34.4326 23.9133 33.3968 23.5149 32.6037 22.7218C31.8105 21.925 31.4157 20.8855 31.4157 19.6035C31.4157 18.2236 31.8503 17.0864 32.7159 16.1954C33.5815 15.3045 34.6862 14.859 36.0334 14.859C37.0946 14.859 38.029 15.1849 38.8403 15.8369L37.7827 17.0031C37.1236 15.931 36.3377 15.3986 35.4322 15.3986C34.7006 15.3986 34.1212 15.7354 33.6902 16.4055C33.2592 17.0755 33.0419 17.9773 33.0419 19.1073C33.0419 20.3604 33.3208 21.3346 33.8821 22.0445C34.4507 22.7471 35.233 23.0948 36.2326 23.0948C37.062 23.0948 37.8334 22.9318 38.5361 22.6022" fill="#001C55"/>
<path fillRule="evenodd" clipRule="evenodd" d="M44.0121 23.9133C42.7771 23.9133 41.7558 23.4896 40.9554 22.6385C40.1586 21.7874 39.7602 20.7045 39.7602 19.3825C39.7602 18.0606 40.1586 16.9813 40.9554 16.1338C41.7558 15.2827 42.7771 14.859 44.0121 14.859C45.2471 14.859 46.2721 15.2864 47.0689 16.1338C47.8693 16.9849 48.2676 18.0678 48.2713 19.3825C48.2713 20.7008 47.8693 21.7874 47.0689 22.6385C46.2721 23.4896 45.2544 23.9133 44.0121 23.9133ZM44.0121 23.3737C44.7835 23.3737 45.4029 23.0115 45.8737 22.2763C46.3445 21.5447 46.5799 20.5777 46.5799 19.3825C46.5799 18.1874 46.3445 17.2276 45.8737 16.496C45.4029 15.7644 44.7799 15.3986 44.0121 15.3986C43.2443 15.3986 42.6286 15.7644 42.1578 16.496C41.687 17.2276 41.4515 18.191 41.4515 19.3825C41.4515 20.5741 41.687 21.5447 42.1578 22.2763C42.6286 23.0079 43.2443 23.3737 44.0121 23.3737Z" fill="#001C55"/>
<path fillRule="evenodd" clipRule="evenodd" d="M53.5735 23.9133L50.3755 17.1081C50.0532 16.4562 49.8105 16.0397 49.6475 15.855C49.4809 15.663 49.2745 15.5688 49.0246 15.5688H48.9123V15.0944H52.4037V15.5688H52.266C51.7771 15.5688 51.5308 15.6956 51.5308 15.9455C51.5308 16.1121 51.6685 16.496 51.9437 17.09L54.1964 21.9359L56.163 17.0936C56.3767 16.5829 56.489 16.2316 56.489 16.0433C56.489 15.7246 56.2173 15.5652 55.6777 15.5652H55.5473V15.0908H58.3469V15.5652H58.2346C57.9992 15.5652 57.7928 15.6739 57.6117 15.8876C57.4342 16.1012 57.2242 16.5069 56.9707 17.0936L54.0733 23.9061H53.5699V23.9133H53.5735Z" fill="#001C55"/>
<path fillRule="evenodd" clipRule="evenodd" d="M64.1707 22.164C63.7288 22.7471 63.2616 23.1853 62.7654 23.4787C62.2729 23.7684 61.755 23.9169 61.2045 23.9169C60.654 23.9169 60.1976 23.7286 59.8318 23.3483C59.466 22.9644 59.2813 22.4827 59.2813 21.9069C59.2813 21.2658 59.5711 20.7226 60.1542 20.2771C60.7373 19.8244 61.6934 19.4079 63.0298 19.0167L64.0584 18.7125V17.5065C64.0584 16.9813 64.0294 16.6155 63.9678 16.4091C63.9099 16.199 63.7795 16.0252 63.5767 15.8803C63.2689 15.6485 62.8958 15.5326 62.4467 15.5326C61.9976 15.5326 61.6427 15.634 61.4109 15.8332C61.1791 16.0324 61.0632 16.333 61.0632 16.7387V17.1226L59.4516 17.6513V17.4196C59.4516 16.8039 59.7992 16.2244 60.4946 15.6703C61.1791 15.1342 62.0302 14.8626 63.0552 14.8626C63.9027 14.8626 64.5111 15.0401 64.8878 15.3914C65.2644 15.7499 65.4491 16.3294 65.4491 17.1262V20.766C65.4491 21.6932 65.5288 22.3089 65.6882 22.6167C65.8511 22.9246 66.1699 23.0803 66.6407 23.0803C66.7892 23.0803 66.9558 23.0658 67.1369 23.0405V23.4968C66.6479 23.7793 66.1554 23.9169 65.6737 23.9169C65.2499 23.9169 64.9131 23.7721 64.6596 23.4787C64.4097 23.1853 64.2467 22.7471 64.1634 22.164M64.0511 19.2159L63.6238 19.3536C62.4612 19.7266 61.697 20.0634 61.3349 20.3676C60.9763 20.6646 60.7916 21.0956 60.7916 21.657C60.7916 22.0264 60.9147 22.3451 61.161 22.6167C61.4109 22.8884 61.7043 23.0224 62.0375 23.0224C62.5988 23.0224 63.1167 22.7544 63.5912 22.2183C63.8954 21.8634 64.0511 21.3781 64.0511 20.7515V19.2159Z" fill="#001C55"/>
<path fillRule="evenodd" clipRule="evenodd" d="M70.6934 11.7588V21.6497C70.6934 22.2872 70.7767 22.7073 70.9397 22.9065C71.1099 23.102 71.4648 23.1998 72.0008 23.1998H72.0986V23.6779H67.901V23.1998H68.035C68.5566 23.1998 68.897 23.102 69.0564 22.9065C69.2157 22.7073 69.299 22.2872 69.299 21.6497V15.1451C69.299 14.4063 69.2483 13.9391 69.1469 13.7399C69.0528 13.5407 68.7811 13.3415 68.3284 13.1423L67.901 12.9576V12.8344L70.6934 11.7588Z" fill="#001C55"/>
<path fillRule="evenodd" clipRule="evenodd" d="M25.7731 23.4063L22.8286 17.1262C22.5099 16.4779 22.2636 16.0614 22.0934 15.8658C21.9232 15.6703 21.7167 15.5725 21.4777 15.5725H21.3654V15.098H24.8568V15.5725H24.7228C24.2338 15.5725 23.9876 15.7029 23.9876 15.96C23.9876 16.123 24.1288 16.5105 24.4077 17.1262L26.5409 21.7656L28.6886 17.1262C28.9385 16.5938 29.0652 16.2461 29.0652 16.0831C29.0652 15.7427 28.8153 15.5761 28.3155 15.5761H28.2395V15.1016H30.8073V15.5761H30.7023C30.4524 15.5761 30.2423 15.6739 30.0721 15.8767C29.9055 16.0723 29.6701 16.4924 29.3658 17.1443L25.9505 24.3805C25.6101 25.1085 25.3385 25.6047 25.1393 25.8763C24.9401 26.1479 24.6359 26.4304 24.2302 26.731C23.6616 27.0787 23.0387 27.2526 22.3614 27.2526C21.9811 27.2526 21.5719 27.191 21.1373 27.0751L21.8725 25.7459C22.2491 25.8365 22.5823 25.8835 22.8721 25.8835C23.4624 25.8835 23.9767 25.7242 24.4186 25.4055C24.8568 25.0868 25.2262 24.6123 25.5159 23.9785L25.7803 23.4099H25.7731V23.4063Z" fill="#001C55"/>
<path d="M9.07349 26.3184H5.28516V30.19H9.07349V26.3184Z" fill="#001C55"/>
<path d="M5.28471 26.3184H1.5V30.19H5.28471V26.3184Z" fill="#666666"/>
</g>
<defs>
<clipPath id="clip0_5006_18845">
<rect width="72" height="29.7779" fill="white" transform="translate(0.0986328 0.412109)"/>
</clipPath>
</defs>
</svg>