<svg xmlns="http://www.w3.org/2000/svg" width="73" height="34" viewBox="0 0 73 34" fill="none">
<g clip-path="url(#clip0_5006_18945)">
<path d="M35.8282 19.8645H29.1325V33.9362H32.548V29.9081H35.8103C39.4111 29.9081 41.1705 27.3651 41.1705 24.7901C41.1705 22.2151 39.4324 19.8645 35.8317 19.8645M35.4399 26.7846H32.5515V22.8064H35.4399C36.804 22.8277 37.7371 23.5935 37.7371 24.7901C37.7371 25.9868 36.8076 26.7846 35.4399 26.7846Z" fill="#414141"/>
<path d="M68.1242 28.4229L61.7276 19.7897H58.2943V33.9362H61.7276V25.2816L68.1242 33.9362H71.5575V19.7897H68.1242V28.4229Z" fill="#414141"/>
<path d="M35.0838 14.9959C35.0838 14.248 34.717 13.6461 34.0403 13.3077C34.1934 13.1938 34.6956 12.6952 34.6956 11.9793C34.6956 10.8645 34.0616 10.0667 32.0458 10.0667H29.1289V17.0224H32.4518C34.3537 17.0224 35.0802 16.132 35.0802 14.9959M30.8064 11.4985H32.1455C32.7902 11.4985 33.0965 11.7229 33.0965 12.193C33.0965 12.7343 32.8721 12.948 32.1455 12.948H30.8064V11.4949V11.4985ZM30.8064 15.58V14.2302H32.2595C32.9255 14.2302 33.271 14.394 33.271 14.9033C33.271 15.3521 32.9326 15.58 32.2595 15.58H30.8064Z" fill="#414141"/>
<path d="M48.7957 12.7664L52.3145 17.0224H53.9991V10.0667H52.3145V14.3121L48.7957 10.0667H47.1075V17.0224H48.7957V12.7664Z" fill="#414141"/>
<path d="M62.8923 15.7225L61.4641 14.7395C61.1222 15.1562 60.6058 15.4197 60.0252 15.4197C58.9924 15.4197 58.1554 14.5828 58.1554 13.5499C58.1554 12.5171 58.9924 11.6801 60.0252 11.6801C60.6022 11.6801 61.1222 11.9437 61.4605 12.3568L62.8887 11.3738C62.2334 10.5084 61.1934 9.95278 60.0217 9.95278C58.0343 9.95278 56.4245 11.5626 56.4245 13.5499C56.4245 15.5373 58.0343 17.1506 60.0217 17.1506C61.1934 17.1506 62.2334 16.5915 62.8923 15.7225Z" fill="#414141"/>
<path d="M68.4981 17.1435C70.4855 17.1435 72.0953 15.5337 72.0953 13.5464C72.0953 11.559 70.4855 9.94922 68.4981 9.94922C66.5108 9.94922 64.901 11.559 64.901 13.5464C64.901 15.5337 66.5108 17.1435 68.4981 17.1435ZM68.4981 11.6766C69.531 11.6766 70.3679 12.5135 70.3679 13.5464C70.3679 14.5792 69.531 15.4162 68.4981 15.4162C67.4653 15.4162 66.6283 14.5792 66.6283 13.5464C66.6283 12.5135 67.4653 11.6766 68.4981 11.6766Z" fill="#414141"/>
<path d="M39.3113 15.726C39.8313 15.8293 40.362 15.8827 40.8998 15.8827C41.377 15.8827 41.8543 15.84 42.3208 15.7581C42.3743 15.7474 42.4277 15.7367 42.4811 15.726L43.026 17.0224H44.8175L41.8293 10.0667H39.956L36.9465 17.0224H38.7593L39.3113 15.726ZM40.9069 11.9686L41.8756 14.2765C41.5551 14.3228 41.2274 14.3513 40.8998 14.3513C40.5721 14.3513 40.248 14.3263 39.9275 14.28L40.9105 11.9686H40.9069Z" fill="#414141"/>
<path d="M46.153 19.8645L40.1305 33.9362H43.7312L44.846 31.3149C45.8966 31.525 46.9722 31.6354 48.0585 31.6354C49.0236 31.6354 49.9924 31.5499 50.9362 31.3825C51.0466 31.3647 51.1534 31.3398 51.2639 31.3149L52.3644 33.9397H55.9864L49.9425 19.8681H46.1566L46.153 19.8645ZM48.0585 28.5939C47.3889 28.5939 46.7229 28.544 46.0676 28.4443L48.0798 23.7146L50.0601 28.4443C49.4012 28.544 48.728 28.5939 48.0585 28.5939Z" fill="#414141"/>
<path d="M10.2383 8.25781C4.64671 8.25781 0.0986328 12.8059 0.0986328 18.3975V33.9365H6.07845V27.6611L6.54857 27.8463C7.72388 28.3057 8.96329 28.5372 10.2348 28.5372C15.8264 28.5372 20.3745 23.9891 20.3745 18.3975C20.3745 12.8059 15.8264 8.25781 10.2348 8.25781M10.2348 22.5574C7.94113 22.5574 6.07489 20.6947 6.07489 18.3975C6.07489 16.1003 7.94113 14.2376 10.2348 14.2376C12.5284 14.2376 14.3946 16.1039 14.3946 18.3975C14.3946 20.6911 12.5284 22.5574 10.2348 22.5574Z" fill="#414141"/>
<path d="M6.07845 0.0664062H0.0986328V6.04622H6.07845V0.0664062Z" fill="#00C5FF"/>
</g>
<defs>
<clipPath id="clip0_5006_18945">
<rect width="72" height="33.8702" fill="white" transform="translate(0.0986328 0.0664062)"/>
</clipPath>
</defs>
</svg>