<svg xmlns="http://www.w3.org/2000/svg" width="72" height="54" viewBox="0 0 72 54" fill="none">
<g clip-path="url(#clip0_4571_130271)">
<path d="M45.2758 40.376C44.7017 40.376 44.2176 40.8375 44.2176 41.4229C44.2176 42.0083 44.6792 42.481 45.2758 42.481C45.8724 42.481 46.3452 42.0195 46.3452 41.4229C46.3452 40.8263 45.8837 40.376 45.2758 40.376Z" fill="#000051"/>
<path d="M5.06567 43.6293C3.71482 43.6293 2.51032 44.1696 1.66604 45.1152V40.3084C1.66604 40.1171 1.5197 39.9707 1.32833 39.9707H0.337711C0.146341 39.9707 0 40.1283 0 40.3084V52.8938C0 53.0852 0.146341 53.2315 0.337711 53.2315H1.32833C1.5197 53.2315 1.66604 53.0739 1.66604 52.8938V51.9595C2.51032 52.9051 3.71482 53.4454 5.06567 53.4454C7.77861 53.4454 9.82739 51.3403 9.82739 48.5373C9.82739 45.7343 7.77861 43.6293 5.06567 43.6293ZM4.89681 45.2728C6.74296 45.2728 8.12758 46.6687 8.12758 48.5373C8.12758 50.406 6.74296 51.8019 4.89681 51.8019C3.05066 51.8019 1.66604 50.406 1.66604 48.5373C1.66604 46.6799 3.05066 45.2728 4.89681 45.2728Z" fill="#000051"/>
<path d="M21.4784 43.8431H20.4878C20.2964 43.8431 20.1501 44.0007 20.1501 44.1809V45.1152C19.3058 44.1696 18.1013 43.6293 16.7505 43.6293C14.0488 43.6293 12 45.7343 12 48.5373C12 51.3403 14.0375 53.4454 16.7505 53.4454C18.1013 53.4454 19.3058 52.9051 20.1501 51.9595V52.8938C20.1501 53.0852 20.2964 53.2315 20.4878 53.2315H21.4784C21.6698 53.2315 21.8161 53.0739 21.8161 52.8938V44.1809C21.8161 43.9895 21.6698 43.8431 21.4784 43.8431ZM16.9193 51.8019C15.0844 51.8019 13.7111 50.406 13.7111 48.5373C13.7111 46.6687 15.0957 45.2728 16.9193 45.2728C18.743 45.2728 20.1501 46.6687 20.1501 48.5373C20.1501 50.406 18.7542 51.8019 16.9193 51.8019Z" fill="#000051"/>
<path d="M29.7861 43.6293C28.5478 43.6293 27.5009 44.0345 26.758 44.7887V44.1809C26.758 43.9895 26.6116 43.8431 26.4203 43.8431H25.4296C25.2383 43.8431 25.0919 44.0007 25.0919 44.1809V52.8938C25.0919 53.0852 25.2383 53.2315 25.4296 53.2315H26.4203C26.6116 53.2315 26.758 53.0739 26.758 52.8938V47.9407C26.758 46.3197 27.8274 45.2728 29.4934 45.2728C31.0694 45.2728 32.0938 46.3084 32.0938 47.9069V52.8938C32.0938 53.0852 32.2402 53.2315 32.4315 53.2315H33.4221C33.6135 53.2315 33.7598 53.0739 33.7598 52.8938V47.6143C33.7711 45.239 32.1726 43.6293 29.7861 43.6293Z" fill="#000051"/>
<path d="M41.7974 43.8769H41.5385C40.3677 43.8769 39.3433 44.3047 38.6116 45.1039V44.1921C38.6116 44.0007 38.4653 43.8544 38.2739 43.8544H37.2833C37.0919 43.8544 36.9456 44.012 36.9456 44.1921V52.9051C36.9456 53.0964 37.0919 53.2428 37.2833 53.2428H38.2739C38.4653 53.2428 38.6116 53.0852 38.6116 52.9051V48.5824C38.6116 46.7362 39.7261 45.588 41.5385 45.588H41.7861C41.9775 45.588 42.1238 45.4304 42.1238 45.2503V44.2259C42.1351 44.0233 41.9775 43.8769 41.7974 43.8769Z" fill="#000051"/>
<path d="M45.7711 43.8432H44.7805C44.5891 43.8432 44.4428 44.0007 44.4428 44.1809V52.8938C44.4428 53.0852 44.5891 53.2315 44.7805 53.2315H45.7711C45.9625 53.2315 46.1088 53.0739 46.1088 52.8938V44.1809C46.1201 43.9895 45.9625 43.8432 45.7711 43.8432Z" fill="#000051"/>
<path d="M52.9306 47.7043C51.6135 47.3891 50.7355 47.1302 50.7355 46.3422C50.7355 45.6105 51.6585 45.2165 52.5704 45.2165C53.4822 45.2165 54.2702 45.5542 54.7992 46.1508C54.8668 46.2296 54.9681 46.2634 55.0582 46.2522C55.1595 46.2522 55.2495 46.1959 55.3058 46.1171L55.8687 45.3854C55.97 45.2503 55.9587 45.0589 55.8349 44.9351C54.9906 44.0908 53.8199 43.618 52.5253 43.618C50.454 43.618 49.0131 44.7662 49.0131 46.4098C49.0131 48.4135 50.8705 48.8863 52.3677 49.269C53.6623 49.5842 54.5066 49.8431 54.5066 50.6199C54.5066 51.3516 53.6623 51.8469 52.469 51.8469C51.4109 51.8469 50.4991 51.4642 49.8799 50.7662C49.8124 50.6874 49.7111 50.6537 49.621 50.6537C49.5197 50.6537 49.4184 50.7099 49.3734 50.7775L48.8105 51.4979C48.7092 51.633 48.7204 51.8244 48.833 51.9482C49.7336 52.8938 51.0732 53.4454 52.4916 53.4454C54.7205 53.4454 56.2176 52.2634 56.2176 50.5186C56.2402 48.5261 54.3152 48.0533 52.9306 47.7043Z" fill="#000051"/>
<path d="M66.788 43.8432H65.7974C65.606 43.8432 65.4597 44.0007 65.4597 44.1809V49.3253C65.4597 50.8338 64.4803 51.8019 62.9606 51.8019C61.4409 51.8019 60.4503 50.8338 60.4503 49.3253V44.1809C60.4503 43.9895 60.3039 43.8432 60.1126 43.8432H59.122C58.9306 43.8432 58.7842 44.0007 58.7842 44.1809V49.4604C58.7842 51.8356 60.4728 53.4341 62.9606 53.4341C65.4484 53.4341 67.1257 51.8356 67.1257 49.4604V44.1809C67.1257 43.9895 66.9794 43.8432 66.788 43.8432Z" fill="#000051"/>
<path d="M71.6623 39.9595H70.6717C70.4803 39.9595 70.334 40.1171 70.334 40.2972V52.8825C70.334 53.0739 70.4803 53.2203 70.6717 53.2203H71.6623C71.8537 53.2203 72 53.0627 72 52.8825V40.3084C71.9887 40.1171 71.8424 39.9595 71.6623 39.9595Z" fill="#000051"/>
<path d="M46.6383 9.01394L42.2819 1.4267C41.8653 0.672476 41.0548 0.210938 40.2106 0.210938H31.5089C30.6421 0.210938 29.8541 0.672476 29.4263 1.4267L25.0698 9.01394C24.6421 9.76816 24.6421 10.6912 25.0698 11.4455L29.4263 19.0327C29.8541 19.7869 30.6646 20.2485 31.5089 20.2485H34.6608L35.8541 18.1659H31.4976C31.3738 18.1659 31.25 18.1096 31.1937 17.9858L26.8372 10.3986C26.7809 10.2972 26.7809 10.1509 26.8372 10.0496L31.2049 2.46234C31.2612 2.36103 31.385 2.28223 31.5089 2.28223H40.2106C40.3344 2.28223 40.4582 2.33852 40.5145 2.46234L44.871 10.0496C44.9273 10.1509 44.9273 10.2972 44.871 10.3986L42.3269 14.8001H44.7134L46.6608 11.4455C47.0886 10.6912 47.0886 9.76816 46.6383 9.01394Z" fill="#0788FE"/>
<path d="M38.9714 23.6033L37.0239 20.2487H34.6374L37.1703 24.6614C37.2266 24.7627 37.2266 24.9091 37.1703 25.0104L32.8138 32.5976C32.7575 32.699 32.6337 32.7778 32.5099 32.7778H23.8082C23.6843 32.7778 23.5605 32.7215 23.5042 32.5976L19.1478 25.0104C19.0915 24.9091 19.0915 24.7627 19.1478 24.6614L23.5042 17.0742C23.5605 16.9729 23.6843 16.8941 23.8082 16.8941H28.1646L26.9714 14.8115H23.8307C22.9639 14.8115 22.1759 15.2731 21.7481 16.0273L17.3804 23.6145C16.9526 24.3687 16.9526 25.2918 17.3804 26.046L21.7369 33.6333C22.1646 34.3875 22.9751 34.8491 23.8194 34.8491H32.5211C33.3879 34.8491 34.1759 34.3875 34.6037 33.6333L38.9601 26.046C39.4217 25.2806 39.4217 24.3575 38.9714 23.6033Z" fill="#A06FFE"/>
<path d="M54.3149 23.6032L49.9585 16.0385C49.5307 15.2843 48.7202 14.8228 47.8759 14.8228H39.1742C38.3074 14.8228 37.5194 15.2843 37.0917 16.0385L34.6602 20.2486H37.0466L38.8703 17.0742C38.9266 16.9728 39.0504 16.894 39.1742 16.894H47.8759C47.9997 16.894 48.1236 16.9503 48.1799 17.0742L52.5363 24.6614C52.5926 24.7627 52.5926 24.9091 52.5363 25.0104L48.1799 32.5864C48.1236 32.6877 47.9997 32.7665 47.8759 32.7665H39.1742C39.0504 32.7665 38.9266 32.7102 38.8703 32.5864L37.0466 29.4344L35.8534 31.5169L37.0917 33.6445C37.5194 34.3987 38.33 34.8603 39.1742 34.8603H47.8759C48.7427 34.8603 49.5307 34.3987 49.9585 33.6445L54.3149 26.0573C54.754 25.2805 54.754 24.3575 54.3149 23.6032Z" fill="#00D9CB"/>
</g>
<defs>
<clipPath id="clip0_4571_130271">
<rect width="72" height="53.2345" fill="white" transform="translate(0 0.210938)"/>
</clipPath>
</defs>
</svg>