<svg width="96" height="38" alt="Banco Bari" fill="none" xmlns="http://www.w3.org/2000/svg"><g clip-path="url(#a)"><path d="M47.505 2.028c.352 0 .69.142.94.394.25.253.39.595.39.952v3.81c0 .358-.14.702-.391.955-.25.254-.59.396-.945.396h-5.175V0h.918v2.028h4.263Zm.411 5.142V3.394a.426.426 0 0 0-.125-.308.409.409 0 0 0-.302-.128H43.68a.425.425 0 0 0-.307.128.414.414 0 0 0-.131.308V7.17a.417.417 0 0 0 .13.307.43.43 0 0 0 .308.129h3.81a.405.405 0 0 0 .3-.129.423.423 0 0 0 .127-.307ZM56.673 2.028a1.322 1.322 0 0 1 .952.395 1.354 1.354 0 0 1 .392.962v5.15h-5.175a1.268 1.268 0 0 1-.943-.398 1.314 1.314 0 0 1-.39-.959V4.817h5.593V3.392a.442.442 0 0 0-.127-.306.43.43 0 0 0-.302-.128h-5.167v-.93h5.167Zm.426 5.578v-1.86h-4.675v1.425c0 .115.046.225.126.307.08.08.19.127.303.128h4.246ZM66.031 2.028a1.268 1.268 0 0 1 .943.398 1.316 1.316 0 0 1 .39.96v5.149h-.918v-5.14a.426.426 0 0 0-.126-.309.411.411 0 0 0-.301-.128h-3.81a.426.426 0 0 0-.306.128.415.415 0 0 0-.132.308v5.141h-.918V2.028h5.178ZM71.477 7.606h5.24v.93H71.54a1.333 1.333 0 0 1-.945-.4 1.366 1.366 0 0 1-.39-.958V3.385c0-.359.14-.703.39-.958.25-.254.59-.398.945-.399h5.175v.93h-5.24a.421.421 0 0 0-.307.128.417.417 0 0 0-.129.308v3.775a.421.421 0 0 0 .129.308.424.424 0 0 0 .308.129ZM81.057 2.028h3.835a1.321 1.321 0 0 1 .951.395 1.354 1.354 0 0 1 .393.962v3.793a1.368 1.368 0 0 1-.394.963 1.334 1.334 0 0 1-.953.394h-3.832a1.27 1.27 0 0 1-.942-.398 1.315 1.315 0 0 1-.39-.96V3.386a1.33 1.33 0 0 1 .39-.959 1.282 1.282 0 0 1 .942-.398Zm3.832.93h-3.818a.407.407 0 0 0-.302.128.422.422 0 0 0-.127.308v3.775a.44.44 0 0 0 .126.308.43.43 0 0 0 .303.128h3.818a.413.413 0 0 0 .302-.128.423.423 0 0 0 .126-.308V3.394a.428.428 0 0 0-.126-.308.417.417 0 0 0-.304-.128h.002ZM19.116 12a4.7 4.7 0 0 1 1.888.365c.598.25 1.14.623 1.59 1.093.965.973 1.448 2.143 1.448 3.511v14.036a4.867 4.867 0 0 1-.362 1.916 4.819 4.819 0 0 1-1.082 1.614c-.964.977-2.124 1.465-3.482 1.465H0V0h3.34v12h15.776Zm1.587 19.02V17.15a1.623 1.623 0 0 0-.469-1.13 1.584 1.584 0 0 0-1.118-.47H4.966a1.586 1.586 0 0 0-1.14.47 1.511 1.511 0 0 0-.487 1.13v13.87a1.525 1.525 0 0 0 .488 1.128 1.599 1.599 0 0 0 1.138.472h14.151c.42-.002.821-.171 1.118-.471.297-.3.465-.706.469-1.13ZM48.13 12c1.383 0 2.556.49 3.518 1.469.466.459.834 1.01 1.082 1.618.249.608.372 1.262.362 1.92V36H33.976c-1.356 0-2.515-.49-3.478-1.469a4.834 4.834 0 0 1-1.085-1.617 4.883 4.883 0 0 1-.363-1.921V22.31h20.703v-5.311a1.633 1.633 0 0 0-.465-1.139 1.593 1.593 0 0 0-1.121-.48H29.05V12h19.08Zm1.623 20.62v-6.93H32.39v5.311a1.574 1.574 0 0 0 .469 1.141 1.52 1.52 0 0 0 1.117.478h15.777ZM63.026 12H76.3v3.38H63.026a1.59 1.59 0 0 0-1.118.474 1.63 1.63 0 0 0-.468 1.132V36H58.1V17.007a4.884 4.884 0 0 1 .363-1.92 4.836 4.836 0 0 1 1.084-1.618c.963-.98 2.123-1.469 3.48-1.469ZM84.647 12h-3.34v24h3.34V12Z" fill="#000"></path><path d="M94.998 29.577h-4.34c-.554 0-1.002.454-1.002 1.014v4.395c0 .56.448 1.014 1.001 1.014h4.341c.553 0 1.002-.454 1.002-1.014v-4.394c0-.56-.448-1.015-1.002-1.015Z" fill="#0090FF"></path></g><defs><clipPath id="a"><path fill="#000" d="M0 0h96v36H0z"></path></clipPath></defs></svg>