<svg xmlns="http://www.w3.org/2000/svg" width="72" height="59" viewBox="0 0 72 59" fill="none">
<g clip-path="url(#clip0_4571_130019)">
<path d="M24.1935 38.6443C23.3865 38.6277 22.6791 38.7266 21.9876 38.8911C21.8563 39.3524 21.8721 40.0273 21.9876 40.5044C22.8437 40.3066 23.3208 40.2908 23.8644 40.2908C24.9182 40.2908 25.4286 40.7188 25.4286 41.5915V41.6738C25.116 41.6406 24.7371 41.6082 24.4736 41.6082C22.729 41.6082 21.2304 42.234 21.2304 43.9129C21.2304 45.8063 22.5802 46.448 24.5393 46.448C25.461 46.448 26.4651 46.2834 27.3868 46.0033V41.7395C27.3868 39.6982 26.2839 38.6941 24.1935 38.6443ZM25.4278 44.7682C25.3123 44.8015 24.8019 44.8505 24.5551 44.8505C23.6167 44.8505 23.1064 44.5704 23.1064 43.9122C23.1064 43.2539 23.6167 42.9904 24.5551 42.9904C24.8676 42.9904 25.23 43.0236 25.4278 43.0395V44.7682Z" fill="#CC092F"/>
<path d="M20.4242 38.7432C19.4526 38.7432 18.8932 39.1222 18.3662 39.7971C18.3172 39.4513 18.2507 39.1712 18.136 38.8255C17.9382 38.7598 17.5924 38.7432 17.2965 38.7432C17.0164 38.7432 16.6549 38.7764 16.4737 38.8255V46.2826C16.7205 46.3483 17.132 46.3649 17.4943 46.3649C17.8567 46.3649 18.3014 46.3317 18.515 46.2826V42.6446C18.515 41.1959 19.2722 40.4221 20.2928 40.4221C20.474 40.4221 20.7865 40.4221 20.9677 40.4554C21.0833 39.9783 21.0991 39.2867 21.001 38.8089C20.8854 38.7756 20.5887 38.7432 20.4242 38.7432Z" fill="#CC092F"/>
<path d="M11.8965 38.6775C11.3039 38.6775 10.7279 38.8089 10.3655 38.99V35.3354C9.78954 35.5491 9.18031 35.8458 8.66998 36.2572C8.4065 36.4708 8.32422 36.6853 8.32422 36.9978V46.0191C8.86778 46.2494 9.97072 46.4472 11.0238 46.4472C13.691 46.4472 15.222 44.8173 15.222 42.4635C15.222 40.1096 14.1356 38.6775 11.8965 38.6775ZM11.1393 44.7849C10.9257 44.7849 10.5958 44.7849 10.3655 44.7026V40.6033C10.6456 40.4554 11.0404 40.3731 11.5508 40.3731C12.5714 40.3731 13.115 41.0812 13.115 42.4144C13.115 43.814 12.4733 44.7849 11.1393 44.7849Z" fill="#CC092F"/>
<path d="M33.3304 36.9986V38.793C32.968 38.6941 32.5898 38.6775 32.2607 38.6775C30.0057 38.6775 28.4747 40.1919 28.4747 42.6122C28.4747 45.0325 29.9725 46.448 32.3105 46.448C33.3802 46.448 34.4341 46.3 35.3725 45.9867V35.3354C34.7965 35.5491 34.1873 35.8458 33.6769 36.2572C33.4134 36.4708 33.3312 36.6853 33.3312 36.9978L33.3304 36.9986ZM33.3304 44.6701C32.9846 44.769 32.7378 44.7856 32.4577 44.7856C31.1079 44.7856 30.5809 43.8963 30.5809 42.613C30.5809 41.1809 31.1079 40.3082 32.4411 40.3082C32.8359 40.3082 33.0827 40.3573 33.3304 40.4237V44.6701Z" fill="#CC092F"/>
<path d="M47.9321 41.8542L47.1093 41.5085C46.6322 41.3107 46.3521 41.1461 46.3521 40.8336C46.3521 40.3565 46.7801 40.2576 47.3395 40.2576C47.8989 40.2576 48.4757 40.3232 49.2653 40.5701C49.3642 40.0265 49.3642 39.5162 49.2653 39.0391C48.7716 38.7756 47.8498 38.6443 47.0428 38.6443C45.4628 38.6443 44.2609 39.5004 44.2609 40.7845C44.2609 41.9365 44.7546 42.5133 46.1377 43.0727L46.7793 43.3362C47.3886 43.583 47.5698 43.731 47.5698 44.1266C47.5698 44.7192 46.9771 44.8181 46.4834 44.8181C45.6606 44.8181 45.0347 44.6535 44.2443 44.3734C44.113 44.8505 44.113 45.4764 44.2443 45.9701C44.9192 46.3325 45.841 46.4472 46.8126 46.4472C48.3768 46.4472 49.6277 45.6243 49.6277 44.1424C49.6277 42.9239 49.1007 42.3479 47.9321 41.8542Z" fill="#CC092F"/>
<path d="M54.2863 44.7682C53.2657 44.7682 52.5908 43.9612 52.5908 42.5457C52.5908 41.1303 53.1343 40.3232 54.3029 40.3232C54.7967 40.3232 55.1424 40.4055 55.6037 40.5867C55.735 40.1254 55.9827 39.5993 56.3276 39.1546C55.686 38.8255 55.0601 38.6443 54.0395 38.6443C51.7845 38.6443 50.4838 40.2409 50.4838 42.5457C50.4838 44.8505 51.817 46.4472 54.1218 46.4472C54.9612 46.4472 55.735 46.2992 56.3609 45.9535C56.0808 45.5911 55.7683 45.0974 55.5871 44.5214C55.0111 44.7516 54.7642 44.7682 54.2863 44.7682Z" fill="#CC092F"/>
<path d="M59.9989 38.6443C57.7107 38.6443 56.4265 40.2085 56.4265 42.5624C56.4265 44.9162 57.7764 46.4472 59.9989 46.4472C62.2214 46.4472 63.5878 44.9162 63.5878 42.5624C63.5878 40.2085 62.3036 38.6443 59.9989 38.6443ZM59.9989 44.8015C58.8627 44.8015 58.5169 43.8797 58.5169 42.5624C58.5169 41.245 58.8627 40.2908 59.9989 40.2908C61.135 40.2908 61.4966 41.2458 61.4966 42.5624C61.4966 43.9454 61.1176 44.8015 59.9989 44.8015Z" fill="#CC092F"/>
<path d="M40.0794 38.6443C37.8735 38.6443 36.5237 40.1262 36.5237 42.5956C36.5237 45.0649 37.9558 46.448 40.4085 46.448C41.248 46.448 42.1531 46.3 42.7299 46.0199C42.8455 45.5428 42.8455 44.917 42.7299 44.4399C41.9727 44.6535 41.3303 44.7857 40.6229 44.7857C39.4868 44.7857 38.6971 44.3576 38.5326 43.1558H43.1746C43.2403 42.9746 43.2569 42.3653 43.2569 42.1185C43.2569 39.896 42.006 38.6443 40.0794 38.6443ZM38.5318 41.6572C38.6797 40.7521 39.2233 40.2085 40.0462 40.2085C40.9679 40.2085 41.3303 40.8344 41.3627 41.6572H38.5318Z" fill="#CC092F"/>
<path d="M35.0888 6.87693C33.2334 6.87693 31.2039 7.04704 29.1998 7.38805C31.2284 4.78339 34.4455 3.10365 38.0328 3.10365C40.6802 3.10365 43.3276 4.10216 45.1094 5.58646C45.4314 5.85389 45.6783 5.87842 45.9259 5.63552C46.1736 5.39183 46.1483 5.14893 45.8761 4.83244C43.5507 2.12967 40.1367 0.303563 36.1031 0.377145C30.8328 0.474464 26.3546 3.80941 24.6472 8.43482C23.0885 8.92141 21.6532 9.50611 20.3913 10.2119C20.0447 10.4065 19.9213 10.6502 20.0447 10.9422C20.1681 11.2096 20.4158 11.3077 20.7623 11.2096C21.851 10.8931 22.9643 10.6257 24.1273 10.382C24.0039 10.9904 23.9295 11.6234 23.9295 12.2809C23.8306 16.5415 26.107 20.5822 29.6207 22.7976C29.9673 23.0168 30.264 23.0168 30.4618 22.7486C30.6596 22.4811 30.635 22.2375 30.3383 21.9692C28.1111 19.973 26.8744 17.0028 26.8744 14.0571C26.8744 12.572 27.1711 11.136 27.7408 9.84554C28.9039 9.74822 30.1659 9.67543 31.5513 9.67543C40.5576 9.67543 48.154 12.6456 48.154 16.5408C48.154 18.5124 45.6546 20.4849 42.6859 21.7991C41.9683 22.1156 41.8939 22.3348 41.9928 22.6513C42.0917 22.9432 42.4138 23.0405 42.7848 22.9187C47.9807 21.2144 51.9154 18.4151 51.9154 15.0311C51.9154 10.4302 44.4923 6.87534 35.0903 6.87534L35.0888 6.87693Z" fill="#CC092F"/>
<path d="M39.3899 30.2801V20.4224C39.3899 20.045 39.0252 19.9065 38.7245 20.0782L36.2188 21.5206V30.7556L38.9104 30.7588C39.1755 30.7588 39.3899 30.5443 39.3899 30.2801Z" fill="#CC092F"/>
<path d="M33.167 23.6336V30.4506C33.167 30.6215 33.3055 30.7592 33.4756 30.7592H35.3721V22.0068L33.4787 23.0971C33.2857 23.2071 33.167 23.3804 33.167 23.6344V23.6336Z" fill="#CC092F"/>
<path d="M45.2223 58.4473C44.8979 58.5106 44.5989 58.5193 44.2776 58.4441C44.2745 58.3634 44.2673 58.2811 44.2673 58.1988C44.2673 57.2256 44.2658 56.2524 44.2673 55.2793C44.2673 54.9889 44.2476 54.7017 44.1684 54.4208C43.9983 53.8195 43.5964 53.4753 42.9824 53.3993C42.4199 53.3297 41.8716 53.4104 41.3438 53.6217C41.3185 53.632 41.2964 53.6502 41.2726 53.6644C41.2766 53.6897 41.275 53.7127 41.2845 53.7301C41.5353 54.2127 41.5994 54.7349 41.6002 55.2682C41.6026 56.2485 41.601 57.2288 41.6002 58.2083C41.6002 58.2843 41.5931 58.3602 41.5891 58.4425C41.275 58.5113 40.9775 58.5193 40.6547 58.4457C40.6484 58.3634 40.6365 58.2748 40.6365 58.187C40.6349 57.2565 40.6396 56.3252 40.6325 55.3948C40.6302 55.121 40.5977 54.8473 40.5748 54.5735C40.5692 54.5039 40.5479 54.435 40.5289 54.3678C40.3762 53.8266 40.0265 53.4864 39.4671 53.4088C38.9465 53.3368 38.4258 53.3709 37.8965 53.5346V58.4386C37.5706 58.5145 37.2659 58.5185 36.9613 58.452C36.9186 58.289 36.9004 53.4183 36.9423 52.9294C37.114 52.8859 37.296 52.8376 37.4788 52.7941C37.9535 52.6817 38.4346 52.616 38.9219 52.5986C39.562 52.5749 40.1744 52.6675 40.7164 53.0488C40.8715 52.9879 41.0194 52.923 41.1721 52.87C41.904 52.6168 42.6493 52.5061 43.4176 52.6746C44.3876 52.8866 45.0103 53.541 45.1741 54.5276C45.2089 54.7357 45.2294 54.9477 45.2302 55.1582C45.2358 56.1876 45.2334 57.2169 45.2326 58.2471C45.2326 58.3096 45.2263 58.3713 45.2223 58.4473Z" fill="#CC092F"/>
<path d="M67.3422 55.5894C67.3374 56.008 67.2931 56.4479 67.1499 56.8735C66.7282 58.1276 65.7012 58.6245 64.5413 58.5327C64.3189 58.5153 64.0927 58.4694 63.8814 58.3974C63.1195 58.1395 62.6598 57.5809 62.4335 56.8324C62.1716 55.9668 62.1756 55.0933 62.4612 54.2325C62.8006 53.2071 63.6314 52.6129 64.7098 52.5963C65.0152 52.5915 65.3159 52.6184 65.6094 52.7023C66.3579 52.9159 66.8405 53.4128 67.1111 54.1304C67.2852 54.5917 67.3358 55.0728 67.3422 55.5894ZM63.2271 55.6044C63.2374 55.7651 63.2413 55.9486 63.2635 56.1298C63.3007 56.4313 63.3687 56.7256 63.5087 56.9986C63.6472 57.2691 63.8418 57.4867 64.1172 57.622C64.8973 58.0058 65.8159 57.6727 66.1411 56.8704C66.24 56.6259 66.3009 56.3585 66.331 56.0958C66.399 55.5119 66.3848 54.928 66.187 54.3646C65.9069 53.5663 65.2692 53.2617 64.4416 53.4152C63.9233 53.5117 63.6132 53.8638 63.4273 54.3377C63.2706 54.7381 63.2429 55.159 63.2271 55.6044Z" fill="#CC092F"/>
<path d="M47.2803 55.7682C47.2866 55.8814 47.2795 55.9731 47.2985 56.0586C47.3483 56.2778 47.3871 56.5033 47.4725 56.7098C47.7479 57.3768 48.2732 57.7083 48.9806 57.7573C49.4996 57.7929 50.0068 57.7122 50.5052 57.5682C50.5859 57.5453 50.6666 57.5239 50.7458 57.5026C50.8138 57.6394 50.8447 58.0849 50.7806 58.1846C50.7505 58.232 50.6872 58.2724 50.631 58.2866C50.3312 58.361 50.0313 58.4465 49.7259 58.49C49.2709 58.5557 48.8105 58.5596 48.3579 58.4583C47.4884 58.2629 46.8665 57.7581 46.5666 56.9155C46.2153 55.9257 46.2375 54.928 46.6774 53.9698C47.3689 52.4626 49.0273 52.3676 49.9348 52.8479C50.3494 53.067 50.6469 53.3954 50.8478 53.8147C51.1422 54.4287 51.1453 55.0791 51.0884 55.7635C50.6579 55.7769 50.2378 55.7682 49.8177 55.7698C49.4015 55.7714 48.9853 55.7698 48.5691 55.7698H47.2795L47.2803 55.7682ZM47.3032 55.0284C47.5928 55.0712 50.055 55.0585 50.2141 55.0118C50.2101 54.7025 50.1618 54.3994 50.0329 54.113C49.7662 53.5204 49.2203 53.2403 48.5359 53.374C47.7748 53.522 47.3119 54.2926 47.3032 55.0284Z" fill="#CC092F"/>
<path d="M15.7609 55.0134C15.7902 54.6985 15.7791 54.4121 15.6707 54.1383C15.4776 53.647 15.0804 53.4373 14.5844 53.3938C14.04 53.3463 13.5004 53.4017 12.9695 53.5307C12.9228 53.5418 12.8753 53.5481 12.8294 53.5568C12.7654 53.3131 12.7638 53.1303 12.8207 52.8289C13.0352 52.7316 13.2717 52.6983 13.5067 52.6627C14.0392 52.5812 14.5717 52.5583 15.1034 52.6786C15.9626 52.8724 16.5054 53.4524 16.6375 54.3266C16.6629 54.4936 16.6818 54.6629 16.6818 54.8306C16.6858 55.9154 16.6842 57.0009 16.6842 58.0857C16.6842 58.1347 16.6842 58.183 16.6842 58.2566C16.4611 58.3088 16.2459 58.3705 16.0267 58.4093C15.3938 58.5216 14.7576 58.596 14.1136 58.5121C13.7757 58.4686 13.4513 58.3808 13.1531 58.2107C12.5019 57.8396 12.2819 57.1671 12.3547 56.4977C12.4188 55.9083 12.744 55.5 13.2686 55.2413C13.6025 55.0767 13.9601 54.9889 14.3272 54.9762C14.7276 54.962 15.1295 54.9905 15.5306 55.0015C15.6003 55.0031 15.6699 55.0095 15.7617 55.0142L15.7609 55.0134ZM15.7633 55.7223C15.6897 55.7073 15.6224 55.6859 15.5552 55.682C15.3091 55.6677 15.0622 55.6487 14.8162 55.6503C14.506 55.6519 14.1959 55.6677 13.8976 55.7674C13.5756 55.875 13.3311 56.072 13.2686 56.4178C13.157 57.0405 13.3793 57.5279 14.0447 57.7154C14.4831 57.8388 14.9254 57.7921 15.3676 57.7407C15.4982 57.7257 15.628 57.6956 15.764 57.6711L15.7633 55.7223Z" fill="#CC092F"/>
<path d="M35.5664 58.2479C35.1447 58.3832 34.7277 58.4568 34.3076 58.5011C33.8796 58.5462 33.4507 58.5746 33.0195 58.5145C32.7386 58.475 32.4649 58.414 32.2069 58.2953C31.4972 57.9694 31.1934 57.3601 31.2361 56.5958C31.2749 55.9035 31.6539 55.4478 32.2813 55.1859C32.7252 55.0008 33.1936 54.9493 33.6699 54.962C33.9302 54.9691 34.1905 54.9897 34.4508 55.0031C34.5133 55.0063 34.5758 55.0031 34.6549 55.0031C34.685 54.6044 34.6605 54.223 34.4263 53.8867C34.1945 53.5536 33.8487 53.4231 33.4618 53.393C32.9167 53.3503 32.3771 53.4025 31.8462 53.5354C31.8066 53.5457 31.7662 53.5513 31.6998 53.5647C31.665 53.3147 31.6658 53.0813 31.699 52.8202C31.8596 52.779 32.0186 52.7268 32.1824 52.6975C32.7189 52.6002 33.2577 52.5615 33.8028 52.6382C34.7451 52.7711 35.3821 53.3851 35.5237 54.3251C35.5553 54.5331 35.5704 54.746 35.5712 54.9564C35.5759 56 35.5735 57.0437 35.5735 58.0873C35.5735 58.1363 35.5696 58.1846 35.5664 58.2479ZM34.6573 55.7223C34.579 55.7065 34.5181 55.6859 34.4564 55.6828C34.1889 55.6685 33.9207 55.648 33.6533 55.6503C33.3574 55.6535 33.0607 55.6717 32.7766 55.7698C32.438 55.8861 32.1982 56.1021 32.1452 56.4677C32.0487 57.1339 32.3525 57.5571 32.942 57.717C33.3811 57.8364 33.8234 57.7913 34.2657 57.7383C34.3962 57.7225 34.5244 57.6924 34.6573 57.6679V55.7223Z" fill="#CC092F"/>
<path d="M56.164 58.4433C56.164 58.3515 56.164 58.2684 56.164 58.1854C56.164 57.2122 56.1695 56.239 56.16 55.2658C56.1576 55.0142 56.1331 54.7571 56.0738 54.5134C55.9163 53.8606 55.4827 53.4745 54.8205 53.4001C54.3204 53.344 53.8204 53.3811 53.3283 53.4943C53.3014 53.5006 53.276 53.5149 53.2309 53.5339V58.4346C52.9018 58.5185 52.5924 58.5169 52.2696 58.4465V52.9215C52.4476 52.8787 52.6296 52.8305 52.814 52.7909C53.4295 52.658 54.0514 52.5733 54.6812 52.6018C54.9328 52.6129 55.1884 52.6453 55.4329 52.7062C56.3681 52.942 56.8935 53.5663 57.0667 54.4975C57.1087 54.7246 57.1245 54.9596 57.1261 55.1914C57.1324 56.1994 57.1292 57.2082 57.1284 58.2162C57.1284 58.2914 57.1213 58.3673 57.1174 58.4449C56.8001 58.5113 56.5018 58.5161 56.1632 58.4417L56.164 58.4433Z" fill="#CC092F"/>
<path d="M11.2605 58.4465C10.9424 58.5098 10.6433 58.5193 10.3174 58.4441C10.3142 58.3689 10.3087 58.2866 10.3087 58.2051C10.3071 57.1829 10.311 56.1607 10.3007 55.1384C10.2984 54.9153 10.2636 54.6874 10.2066 54.4714C10.0404 53.8385 9.57204 53.45 8.92009 53.3946C8.43982 53.3535 7.96193 53.3859 7.49037 53.4888C7.45635 53.4959 7.4247 53.5133 7.37248 53.5331V58.433C7.05046 58.5208 6.74585 58.5129 6.44044 58.4536C6.39376 58.3017 6.3724 53.3906 6.41908 52.9159C6.67622 52.8574 6.94048 52.787 7.2087 52.7379C7.74356 52.6398 8.28316 52.5678 8.82752 52.6034C9.12106 52.6224 9.42013 52.6596 9.70101 52.7426C10.5009 52.9792 10.9867 53.5315 11.1727 54.3369C11.2344 54.6028 11.2652 54.8805 11.2684 55.1527C11.2795 56.1963 11.2731 57.2399 11.2724 58.2827C11.2724 58.3317 11.2652 58.38 11.2605 58.4465Z" fill="#CC092F"/>
<path d="M22.9007 58.448C22.5795 58.5066 22.2749 58.524 21.9442 58.4386V58.1941C21.9442 57.2074 21.9442 56.22 21.9442 55.2334C21.9442 54.928 21.907 54.6281 21.8033 54.3401C21.5984 53.7696 21.1727 53.4666 20.5873 53.3993C20.0943 53.3424 19.6014 53.3827 19.1156 53.4911C19.0824 53.4982 19.0523 53.5172 19.0017 53.5394V58.4425C18.6765 58.5106 18.3734 58.5216 18.0554 58.4441V52.9262C18.1606 52.8977 18.273 52.8645 18.3869 52.8368C19.0539 52.6762 19.7296 52.5836 20.4179 52.5971C20.8088 52.605 21.1909 52.6659 21.5533 52.8154C22.2551 53.1058 22.661 53.6462 22.8169 54.3733C22.8754 54.6471 22.9039 54.9311 22.9071 55.2112C22.9174 56.2406 22.9118 57.2699 22.911 58.2993C22.911 58.3412 22.9055 58.3832 22.9015 58.4473L22.9007 58.448Z" fill="#CC092F"/>
<path d="M3.04457 50.176C3.10945 50.4228 3.10787 50.6626 3.05169 50.8983C2.77714 50.8817 2.51921 50.8596 2.26048 50.8532C2.13547 50.8501 2.0073 50.8683 1.88387 50.8936C1.46927 50.9798 1.1971 51.2314 1.0618 51.6318C0.949451 51.9657 0.962901 52.3099 0.972396 52.677H3.01292C3.11341 52.9017 3.11657 53.2095 3.024 53.4737H0.965275V58.4386C0.639297 58.5129 0.336264 58.5177 0.0118681 58.4457C0.00791209 58.3689 0 58.2938 0 58.2186C0 56.2809 0 54.3425 0 52.4048C0 52.1223 0.0181978 51.8423 0.0925714 51.5677C0.318066 50.729 0.871121 50.2527 1.71613 50.1071C2.15921 50.0312 2.59991 50.0676 3.04457 50.176Z" fill="#CC092F"/>
<path d="M68.2125 57.4575C68.5369 57.5397 68.8399 57.6315 69.1501 57.6909C69.5101 57.7605 69.8764 57.7953 70.2419 57.717C70.3448 57.6948 70.4469 57.6655 70.5442 57.626C71.1732 57.3696 71.1352 56.5887 70.7649 56.3023C70.5996 56.1741 70.4168 56.0633 70.2293 55.9692C69.9531 55.8299 69.6588 55.7255 69.3843 55.5831C69.173 55.4739 68.9681 55.3449 68.779 55.2001C68.1832 54.7436 68.0709 53.6098 68.8312 53.0401C69.1809 52.7782 69.5765 52.6414 70.0046 52.6066C70.5434 52.563 71.0719 52.6342 71.5886 52.8012C71.7239 52.8455 71.7824 52.9199 71.7903 53.056C71.8014 53.2387 71.8077 53.4191 71.7476 53.594C71.4651 53.5315 71.1938 53.4555 70.9176 53.4136C70.5687 53.3606 70.215 53.3487 69.8669 53.4334C69.7656 53.4579 69.6667 53.5006 69.5742 53.5497C69.1714 53.7633 69.1659 54.3361 69.4626 54.5759C69.6034 54.6898 69.764 54.7848 69.9262 54.8662C70.2024 55.0055 70.4935 55.1171 70.7673 55.2603C70.9967 55.3805 71.2246 55.5127 71.4311 55.6685C72.1875 56.239 72.2635 57.6632 71.1969 58.2392C70.9073 58.395 70.6012 58.4924 70.2728 58.5137C69.692 58.5517 69.1153 58.5224 68.5606 58.3341C68.1468 58.1933 68.1816 58.2487 68.165 57.7874C68.1618 57.6964 68.1761 57.6046 68.1848 57.5136C68.1864 57.4946 68.2014 57.4772 68.2117 57.4559L68.2125 57.4575Z" fill="#CC092F"/>
<path d="M59.4301 51.0384V52.6786C59.6635 52.696 59.8803 52.6849 60.0955 52.6873C60.3075 52.6896 60.5188 52.6873 60.7308 52.6873C60.9429 52.6873 61.166 52.6873 61.3923 52.6873C61.4524 52.9563 61.4516 53.2039 61.3907 53.4713H59.4506C59.4443 53.5433 59.4356 53.5971 59.4348 53.6517C59.434 54.5545 59.4348 55.4573 59.434 56.3601C59.434 56.6393 59.4839 56.9076 59.612 57.1568C59.8106 57.5421 60.1303 57.7486 60.5623 57.7526C60.8289 57.755 61.0956 57.7217 61.397 57.7019C61.4587 57.9195 61.4437 58.1585 61.397 58.4172C61.287 58.4417 61.1802 58.4742 61.0702 58.4892C60.7269 58.5375 60.3803 58.558 60.0377 58.4924C59.2188 58.3365 58.6863 57.7961 58.5289 56.9527C58.483 56.705 58.4616 56.4487 58.4608 56.1963C58.4545 54.814 58.4632 53.4318 58.4537 52.0495C58.4513 51.7497 58.555 51.5297 58.809 51.381C58.9965 51.271 59.1895 51.1705 59.4285 51.0384H59.4301Z" fill="#CC092F"/>
<path d="M27.993 53.628C27.898 53.5979 27.8126 53.571 27.7279 53.5433C27.2714 53.3946 26.8077 53.34 26.3322 53.431C25.791 53.5338 25.4128 53.8416 25.2008 54.3464C24.9998 54.8251 24.9658 55.3299 24.9998 55.8402C25.0204 56.1504 25.0695 56.4558 25.1889 56.7462C25.4279 57.3277 25.8638 57.6442 26.4841 57.7225C26.9628 57.7826 27.4241 57.7019 27.8822 57.5777C27.9368 57.5627 27.9906 57.5469 28.0452 57.5334C28.0571 57.5302 28.0721 57.5374 28.0958 57.5413C28.1449 57.7526 28.137 57.9702 28.1061 58.1846C28.099 58.2313 28.0349 58.2906 27.9858 58.3056C27.7501 58.3753 27.5143 58.452 27.2722 58.4884C26.8172 58.5564 26.3575 58.5612 25.9065 58.4536C25.0449 58.2471 24.4808 57.7051 24.2118 56.8728C23.9309 56.004 23.9277 55.1242 24.2284 54.257C24.59 53.2126 25.4548 52.6073 26.5593 52.5978C26.9937 52.5939 27.4138 52.6596 27.8244 52.8036C27.9764 52.8566 28.0389 52.942 28.0317 53.0963C28.0246 53.2696 28.0539 53.4452 27.9922 53.6296L27.993 53.628Z" fill="#CC092F"/>
<path d="M4.06128 52.6975C4.37222 52.6255 4.67684 52.616 4.99727 52.6975V58.4457C4.68475 58.5113 4.38092 58.5208 4.06128 58.4441V52.6975Z" fill="#CC092F"/>
<path d="M30.0936 58.448C29.774 58.509 29.4702 58.5224 29.1537 58.4441V52.7031C29.4622 52.62 29.7716 52.62 30.0936 52.6983V58.448Z" fill="#CC092F"/>
<path d="M4.03504 50.6964C4.37684 50.6411 4.69728 50.6387 5.03987 50.6949C5.09288 51.0121 5.08814 51.3239 5.04146 51.653C4.70915 51.7258 4.38317 51.7068 4.0382 51.6665C3.98282 51.3437 3.98757 51.0319 4.03504 50.6964Z" fill="#CC092F"/>
<path d="M29.1133 51.6609V50.7004C29.4622 50.6339 29.7937 50.6419 30.1434 50.6949V51.6514C29.8016 51.7242 29.4709 51.7108 29.1133 51.6609Z" fill="#CC092F"/>
</g>
<defs>
<clipPath id="clip0_4571_130019">
<rect width="72" height="58.1744" fill="white" transform="translate(0 0.375)"/>
</clipPath>
</defs>
</svg>