<?xml version="1.0" encoding="UTF-8"?>
<svg version="1.1" xmlns="http://www.w3.org/2000/svg" width="66" height="69">
<path d="M0 0 C2.43387442 0.24037928 4.76643317 0.67365188 7.16113281 1.17163086 C8.09135254 1.33872559 9.02157227 1.50582031 9.97998047 1.67797852 C12.98919187 2.23321113 15.97979968 2.85152257 18.97363281 3.48413086 C19.99650391 3.68458008 21.019375 3.8850293 22.07324219 4.09155273 C23.05744141 4.29973633 24.04164062 4.50791992 25.05566406 4.72241211 C26.38368042 4.99565308 26.38368042 4.99565308 27.73852539 5.27441406 C30.71161564 6.37550312 32.15756407 7.73485806 34.16113281 10.17163086 C35.35231866 14.19188309 35.65092554 16.21334074 33.72363281 19.98413086 C32.89115315 21.06370696 32.03226837 22.12299852 31.16113281 23.17163086 C30.14599609 24.4574707 30.14599609 24.4574707 29.11035156 25.76928711 C27.14480835 28.2515273 25.16024979 30.71640467 23.16113281 33.17163086 C25.19935992 37.92749411 28.757412 41.4004176 32.16503906 45.22241211 C34.49302268 48.66199652 34.96223717 51.05303566 35.16113281 55.17163086 C33.82586726 58.84361113 32.68596685 59.90541069 29.19628906 61.67553711 C24.48236628 63.59747042 19.58956064 64.45647889 14.59863281 65.35913086 C13.67888672 65.53637695 12.75914063 65.71362305 11.81152344 65.89624023 C1.8578514 67.74958391 1.8578514 67.74958391 -1.83886719 67.17163086 C-4.29589844 65.15209961 -4.29589844 65.15209961 -6.65136719 62.35913086 C-7.07659668 61.86356689 -7.50182617 61.36800293 -7.93994141 60.85742188 C-9.25850116 59.31030199 -10.55028984 57.74376426 -11.83886719 56.17163086 C-12.61875 55.23834961 -13.39863281 54.30506836 -14.20214844 53.34350586 C-15.698673 51.53423609 -17.18203296 49.71398852 -18.65136719 47.88256836 C-20.1446957 46.03190767 -21.66711104 44.20443821 -23.21386719 42.39819336 C-23.95636719 41.51905273 -24.69886719 40.63991211 -25.46386719 39.73413086 C-26.13675781 38.95166992 -26.80964844 38.16920898 -27.50292969 37.36303711 C-28.83886719 35.17163086 -28.83886719 35.17163086 -28.58642578 33.23999023 C-27.76463032 30.96623087 -26.8230667 29.68042012 -25.21386719 27.88647461 C-24.67624756 27.27852051 -24.13862793 26.67056641 -23.5847168 26.04418945 C-22.72052124 25.08633545 -22.72052124 25.08633545 -21.83886719 24.10913086 C-20.65147366 22.76774034 -19.46528276 21.42528434 -18.28027344 20.08178711 C-17.6952002 19.42065918 -17.11012695 18.75953125 -16.50732422 18.07836914 C-9.8271465 10.55659718 -9.8271465 10.55659718 -4.15527344 2.30444336 C-1.83886719 0.17163086 -1.83886719 0.17163086 0 0 Z " fill="#00A9E0" transform="translate(30.8388671875,1.828369140625)"/>
<path d="M0 0 C1.29333252 0.25064209 1.29333252 0.25064209 2.61279297 0.50634766 C4.00860596 0.75505615 4.00860596 0.75505615 5.43261719 1.00878906 C8.44078764 1.56799705 11.43174419 2.18629946 14.42529297 2.81884766 C15.44816406 3.01929688 16.47103516 3.21974609 17.52490234 3.42626953 C18.50910156 3.63445313 19.49330078 3.84263672 20.50732422 4.05712891 C21.83534058 4.33036987 21.83534058 4.33036987 23.19018555 4.60913086 C26.1632758 5.71021991 27.60922423 7.06957486 29.61279297 9.50634766 C30.78625161 13.46677059 31.10374424 15.52444511 29.23779297 19.25634766 C28.38409021 20.35654205 27.50383924 21.43617353 26.61279297 22.50634766 C25.88576172 23.43705078 25.15873047 24.36775391 24.40966797 25.32666016 C19.84216122 31.08761222 19.84216122 31.08761222 17.61279297 33.50634766 C16.95279297 33.50634766 16.29279297 33.50634766 15.61279297 33.50634766 C10.61279297 28.03015718 10.61279297 28.03015718 10.61279297 25.50634766 C8.38354119 25.92255874 6.15439971 26.33936052 3.92529297 26.75634766 C3.22283447 26.8869458 2.52037598 27.01754395 1.79663086 27.15209961 C-2.4339919 27.94158981 -6.65869687 28.75515859 -10.87939453 29.59619141 C-11.80405518 29.77827148 -12.72871582 29.96035156 -13.68139648 30.14794922 C-15.49348378 30.50528471 -17.30457485 30.86771908 -19.11450195 31.23583984 C-23.97263589 32.18734226 -28.43691996 32.70113507 -33.38720703 32.50634766 C-29.0321008 26.40919893 -24.2423812 20.77717425 -19.27807617 15.17407227 C-15.33437506 10.70034313 -11.80522078 6.08268572 -8.55908203 1.06884766 C-5.62250398 -1.04379842 -3.46205877 -0.56204548 0 0 Z " fill="#0F069E" transform="translate(35.38720703125,2.49365234375)"/>
<path d="M0 0 C2.9375 2.6875 2.9375 2.6875 5 6 C5.07881269 9.23132047 4.01707205 10.9643039 2.625 13.875 C0 16 0 16 -2.09790039 16.09204102 C-9.79374395 15.26416037 -17.37297411 13.95570244 -24.96459961 12.47094727 C-27.08857808 12.05742277 -29.21495311 11.65825976 -31.34179688 11.25976562 C-32.69808168 10.99825016 -34.05420806 10.73591146 -35.41015625 10.47265625 C-36.62840088 10.23812744 -37.84664551 10.00359863 -39.10180664 9.76196289 C-42 9 -42 9 -44 7 C-42.80624756 6.78851318 -42.80624756 6.78851318 -41.58837891 6.57275391 C-37.93371851 5.92462895 -34.27935832 5.27482595 -30.625 4.625 C-29.37332031 4.40328125 -28.12164062 4.1815625 -26.83203125 3.953125 C-20.53899441 2.83289855 -14.25744477 1.68410983 -7.99682617 0.39404297 C-5.12107997 -0.17344137 -2.9065856 -0.54076011 0 0 Z " fill="#006FCC" transform="translate(46,28)"/>
</svg>
