<svg xmlns="http://www.w3.org/2000/svg" width="73" height="14" viewBox="0 0 73 14" fill="none">
<path d="M57.6926 12.3994C57.6652 12.4181 57.6379 12.4369 57.6119 12.457C56.7566 13.0949 55.8033 13.5097 54.7535 13.7026C54.202 13.8034 53.6462 13.8337 53.0889 13.7948C50.0375 13.5889 47.6169 11.4202 46.9358 8.63094C46.7831 8.00454 46.7212 7.3695 46.75 6.72582C46.8796 3.79686 48.8279 1.42806 51.3854 0.578461C51.862 0.420061 52.3516 0.316381 52.8527 0.264541C55.7097 -0.0263391 58.3694 1.49142 59.6193 3.97542C59.9663 4.66374 60.1867 5.39094 60.2846 6.15558C60.3062 6.32694 60.3163 6.50118 60.3177 6.67398C60.3191 8.99094 60.3177 11.3093 60.3177 13.6263C60.3177 13.6724 60.3148 13.717 60.3134 13.7674H57.7171V12.4095C57.7171 12.4095 57.7027 12.4023 57.6969 12.3994H57.6926ZM49.3622 7.01958C49.3737 9.34518 51.2327 11.1351 53.4331 11.1884C55.7831 11.246 57.6955 9.35958 57.7156 7.05702C57.7358 4.8063 55.9401 2.8839 53.6102 2.85078C51.2587 2.81766 49.3823 4.67238 49.3636 7.01958H49.3622Z" fill="#243559"/>
<path d="M35.8905 8.9231C35.8373 8.9231 35.7883 8.9231 35.7393 8.9231C35.0078 8.92598 34.2777 8.9303 33.5462 8.93174C32.4403 8.93462 31.3344 8.93606 30.2285 8.9375C30.1824 8.9375 30.1363 8.94038 30.0888 8.94038C29.9952 8.94038 29.9937 8.94038 29.9649 8.85254C29.8785 8.58758 29.7936 8.32262 29.7072 8.0591C29.5373 7.53638 29.3673 7.01222 29.1989 6.4895C29.1873 6.45494 29.1787 6.41894 29.1657 6.37142C30.6129 6.35702 32.0515 6.3599 33.5059 6.35558C33.4238 5.80694 33.2438 5.30582 32.9616 4.84214C32.4662 4.02566 31.7736 3.43814 30.8837 3.09254C29.1153 2.40422 27.0993 3.00614 25.9891 4.54982C24.8789 6.0935 24.9537 8.18438 26.1691 9.64886C27.383 11.1119 29.5675 11.6548 31.4481 10.6093C31.7232 11.4474 31.9982 12.2826 32.2718 13.1164C30.1896 14.1633 26.8848 14.1273 24.5347 11.7455C22.1011 9.27878 21.9485 5.43686 24.0293 2.79302C26.159 0.0886979 29.8958 -0.567942 32.7701 1.10102C35.7941 2.85638 36.7099 6.2663 35.8862 8.9231H35.8905Z" fill="#243559"/>
<path d="M64.6256 10.9939C65.9864 11.2114 67.3328 11.2459 68.6849 11.112C70.0342 10.9781 71.3417 10.6685 72.6118 10.1919C72.6305 10.2653 72.6377 12.7709 72.6204 12.9279C72.4376 12.9826 72.2518 13.0402 72.0646 13.0935C71.4152 13.2778 70.7571 13.4247 70.0918 13.5341C69.6209 13.6119 69.1486 13.668 68.6734 13.7098C68.0312 13.7659 67.3875 13.7818 66.7438 13.7731C66.283 13.7659 65.8222 13.7386 65.3628 13.6939C64.8516 13.645 64.3419 13.5759 63.8364 13.4837C63.1078 13.3527 62.3907 13.1755 61.6851 12.9552C61.603 12.9293 61.603 12.9293 61.603 12.8472C61.603 11.9847 61.603 11.1207 61.6016 10.2581C61.6016 10.1976 61.6304 10.1631 61.6707 10.1256C62.5491 9.34802 63.4275 8.57042 64.3059 7.79282C66.0584 6.24194 67.8094 4.68962 69.5619 3.13874C69.5892 3.11426 69.6152 3.08834 69.6497 3.05522C69.6209 3.04514 69.6022 3.03506 69.582 3.03218C68.9456 2.93138 68.3048 2.8709 67.6611 2.84498C67.5099 2.83922 67.3587 2.8133 67.2075 2.8133C67.016 2.8133 66.8244 2.82914 66.6329 2.83922C66.5192 2.84498 66.404 2.85362 66.2902 2.85938C64.7206 2.93858 63.2 3.24962 61.7254 3.78962C61.6908 3.80258 61.6563 3.8141 61.6217 3.82562C61.5987 3.7565 61.5944 1.20482 61.616 1.09394C63.2619 0.571222 64.9539 0.293302 66.6833 0.254422C68.708 0.208342 70.688 0.486262 72.6248 1.10258C72.6262 1.1357 72.6291 1.1645 72.6291 1.19474C72.6291 2.06738 72.6291 2.94002 72.6291 3.81266C72.6291 3.87314 72.6118 3.9149 72.5657 3.95522C70.5886 5.70482 68.6115 7.45586 66.6344 9.2069C65.9907 9.77714 65.3456 10.3474 64.7019 10.9191C64.6803 10.9392 64.6601 10.9608 64.627 10.9939H64.6256Z" fill="#243559"/>
<path d="M12.2374 2.18679C11.6196 2.80455 11.0062 3.41655 10.3899 4.03287C9.39913 3.09255 8.21977 2.67207 6.85321 2.85495C5.76889 3.00039 4.87753 3.51447 4.18633 4.36119C2.83561 6.01863 2.96521 8.43207 4.48729 9.93687C5.30521 10.7447 6.29593 11.1537 7.44793 11.1508C8.59705 11.1479 9.57337 10.7188 10.387 9.93255C11.0033 10.5474 11.6167 11.1623 12.2316 11.7758C10.0961 14.0351 6.05545 14.6471 3.10921 12.2236C0.0276098 9.68631 -0.19847 5.10855 2.53321 2.27751C5.28073 -0.569368 9.68713 -0.408088 12.2374 2.18679Z" fill="#243559"/>
<path d="M47.3847 2.17388C46.754 2.80316 46.142 3.41516 45.5242 4.03292C45.5141 4.02428 45.4969 4.01276 45.4825 3.99836C44.8388 3.37916 44.0785 2.98748 43.1929 2.8622C41.8522 2.67356 40.6844 3.05084 39.6879 3.9638C39.6418 4.00556 39.626 4.04876 39.626 4.10924C39.6274 4.8206 39.626 5.53196 39.626 6.24476C39.626 6.275 39.6289 6.30524 39.6303 6.34268H43.5989C43.6205 6.41468 43.6292 8.80076 43.6076 8.9462H39.626V13.7688H37.0239V11.1508C37.0239 8.48972 37.0239 5.8286 37.0225 3.16748C37.0225 3.0854 37.0441 3.0206 37.093 2.9558C38.1154 1.60076 39.4517 0.726675 41.1092 0.350835C41.6881 0.219795 42.2785 0.169395 42.8717 0.201075C44.5925 0.291795 46.0757 0.935475 47.3199 2.1278C47.3401 2.14652 47.3645 2.16092 47.3847 2.17532V2.17388Z" fill="#243559"/>
<path d="M15.4639 13.7673H12.8633V13.6708C12.8633 10.1587 12.8633 6.64793 12.8633 3.13577C12.8633 3.07673 12.8777 3.03065 12.9137 2.98313C13.9375 1.61081 15.281 0.728091 16.9529 0.349371C17.5318 0.218331 18.1222 0.167931 18.7154 0.199611C20.4146 0.288891 21.8849 0.919611 23.1218 2.09033C23.155 2.12201 23.1866 2.15513 23.2126 2.17961C22.5948 2.79737 21.9828 3.40793 21.3622 4.02857C21.3521 4.01993 21.329 4.00121 21.3074 3.98105C20.6854 3.38633 19.9524 3.00473 19.1028 2.87225C17.7377 2.65913 16.5439 3.03353 15.5258 3.96665C15.4841 4.00553 15.4654 4.04585 15.4668 4.10345C15.4697 4.41593 15.4668 4.72841 15.4668 5.04089C15.4668 7.90217 15.4668 10.7649 15.4668 13.6262V13.7659L15.4639 13.7673Z" fill="#243559"/>
</svg>