<svg xmlns="http://www.w3.org/2000/svg" width="72" height="25" viewBox="0 0 72 25" fill="none">
<g clip-path="url(#clip0_4571_130201)">
<path fillRule="evenodd" clipRule="evenodd" d="M16.4252 20.4114C16.4252 20.074 16.2897 19.9391 15.9511 19.9391H12.937C12.5983 19.9391 12.4628 20.074 12.4628 20.4114V21.3898H13.5466V21.1199C13.5466 21.0187 13.6143 20.9512 13.7159 20.9512H13.8514V24.8648H15.1044V20.9849H15.2399C15.3415 20.9849 15.4092 21.0524 15.4092 21.1536V21.4235H16.4252V20.4114Z" fill="#0A6D99"/>
<path fillRule="evenodd" clipRule="evenodd" d="M4.60583 19.9391L3.08184 24.8986H3.69144C4.06397 24.8986 4.19944 24.7974 4.30103 24.4937L5.28316 21.2211L5.75729 22.8743H5.31703L4.5381 23.8864H6.02822L6.26529 24.5275C6.36689 24.8311 6.50235 24.9323 6.87488 24.9323H7.48448L5.96049 19.9728H4.60583V19.9391Z" fill="#0A6D99"/>
<path fillRule="evenodd" clipRule="evenodd" d="M18.9652 19.9391H17.6444L16.1204 24.8986H16.73C17.1025 24.8986 17.238 24.7974 17.3396 24.4937L18.3217 21.2211L18.7959 22.8743H18.3556L17.5767 23.8864H19.0668L19.3039 24.5275C19.4055 24.8311 19.5409 24.9323 19.9135 24.9323H20.523L18.9652 19.9391Z" fill="#0A6D99"/>
<path fillRule="evenodd" clipRule="evenodd" d="M1.25306 20.9849H2.13358C2.23518 20.9849 2.30292 21.0524 2.30292 21.1536V21.4235H3.38664V20.4789C3.38664 20.1415 3.21731 19.9728 2.87865 19.9728H0V24.9323H1.25306V23.8864H1.69332L2.50611 22.8405H1.25306V20.9849Z" fill="#0A6D99"/>
<path fillRule="evenodd" clipRule="evenodd" d="M10.1599 23.8189C9.41486 23.8189 8.83914 23.1779 8.83914 22.3682C8.83914 21.4573 9.41486 21.0187 10.1599 21.0187C10.4647 21.0187 10.9389 21.1199 10.9389 21.4235H12.0564V21.0187C12.0564 20.1077 10.7357 19.8716 10.1599 19.8716C8.6698 19.8716 7.58608 20.9512 7.58608 22.3682C7.58608 23.7852 8.63594 24.966 10.1938 24.966C11.5146 24.966 12.2596 24.0889 12.2596 24.0889L11.6162 23.2117C11.5823 23.2117 11.0405 23.8189 10.1599 23.8189Z" fill="#0A6D99"/>
<path d="M66.1069 24.865C66.2565 24.865 66.3778 24.7442 66.3778 24.5951C66.3778 24.446 66.2565 24.3252 66.1069 24.3252C65.9572 24.3252 65.8359 24.446 65.8359 24.5951C65.8359 24.7442 65.9572 24.865 66.1069 24.865Z" fill="#EE7B36"/>
<path fillRule="evenodd" clipRule="evenodd" d="M24.0114 19.9391H22.0811V24.8986H22.5891V22.6719H23.876V22.2333H22.5891V20.3777H23.8421C23.9437 20.3777 24.0114 20.4114 24.0114 20.5464V20.8838H24.4856V20.3777C24.4517 20.0741 24.3162 19.9391 24.0114 19.9391Z" fill="#EE7B36"/>
<path fillRule="evenodd" clipRule="evenodd" d="M44.7377 24.4938C43.6201 24.4938 42.7734 23.5491 42.7734 22.3683C42.7734 21.1874 43.6201 20.3102 44.7377 20.3102C45.3134 20.3102 46.1262 20.5801 46.1262 21.0187V21.2886H46.6003V20.9175C46.6003 20.1753 45.4489 19.8716 44.7377 19.8716C43.3492 19.8716 42.2993 20.9513 42.2993 22.402C42.2993 23.8527 43.3153 24.9998 44.7716 24.9998C45.9907 24.9998 46.6681 24.1901 46.6681 24.1901L46.3971 23.819C46.3633 23.819 45.7537 24.4938 44.7377 24.4938Z" fill="#EE7B36"/>
<path d="M26.1112 19.9391H25.637V24.8649H26.1112V19.9391Z" fill="#EE7B36"/>
<path d="M51.748 19.9391H51.2739V24.8649H51.748V19.9391Z" fill="#EE7B36"/>
<path fillRule="evenodd" clipRule="evenodd" d="M30.8525 20.3777V24.0889C30.7847 23.9877 27.9399 19.9728 27.9399 19.9728H27.4997V24.8649H27.5674C27.8722 24.8649 28.0077 24.7299 28.0077 24.4263V20.7151C28.0754 20.8163 30.9202 24.8311 30.9202 24.8311H31.3605V19.9391H31.3266C30.9541 19.9391 30.8525 20.0741 30.8525 20.3777Z" fill="#EE7B36"/>
<path fillRule="evenodd" clipRule="evenodd" d="M40.7415 20.3777V24.0889C40.6737 23.9877 37.8289 19.9728 37.8289 19.9728H37.3887V24.8649H37.4564C37.7612 24.8649 37.8967 24.7299 37.8967 24.4263V20.7151C37.9644 20.8163 40.8092 24.8311 40.8092 24.8311H41.2494V19.9391H41.2156C40.8769 19.9391 40.7415 20.0741 40.7415 20.3777Z" fill="#EE7B36"/>
<path fillRule="evenodd" clipRule="evenodd" d="M49.6483 19.9391H47.7179V24.8986H49.6822C49.987 24.8986 50.1224 24.7637 50.1224 24.46V23.954H49.6483V24.2913C49.6483 24.3925 49.5806 24.46 49.479 24.46H48.2259V22.6719H49.5129V22.2333H48.2259V20.3777H49.479C49.5806 20.3777 49.6483 20.4114 49.6483 20.5464V20.8838H50.1224V20.3777C50.0886 20.0741 49.9531 19.9391 49.6483 19.9391Z" fill="#EE7B36"/>
<path fillRule="evenodd" clipRule="evenodd" d="M34.1714 19.9391L32.5458 24.2913L32.3426 24.8649H32.4442C32.7828 24.8649 32.8844 24.7974 33.0199 24.46L34.4423 20.4452L35.289 22.8406H33.7988L33.4602 23.2792H35.4244L35.8647 24.46C36.0002 24.7974 36.1018 24.8649 36.4404 24.8649H36.542L34.7132 19.9391H34.1714Z" fill="#EE7B36"/>
<path fillRule="evenodd" clipRule="evenodd" d="M59.3003 19.9391H58.7923L57.1328 24.2913L56.9296 24.8649H57.0312C57.3699 24.8649 57.4715 24.7974 57.6069 24.46L59.0293 20.4452L59.876 22.8406H58.3859L58.0472 23.2792H60.0114L60.4517 24.46C60.5872 24.7974 60.6888 24.8649 61.0274 24.8649H61.129L59.3003 19.9391Z" fill="#EE7B36"/>
<path fillRule="evenodd" clipRule="evenodd" d="M55.9475 24.2913L55.2363 22.8743C55.1685 22.7394 55.0669 22.6719 55.0669 22.6719C55.5411 22.5707 56.0152 22.1321 56.0152 21.3561C56.0152 20.5127 55.4395 19.9391 54.5928 19.9391H52.9334V24.8986H53.4414V20.3777H54.559C55.1347 20.3777 55.5072 20.7488 55.5072 21.3561C55.5072 21.9634 55.1347 22.3683 54.559 22.3683H53.8139L53.4752 22.8069H54.288C54.559 22.8069 54.6606 22.8406 54.796 23.1105L55.5072 24.5275C55.6765 24.8649 55.7781 24.8986 56.1845 24.8986H56.2523C56.1845 24.7637 56.0829 24.5612 55.9813 24.3588C55.9475 24.3251 55.9475 24.2913 55.9475 24.2913Z" fill="#EE7B36"/>
<path fillRule="evenodd" clipRule="evenodd" d="M69.6634 19.9391H68.3426L66.8186 24.8986H67.4282C67.8007 24.8986 67.9362 24.7974 68.0378 24.4938L69.0199 21.2212L69.494 22.8743H69.0538L68.2748 23.8865H69.765L70.002 24.5275C70.1036 24.8311 70.2391 24.9324 70.6116 24.9324H71.2212L69.6634 19.9391Z" fill="#EE7B36"/>
<path d="M63.0594 23.2792C63.0594 23.2792 63.6013 23.7853 64.2447 23.7853C64.4818 23.7853 64.7527 23.684 64.7527 23.3804C64.7527 22.8069 62.5514 22.8069 62.5514 21.3224C62.5514 20.4114 63.2965 19.8379 64.2786 19.8379C65.3285 19.8379 65.8703 20.3777 65.8703 20.3777L65.3623 21.3561C65.3623 21.3561 64.8543 20.9175 64.2786 20.9175C64.0415 20.9175 63.7706 21.0187 63.7706 21.2886C63.7706 21.8959 65.9719 21.7947 65.9719 23.3467C65.9719 24.1564 65.3623 24.8649 64.2447 24.8649C63.1271 24.8649 62.4498 24.1564 62.4498 24.1564L63.0594 23.2792Z" fill="#EE7B36"/>
<path d="M71.7292 24.8649C71.8789 24.8649 72.0002 24.744 72.0002 24.595C72.0002 24.4459 71.8789 24.3251 71.7292 24.3251C71.5796 24.3251 71.4583 24.4459 71.4583 24.595C71.4583 24.744 71.5796 24.8649 71.7292 24.8649Z" fill="#EE7B36"/>
<path fillRule="evenodd" clipRule="evenodd" d="M33.4938 14.1024C34.2389 13.1914 34.6114 10.796 34.9839 8.5693C35.0855 7.8608 35.221 7.18604 35.3226 6.54501H33.2229L33.9002 5.83651H35.4581C35.5258 5.49913 35.5935 5.19548 35.6951 4.95932C36.2709 3.10372 37.6594 1.48428 39.4882 0.775781C37.8287 -0.000197622 35.9322 -0.202627 34.1373 0.202232C32.3424 0.60709 30.7506 1.61924 29.5653 3.03624C28.4139 4.45324 27.7365 6.20763 27.7027 8.06323C27.6688 9.88509 28.2107 11.707 29.2944 13.1914C30.2426 14.4397 32.3085 15.6206 33.4938 14.1024Z" fill="url(#paint0_linear_4571_130201)"/>
<path fillRule="evenodd" clipRule="evenodd" d="M42.4003 3.03648C41.5198 1.9906 39.7249 1.14715 38.6412 2.36172C38.0316 3.03648 37.7268 4.35227 37.4558 5.87049H41.1134L40.3345 6.74769C40.3345 6.74769 39.0814 6.61273 37.3542 6.61273H35.9996L37.2526 7.25376C36.8124 9.8516 36.3044 12.7193 34.6449 14.5075C34.3063 14.8786 33.9337 15.1822 33.5273 15.4521C33.2564 15.6208 32.9855 15.7558 32.6807 15.8907C34.374 16.633 36.3044 16.8017 38.0993 16.3293C39.8942 15.857 41.5198 14.8111 42.6374 13.3266C43.755 11.8422 44.3646 10.0203 44.3307 8.16469C44.263 6.24161 43.5856 4.45349 42.4003 3.03648Z" fill="url(#paint1_linear_4571_130201)"/>
</g>
<defs>
<linearGradient id="paint0_linear_4571_130201" x1="29.0065" y1="13.5491" x2="35.9874" y2="-0.854365" gradientUnits="userSpaceOnUse">
<stop stop-color="#EE7B36"/>
<stop offset="0.51" stop-color="#E9AC48"/>
<stop offset="1" stop-color="#EE7B36"/>
</linearGradient>
<linearGradient id="paint1_linear_4571_130201" x1="42.3495" y1="2.91503" x2="36.7272" y2="16.7963" gradientUnits="userSpaceOnUse">
<stop stop-color="#2F7BA5"/>
<stop offset="1" stop-color="#0A6D99"/>
</linearGradient>
<clipPath id="clip0_4571_130201">
<rect width="72" height="25" fill="white"/>
</clipPath>
</defs>
</svg>