<svg xmlns="http://www.w3.org/2000/svg" width="72" height="38" viewBox="0 0 72 38" fill="none">
<g clip-path="url(#clip0_5857_154795)">
<path d="M1.38172 37.6833C1.09183 37.6833 0.843933 37.6318 0.63803 37.5289C0.432126 37.4259 0.273635 37.2837 0.162555 37.1022C0.0541851 36.918 0 36.7066 0 36.4682C0 36.2271 0.0406388 36.0036 0.121917 35.7977C0.205903 35.5891 0.325111 35.4075 0.479538 35.2531C0.633966 35.0987 0.818195 34.9781 1.03223 34.8914C1.24626 34.802 1.48603 34.7573 1.75153 34.7573C1.99808 34.7573 2.21482 34.798 2.40176 34.8792C2.58869 34.9605 2.73228 35.0784 2.83253 35.2328L2.45052 35.5538C2.37195 35.4455 2.27171 35.3628 2.14979 35.3059C2.02788 35.2491 1.88293 35.2206 1.71496 35.2206C1.53344 35.2206 1.36953 35.2518 1.22323 35.3141C1.07693 35.3764 0.952303 35.4644 0.849352 35.5782C0.7464 35.6893 0.667832 35.8194 0.613647 35.9684C0.559461 36.1147 0.532369 36.2704 0.532369 36.4357C0.532369 36.5901 0.566234 36.727 0.633966 36.8462C0.701697 36.9654 0.80194 37.0575 0.934693 37.1225C1.06745 37.1875 1.23 37.22 1.42236 37.22C1.58221 37.22 1.72986 37.1929 1.86532 37.1388C2.00349 37.0846 2.12541 37.0019 2.23107 36.8909L2.53993 37.2241C2.40176 37.3812 2.23243 37.4977 2.03194 37.5736C1.83417 37.6467 1.61743 37.6833 1.38172 37.6833Z" fill="#009CDF"/>
<path d="M4.25454 37.6833C3.96736 37.6833 3.72217 37.6318 3.51897 37.5289C3.31578 37.4259 3.16 37.2837 3.05163 37.1022C2.94597 36.918 2.89314 36.7066 2.89314 36.4682C2.89314 36.2271 2.93377 36.0036 3.01505 35.7977C3.09633 35.5891 3.21418 35.4075 3.36861 35.2531C3.52304 35.0987 3.70727 34.9781 3.9213 34.8914C4.13533 34.802 4.37374 34.7573 4.63654 34.7573C4.92101 34.7573 5.16485 34.8088 5.36804 34.9118C5.57124 35.0147 5.72702 35.1583 5.83539 35.3425C5.94376 35.524 5.99794 35.734 5.99794 35.9724C5.99794 36.2135 5.95595 36.4384 5.87196 36.647C5.79069 36.8529 5.67283 37.0331 5.5184 37.1875C5.36398 37.342 5.17975 37.4639 4.96572 37.5533C4.75439 37.64 4.51733 37.6833 4.25454 37.6833ZM4.29924 37.22C4.47805 37.22 4.63925 37.1889 4.78284 37.1266C4.92643 37.0615 5.04835 36.9735 5.14859 36.8624C5.25154 36.7486 5.33011 36.6186 5.3843 36.4723C5.43848 36.3233 5.46557 36.1675 5.46557 36.0049C5.46557 35.8505 5.43171 35.7137 5.36398 35.5945C5.29625 35.4753 5.19736 35.3832 5.06731 35.3181C4.93727 35.2531 4.77742 35.2206 4.58778 35.2206C4.41167 35.2206 4.25047 35.2531 4.10417 35.3181C3.96058 35.3805 3.83731 35.4685 3.73436 35.5823C3.63412 35.6934 3.5569 35.8234 3.50272 35.9724C3.45124 36.1187 3.4255 36.2732 3.4255 36.4357C3.4255 36.5901 3.45802 36.727 3.52304 36.8462C3.59077 36.9654 3.68966 37.0575 3.8197 37.1225C3.94975 37.1875 4.10959 37.22 4.29924 37.22Z" fill="#009CDF"/>
<path d="M6.25314 37.6427L6.82209 34.798H7.92746C8.27154 34.798 8.53705 34.8738 8.72398 35.0255C8.91363 35.1745 9.00846 35.3845 9.00846 35.6554C9.00846 35.8939 8.95292 36.0998 8.84184 36.2732C8.73347 36.4438 8.57768 36.5766 8.37449 36.6714C8.1713 36.7635 7.93017 36.8096 7.65112 36.8096H6.72455L6.99683 36.5698L6.78551 37.6427H6.25314ZM8.12253 37.6427L7.54139 36.6105H8.10221L8.68335 37.6427H8.12253ZM6.98464 36.6308L6.80583 36.3748H7.66737C7.92475 36.3748 8.12388 36.3179 8.26476 36.2041C8.40565 36.0903 8.47609 35.9237 8.47609 35.7042C8.47609 35.5498 8.42326 35.4346 8.3176 35.3588C8.21464 35.2829 8.06563 35.245 7.87057 35.245H7.04154L7.31788 34.9808L6.98464 36.6308Z" fill="#009CDF"/>
<path d="M9.22565 37.6427L9.7946 34.798H10.9C11.244 34.798 11.5096 34.8738 11.6965 35.0255C11.8861 35.1745 11.981 35.3845 11.981 35.6554C11.981 35.8939 11.9254 36.0998 11.8143 36.2732C11.706 36.4438 11.5502 36.5766 11.347 36.6714C11.1438 36.7635 10.9027 36.8096 10.6236 36.8096H9.69706L9.96934 36.5698L9.75802 37.6427H9.22565ZM11.095 37.6427L10.5139 36.6105H11.0747L11.6559 37.6427H11.095ZM9.95715 36.6308L9.77834 36.3748H10.6399C10.8973 36.3748 11.0964 36.3179 11.2373 36.2041C11.3782 36.0903 11.4486 35.9237 11.4486 35.7042C11.4486 35.5498 11.3958 35.4346 11.2901 35.3588C11.1872 35.2829 11.0381 35.245 10.8431 35.245H10.014L10.2904 34.9808L9.95715 36.6308Z" fill="#009CDF"/>
<path d="M13.015 35.9806H14.4333L14.348 36.4154H12.9297L13.015 35.9806ZM12.8118 37.1997H14.4211L14.3317 37.6427H12.1982L12.7671 34.798H14.8437L14.7543 35.2409H13.2019L12.8118 37.1997Z" fill="#009CDF"/>
<path d="M15.8513 37.6833C15.7023 37.6833 15.5573 37.6684 15.4164 37.6386C15.2783 37.6088 15.1509 37.5695 15.0344 37.5208C14.9206 37.4693 14.8258 37.4124 14.75 37.3501L14.9735 36.9356C15.052 37.0006 15.1414 37.0561 15.2417 37.1022C15.3419 37.1482 15.4476 37.1835 15.5587 37.2078C15.6725 37.2322 15.7863 37.2444 15.9 37.2444C16.0382 37.2444 16.1588 37.2282 16.2617 37.1957C16.3647 37.1631 16.4432 37.1171 16.4974 37.0575C16.5543 36.9979 16.5828 36.9261 16.5828 36.8421C16.5828 36.7662 16.557 36.7053 16.5056 36.6592C16.4541 36.6105 16.385 36.5712 16.2983 36.5414C16.2143 36.5089 16.1208 36.4791 16.0179 36.452C15.9177 36.4222 15.8161 36.3897 15.7131 36.3544C15.6102 36.3165 15.5167 36.2704 15.4327 36.2163C15.3487 36.1594 15.2796 36.0876 15.2254 36.0009C15.174 35.9142 15.1482 35.8058 15.1482 35.6758C15.1482 35.4888 15.1997 35.3276 15.3027 35.1922C15.4083 35.054 15.5533 34.947 15.7375 34.8711C15.9244 34.7953 16.1412 34.7573 16.3877 34.7573C16.5719 34.7573 16.7467 34.7776 16.9119 34.8183C17.0772 34.8589 17.2194 34.9185 17.3387 34.9971L17.1314 35.4157C17.0257 35.3452 16.9065 35.291 16.7738 35.2531C16.641 35.2152 16.5029 35.1962 16.3593 35.1962C16.2184 35.1962 16.0965 35.2138 15.9935 35.2491C15.8906 35.2843 15.812 35.333 15.7578 35.3954C15.7036 35.4577 15.6752 35.5308 15.6725 35.6148C15.6725 35.6934 15.6982 35.757 15.7497 35.8058C15.8012 35.8519 15.8689 35.8911 15.9529 35.9237C16.0369 35.9562 16.1303 35.9873 16.2333 36.0171C16.3362 36.0442 16.4378 36.0754 16.5381 36.1106C16.641 36.1458 16.7358 36.1905 16.8225 36.2447C16.9092 36.2989 16.9783 36.368 17.0298 36.452C17.0813 36.5332 17.107 36.6362 17.107 36.7608C17.107 36.9478 17.0542 37.1103 16.9485 37.2485C16.8456 37.3867 16.6993 37.4937 16.5096 37.5695C16.3227 37.6454 16.1032 37.6833 15.8513 37.6833Z" fill="#009CDF"/>
<path d="M17.4764 37.6427L18.0454 34.798H19.1426C19.4867 34.798 19.7522 34.8738 19.9392 35.0255C20.1288 35.1773 20.2236 35.3872 20.2236 35.6554C20.2236 35.8966 20.1681 36.1052 20.057 36.2813C19.9486 36.4547 19.7929 36.5888 19.5897 36.6836C19.3865 36.7757 19.1453 36.8218 18.8663 36.8218H17.9397L18.2201 36.5698L18.0048 37.6427H17.4764ZM18.2079 36.6308L18.021 36.3748H18.8866C19.1413 36.3748 19.3391 36.3179 19.4799 36.2041C19.6208 36.0903 19.6913 35.9237 19.6913 35.7042C19.6913 35.5498 19.6384 35.4346 19.5328 35.3588C19.4298 35.2829 19.2808 35.245 19.0857 35.245H18.2608L18.5371 34.9808L18.2079 36.6308Z" fill="#009CDF"/>
<path d="M21.8475 37.6833C21.5603 37.6833 21.3151 37.6318 21.1119 37.5289C20.9087 37.4259 20.753 37.2837 20.6446 37.1022C20.5389 36.918 20.4861 36.7066 20.4861 36.4682C20.4861 36.2271 20.5267 36.0036 20.608 35.7977C20.6893 35.5891 20.8071 35.4075 20.9616 35.2531C21.116 35.0987 21.3002 34.9781 21.5143 34.8914C21.7283 34.802 21.9667 34.7573 22.2295 34.7573C22.514 34.7573 22.7578 34.8088 22.961 34.9118C23.1642 35.0147 23.32 35.1583 23.4284 35.3425C23.5367 35.524 23.5909 35.734 23.5909 35.9724C23.5909 36.2135 23.5489 36.4384 23.4649 36.647C23.3836 36.8529 23.2658 37.0331 23.1114 37.1875C22.9569 37.342 22.7727 37.4639 22.5587 37.5533C22.3474 37.64 22.1103 37.6833 21.8475 37.6833ZM21.8922 37.22C22.071 37.22 22.2322 37.1889 22.3758 37.1266C22.5194 37.0615 22.6413 36.9735 22.7416 36.8624C22.8445 36.7486 22.9231 36.6186 22.9773 36.4723C23.0314 36.3233 23.0585 36.1675 23.0585 36.0049C23.0585 35.8505 23.0247 35.7137 22.9569 35.5945C22.8892 35.4753 22.7903 35.3832 22.6603 35.3181C22.5302 35.2531 22.3704 35.2206 22.1807 35.2206C22.0046 35.2206 21.8434 35.2531 21.6971 35.3181C21.5535 35.3805 21.4303 35.4685 21.3273 35.5823C21.2271 35.6934 21.1499 35.8234 21.0957 35.9724C21.0442 36.1187 21.0185 36.2732 21.0185 36.4357C21.0185 36.5901 21.051 36.727 21.116 36.8462C21.1837 36.9654 21.2826 37.0575 21.4127 37.1225C21.5427 37.1875 21.7026 37.22 21.8922 37.22Z" fill="#009CDF"/>
<path d="M23.8461 37.6427L24.4151 34.798H24.8499L26.1463 37.0047L25.9796 36.9843L26.4145 34.798H26.9387L26.3698 37.6427H25.9349L24.6426 35.436L24.8092 35.4563L24.3703 37.6427H23.8461Z" fill="#009CDF"/>
<path d="M27.1361 37.6427L27.7051 34.798H28.8551C29.145 34.798 29.3929 34.8467 29.5988 34.9443C29.8047 35.0391 29.9619 35.1745 30.0702 35.3507C30.1813 35.5268 30.2369 35.734 30.2369 35.9724C30.2369 36.2244 30.1935 36.4533 30.1068 36.6592C30.0228 36.8651 29.9023 37.0412 29.7451 37.1875C29.5907 37.3311 29.4051 37.4436 29.1884 37.5248C28.9716 37.6034 28.7305 37.6427 28.465 37.6427H27.1361ZM27.7538 37.1957H28.4813C28.7359 37.1957 28.954 37.1442 29.1355 37.0412C29.3198 36.9356 29.4606 36.7933 29.5582 36.6145C29.6557 36.4357 29.7045 36.2325 29.7045 36.0049C29.7045 35.8505 29.6706 35.7164 29.6029 35.6026C29.5352 35.4888 29.4336 35.4008 29.2981 35.3385C29.1653 35.2761 28.9987 35.245 28.7982 35.245H28.144L27.7538 37.1957Z" fill="#009CDF"/>
<path d="M31.3104 35.9806H32.7287L32.6434 36.4154H31.2251L31.3104 35.9806ZM31.1072 37.1997H32.7165L32.6271 37.6427H30.4936L31.0625 34.798H33.1392L33.0498 35.2409H31.4974L31.1072 37.1997Z" fill="#009CDF"/>
<path d="M33.2161 37.6427L33.785 34.798H34.2198L35.5162 37.0047L35.3496 36.9843L35.7844 34.798H36.3087L35.7397 37.6427H35.3049L34.0126 35.436L34.1792 35.4563L33.7403 37.6427H33.2161Z" fill="#009CDF"/>
<path d="M37.0831 37.6427L37.5627 35.245H36.6198L36.7093 34.798H39.1191L39.0297 35.245H38.0869L37.6114 37.6427H37.0831Z" fill="#009CDF"/>
<path d="M39.7676 35.9806H41.1859L41.1005 36.4154H39.6822L39.7676 35.9806ZM39.5644 37.1997H41.1737L41.0843 37.6427H38.9507L39.5197 34.798H41.5963L41.5069 35.2409H39.9545L39.5644 37.1997Z" fill="#009CDF"/>
<path d="M42.394 37.6427L44.2431 34.798H44.7673L45.4744 37.6427H44.9502L44.3569 35.0702H44.5682L42.9589 37.6427H42.394ZM43.1174 36.9843L43.3409 36.5698H44.873L44.9421 36.9843H43.1174Z" fill="#009CDF"/>
<path d="M47.0812 37.6833C46.813 37.6833 46.5895 37.6305 46.4107 37.5248C46.2319 37.4192 46.1059 37.2715 46.0327 37.0819C45.9623 36.8895 45.9528 36.6633 46.0043 36.4032L46.3253 34.798H46.8536L46.5326 36.3951C46.5082 36.5332 46.5014 36.6552 46.5123 36.7608C46.5258 36.8638 46.5583 36.9505 46.6098 37.0209C46.664 37.0886 46.7344 37.1388 46.8211 37.1713C46.9105 37.2038 47.0148 37.22 47.134 37.22C47.2858 37.22 47.4158 37.1916 47.5242 37.1347C47.6352 37.0778 47.7274 36.9884 47.8005 36.8665C47.8764 36.7419 47.9346 36.5834 47.9753 36.391L48.2922 34.798H48.8124L48.4873 36.4276C48.4033 36.8448 48.2435 37.1591 48.0078 37.3704C47.7721 37.579 47.4632 37.6833 47.0812 37.6833Z" fill="#009CDF"/>
<path d="M49.5129 37.6427L49.9924 35.245H49.0496L49.139 34.798H51.5489L51.4595 35.245H50.5167L50.0412 37.6427H49.5129Z" fill="#009CDF"/>
<path d="M52.7632 37.6833C52.476 37.6833 52.2308 37.6318 52.0276 37.5289C51.8244 37.4259 51.6686 37.2837 51.5603 37.1022C51.4546 36.918 51.4018 36.7066 51.4018 36.4682C51.4018 36.2271 51.4424 36.0036 51.5237 35.7977C51.605 35.5891 51.7228 35.4075 51.8773 35.2531C52.0317 35.0987 52.2159 34.9781 52.4299 34.8914C52.644 34.802 52.8824 34.7573 53.1452 34.7573C53.4297 34.7573 53.6735 34.8088 53.8767 34.9118C54.0799 35.0147 54.2357 35.1583 54.344 35.3425C54.4524 35.524 54.5066 35.734 54.5066 35.9724C54.5066 36.2135 54.4646 36.4384 54.3806 36.647C54.2993 36.8529 54.1815 37.0331 54.027 37.1875C53.8726 37.342 53.6884 37.4639 53.4744 37.5533C53.263 37.64 53.026 37.6833 52.7632 37.6833ZM52.8079 37.22C52.9867 37.22 53.1479 37.1889 53.2915 37.1266C53.4351 37.0615 53.557 36.9735 53.6572 36.8624C53.7602 36.7486 53.8388 36.6186 53.8929 36.4723C53.9471 36.3233 53.9742 36.1675 53.9742 36.0049C53.9742 35.8505 53.9404 35.7137 53.8726 35.5945C53.8049 35.4753 53.706 35.3832 53.576 35.3181C53.4459 35.2531 53.2861 35.2206 53.0964 35.2206C52.9203 35.2206 52.7591 35.2531 52.6128 35.3181C52.4692 35.3805 52.346 35.4685 52.243 35.5823C52.1428 35.6934 52.0655 35.8234 52.0114 35.9724C51.9599 36.1187 51.9341 36.2732 51.9341 36.4357C51.9341 36.5901 51.9667 36.727 52.0317 36.8462C52.0994 36.9654 52.1983 37.0575 52.3283 37.1225C52.4584 37.1875 52.6182 37.22 52.8079 37.22Z" fill="#009CDF"/>
<path d="M54.7618 37.6427L55.3307 34.798H56.4361C56.7802 34.798 57.0457 34.8738 57.2326 35.0255C57.4223 35.1745 57.5171 35.3845 57.5171 35.6554C57.5171 35.8939 57.4616 36.0998 57.3505 36.2732C57.2421 36.4438 57.0863 36.5766 56.8831 36.6714C56.6799 36.7635 56.4388 36.8096 56.1598 36.8096H55.2332L55.5055 36.5698L55.2942 37.6427H54.7618ZM56.6312 37.6427L56.05 36.6105H56.6109L57.192 37.6427H56.6312ZM55.4933 36.6308L55.3145 36.3748H56.176C56.4334 36.3748 56.6325 36.3179 56.7734 36.2041C56.9143 36.0903 56.9847 35.9237 56.9847 35.7042C56.9847 35.5498 56.9319 35.4346 56.8262 35.3588C56.7233 35.2829 56.5743 35.245 56.3792 35.245H55.5502L55.8265 34.9808L55.4933 36.6308Z" fill="#009CDF"/>
<path d="M57.7343 37.6427L58.3032 34.798H58.8315L58.2626 37.6427H57.7343Z" fill="#009CDF"/>
<path d="M58.8085 37.6427L58.8776 37.2891L61.1453 35.0459L61.19 35.245H59.3287L59.4222 34.798H61.763L61.6898 35.1515L59.4262 37.3948L59.3775 37.1957H61.3281L61.2387 37.6427H58.8085Z" fill="#009CDF"/>
<path d="M61.3244 37.6427L63.1735 34.798H63.6977L64.4048 37.6427H63.8806L63.2873 35.0702H63.4986L61.8893 37.6427H61.3244ZM62.0478 36.9843L62.2713 36.5698H63.8034L63.8725 36.9843H62.0478Z" fill="#009CDF"/>
<path d="M64.7707 37.6427L65.3396 34.798H66.4897C66.7796 34.798 67.0275 34.8467 67.2334 34.9443C67.4393 35.0391 67.5964 35.1745 67.7048 35.3507C67.8159 35.5268 67.8714 35.734 67.8714 35.9724C67.8714 36.2244 67.8281 36.4533 67.7414 36.6592C67.6574 36.8651 67.5368 37.0412 67.3797 37.1875C67.2253 37.3311 67.0397 37.4436 66.823 37.5248C66.6062 37.6034 66.3651 37.6427 66.0996 37.6427H64.7707ZM65.3884 37.1957H66.1158C66.3705 37.1957 66.5886 37.1442 66.7701 37.0412C66.9544 36.9356 67.0952 36.7933 67.1928 36.6145C67.2903 36.4357 67.3391 36.2325 67.3391 36.0049C67.3391 35.8505 67.3052 35.7164 67.2375 35.6026C67.1697 35.4888 67.0681 35.4008 66.9327 35.3385C66.7999 35.2761 66.6333 35.245 66.4328 35.245H65.7785L65.3884 37.1957Z" fill="#009CDF"/>
<path d="M69.5505 37.6833C69.2633 37.6833 69.0181 37.6318 68.815 37.5289C68.6118 37.4259 68.456 37.2837 68.3476 37.1022C68.2419 36.918 68.1891 36.7066 68.1891 36.4682C68.1891 36.2271 68.2298 36.0036 68.311 35.7977C68.3923 35.5891 68.5102 35.4075 68.6646 35.2531C68.819 35.0987 69.0032 34.9781 69.2173 34.8914C69.4313 34.802 69.6697 34.7573 69.9325 34.7573C70.217 34.7573 70.4608 34.8088 70.664 34.9118C70.8672 35.0147 71.023 35.1583 71.1314 35.3425C71.2397 35.524 71.2939 35.734 71.2939 35.9724C71.2939 36.2135 71.2519 36.4384 71.1679 36.647C71.0867 36.8529 70.9688 37.0331 70.8144 37.1875C70.66 37.342 70.4757 37.4639 70.2617 37.5533C70.0504 37.64 69.8133 37.6833 69.5505 37.6833ZM69.5952 37.22C69.774 37.22 69.9352 37.1889 70.0788 37.1266C70.2224 37.0615 70.3443 36.9735 70.4446 36.8624C70.5475 36.7486 70.6261 36.6186 70.6803 36.4723C70.7345 36.3233 70.7615 36.1675 70.7615 36.0049C70.7615 35.8505 70.7277 35.7137 70.66 35.5945C70.5922 35.4753 70.4933 35.3832 70.3633 35.3181C70.2332 35.2531 70.0734 35.2206 69.8838 35.2206C69.7076 35.2206 69.5464 35.2531 69.4001 35.3181C69.2566 35.3805 69.1333 35.4685 69.0303 35.5823C68.9301 35.6934 68.8529 35.8234 68.7987 35.9724C68.7472 36.1187 68.7215 36.2732 68.7215 36.4357C68.7215 36.5901 68.754 36.727 68.819 36.8462C68.8867 36.9654 68.9856 37.0575 69.1157 37.1225C69.2457 37.1875 69.4056 37.22 69.5952 37.22Z" fill="#009CDF"/>
<path d="M4.48431 3.96093L8.26285 3.95609L8.02628 5.14734L4.24774 5.15217L4.48431 3.96093ZM3.78614 8.05434L2.37866 8.05614L3.8841 0.475474L9.41657 0.468392L9.17999 1.64881L5.055 1.65409L3.78614 8.05434Z" fill="#013B79"/>
<path d="M9.27226 8.04732L10.7777 0.46665L12.1852 0.464849L10.6797 8.04552L9.27226 8.04732Z" fill="#013B79"/>
<path d="M12.7296 8.04289L14.2351 0.462225L15.3935 0.460742L18.8553 6.33525L18.4113 6.28168L19.5618 0.455407L20.9585 0.453619L19.453 8.03429L18.2946 8.03577L14.8437 2.16125L15.2877 2.21482L14.1263 8.04111L12.7296 8.04289Z" fill="#013B79"/>
<path d="M20.4228 8.03305L25.3387 0.448013L26.7353 0.446225L28.6295 8.02254L27.2328 8.02433L25.6428 1.17302L26.2058 1.1723L21.9277 8.03112L20.4228 8.03305ZM22.3476 6.27665L22.9416 5.17156L27.0232 5.16633L27.2088 6.27042L22.3476 6.27665Z" fill="#013B79"/>
<path d="M29.6041 8.02129L31.1096 0.440626L32.268 0.439143L35.7298 6.31365L35.2858 6.26009L36.4364 0.433808L37.833 0.432021L36.3276 8.01269L35.1691 8.01417L31.7182 2.13965L32.1622 2.19322L31.0008 8.01951L29.6041 8.02129Z" fill="#013B79"/>
<path d="M42.2128 8.11342C41.4405 8.11441 40.7799 7.97812 40.231 7.70454C39.682 7.43097 39.2593 7.05257 38.9627 6.56936C38.6733 6.07891 38.5282 5.51611 38.5273 4.88094C38.5264 4.23855 38.6339 3.64294 38.8497 3.09411C39.0727 2.53805 39.3896 2.05404 39.8005 1.6421C40.2113 1.23016 40.7017 0.908336 41.2716 0.676635C41.8415 0.437717 42.4801 0.317805 43.1874 0.316899C43.8443 0.316059 44.4218 0.423587 44.9202 0.639485C45.4185 0.855383 45.8015 1.16887 46.0691 1.57994L45.0525 2.43656C44.8428 2.14811 44.5755 1.92831 44.2505 1.77715C43.9254 1.62599 43.5392 1.5507 43.0917 1.55127C42.6081 1.55189 42.1715 1.63546 41.782 1.80197C41.3924 1.96848 41.0607 2.20348 40.7869 2.50698C40.513 2.80326 40.3042 3.14999 40.1603 3.54715C40.0165 3.9371 39.9449 4.35222 39.9455 4.79251C39.9461 5.20392 40.0368 5.56831 40.2177 5.88566C40.3985 6.20302 40.6659 6.44808 41.0198 6.62086C41.3738 6.79363 41.8069 6.87969 42.3194 6.87904C42.7453 6.87849 43.1385 6.80581 43.4992 6.66099C43.8671 6.51616 44.1916 6.2956 44.4727 5.99931L45.2968 6.88605C44.9292 7.30516 44.4785 7.6161 43.9447 7.81888C43.4181 8.01444 42.8408 8.11262 42.2128 8.11342Z" fill="#013B79"/>
<path d="M48.4056 3.56908L52.1842 3.56424L51.9584 4.723L48.1799 4.72783L48.4056 3.56908ZM47.8687 6.8178L52.1561 6.81231L51.9195 7.99273L46.2355 8.00001L47.7409 0.419339L53.2734 0.412257L53.0368 1.59268L48.901 1.59797L47.8687 6.8178Z" fill="#013B79"/>
<path d="M53.4886 7.99072L54.994 0.410055L56.4015 0.408254L54.896 7.98892L53.4886 7.99072Z" fill="#013B79"/>
<path d="M56.9459 7.9863L58.4514 0.40563L61.3963 0.40186C62.3129 0.400687 63.0205 0.601881 63.5191 1.00544C64.0249 1.40178 64.2783 1.96084 64.2793 2.68262C64.2801 3.31779 64.1329 3.86653 63.8376 4.32885C63.5495 4.78395 63.135 5.13815 62.594 5.39147C62.053 5.63757 61.4108 5.76109 60.6673 5.76205L58.1988 5.76521L58.9233 5.1255L58.3642 7.98448L56.9459 7.9863ZM61.9262 7.97992L60.3743 5.23191L61.8684 5.23L63.4203 7.97801L61.9262 7.97992ZM58.8911 5.28794L58.4138 4.60647L60.7091 4.60353C61.3947 4.60265 61.9251 4.4504 62.3 4.14677C62.6749 3.84314 62.8619 3.399 62.8612 2.81436C62.8606 2.40294 62.7194 2.09636 62.4377 1.89462C62.1631 1.69287 61.766 1.59233 61.2463 1.593L59.0376 1.59582L59.7729 0.891143L58.8911 5.28794Z" fill="#013B79"/>
<path d="M63.7933 7.97753L68.7091 0.3925L70.1058 0.390713L71.9999 7.96703L70.6033 7.96882L69.0133 1.11751L69.5763 1.11678L65.2982 7.97561L63.7933 7.97753ZM65.718 6.22113L66.312 5.11604L70.3937 5.11082L70.5793 6.21491L65.718 6.22113Z" fill="#013B79"/>
<path fillRule="evenodd" clipRule="evenodd" d="M37.2831 20.941C39.2647 19.8878 40.5119 17.9062 40.5119 15.6475C40.5119 14.331 40.0823 13.2224 39.2786 12.4187C38.3501 11.4625 37.2277 11.1022 35.149 11.1022H28.3035L28.2342 11.5318L25.5597 28.4656C25.3657 29.6989 25.532 31.8884 28.248 31.9022H32.9457C36.9505 31.9022 39.7497 29.1169 39.7497 25.126C39.7636 23.1859 38.8213 21.6616 37.2831 20.941ZM34.8303 28.1469C34.082 28.6596 33.597 28.812 31.7817 28.812H28.9963L29.9248 22.8395H32.8764C35.7311 22.8395 36.1191 24.1005 36.1191 25.3338C36.1191 26.5671 35.6479 27.5926 34.8303 28.1469ZM33.0566 19.583H30.4375L31.2967 14.1786H34.2483C35.9528 14.1786 36.2438 14.331 36.5071 14.6913C36.7288 15.01 36.8258 15.3565 36.8258 15.8969C36.8396 18.1002 35.3153 19.583 33.0566 19.583ZM50.6139 22.9503C53.5794 22.3822 55.8936 19.5137 55.8936 16.2156C55.8936 12.9176 53.8288 11.0884 50.0873 11.0884H43.6021L43.5328 11.518L40.789 29.1169C40.6643 30.0176 39.9853 31.8884 43.2556 31.8884H43.7961L43.8654 31.4588L45.1125 23.4076H47.011L51.0158 31.6112L51.1544 31.8884H55.1037L54.7296 31.1539L50.6139 22.9503ZM45.5975 20.3313L46.5814 14.1786H49.3529C51.9165 14.1786 52.3877 14.8715 52.3877 16.2156C52.3877 18.6684 50.7109 20.3313 48.2166 20.3313H45.5975ZM67.617 20.941C69.5986 19.8878 70.8458 17.9062 70.8458 15.6475C70.8458 14.331 70.4162 13.2224 69.6125 12.4187C68.684 11.4625 67.5616 11.1022 65.4829 11.1022H58.6374L58.5681 11.5318L55.9075 28.4379C55.7273 29.6712 55.852 31.8884 58.5958 31.9022H63.2935C67.2983 31.9022 70.0975 29.1169 70.0975 25.126C70.0975 23.1859 69.1552 21.6616 67.617 20.941ZM65.1642 28.1607C64.4159 28.6734 63.9309 28.8259 62.1156 28.8259H59.3164L60.2448 22.8533H63.1965C66.0511 22.8533 66.4391 24.1144 66.4391 25.3477C66.453 26.5671 65.9818 27.5926 65.1642 28.1607ZM63.3905 19.583H60.7714L61.6306 14.1786H64.5822C66.2867 14.1786 66.5777 14.331 66.841 14.6913C67.0627 15.01 67.1597 15.3565 67.1597 15.8969C67.1736 18.1002 65.6492 19.583 63.3905 19.583Z" fill="#173A78"/>
<path fillRule="evenodd" clipRule="evenodd" d="M2.99969 11.0884L2.69482 13.0146C6.96291 13.8737 10.7737 16.0355 13.6838 19.0425L18.0766 16.1602C18.0766 16.1602 18.5893 15.8138 18.8249 16.1048C18.8249 16.1048 19.0604 16.3265 18.617 16.7976L15.0141 20.5391C17.55 23.7125 19.199 27.6203 19.5732 31.8884H21.6241L24.8806 11.0884H2.99969Z" fill="#00ADEF"/>
<path fillRule="evenodd" clipRule="evenodd" d="M7.19851 25.9018L6.99065 25.6524L11.6883 20.3727C9.16627 17.8784 5.93749 16.0908 2.33456 15.3286L0.422233 27.5509C0.0896548 29.8373 0.505377 31.8605 4.33003 31.8605H17.2036C16.8433 28.2576 15.4714 24.9318 13.3651 22.2158L7.19851 25.9018Z" fill="#173A78"/>
</g>
<defs>
<clipPath id="clip0_5857_154795">
<rect width="72" height="38" fill="white"/>
</clipPath>
</defs>
</svg>