<svg xmlns="http://www.w3.org/2000/svg" width="64" height="65" viewBox="0 0 64 65" fill="none">
<path d="M0.000488281 32.8459C0.000488281 23.4963 0.922371 14.6732 2.23908 9.14242C2.89743 5.98195 4.74119 3.87512 8.29649 3.08501C14.0908 1.63606 22.6508 0.845947 32.0005 0.845947C41.3501 0.845947 49.9101 1.63606 55.704 3.08454C59.2598 3.87465 61.1031 5.98148 61.7614 9.14195C63.0781 14.6728 64 23.4958 64 32.8455C64 42.1951 63.0781 51.0182 61.7614 56.549C61.1031 59.7095 59.2593 61.8163 55.704 62.6064C49.9097 64.0549 41.3501 64.845 32.0005 64.845C22.6508 64.845 14.0908 64.0549 8.29696 62.6064C4.74119 61.8163 2.8979 59.7095 2.23955 56.549C0.922371 51.0187 0.000488281 42.1956 0.000488281 32.8459Z" fill="#000066"/>
<path d="M9.42114 33.3707C11.0588 33.3707 12.2014 32.2587 12.2014 30.6836C12.2014 29.1086 11.0588 27.9961 9.42114 27.9961C7.78349 27.9961 6.64185 29.1086 6.64185 30.6836C6.64185 32.2587 7.78443 33.3707 9.42114 33.3707ZM11.7689 51.0695V35.0389H7.07432V51.0695H11.7689ZM15.9077 38.6836V45.541C15.9077 49.4328 17.9468 51.3792 21.5604 51.3792C22.8578 51.3792 23.9388 51.2243 24.464 51.07V47.4869C24.1242 47.5796 23.5063 47.6719 22.7957 47.6719C21.2823 47.6719 20.6028 46.9307 20.6028 45.2319V38.6836H24.68V35.0389H20.6028V30.1895L15.9073 31.0229V35.0389H13.5604V38.6836H15.9073H15.9077ZM31.6607 51.4714C33.5449 51.4714 34.9044 50.6987 35.8616 49.4022L35.9233 51.07H40.3096V41.6493C40.3096 37.078 37.7458 34.638 33.1741 34.638C30.8273 34.638 28.8809 35.0083 26.9967 35.7189V39.4874C28.8503 38.7768 30.703 38.3439 32.4329 38.3439C34.5948 38.3439 35.8 39.3321 35.8 41.0624C35.4291 41.0314 34.8117 41.0008 34.224 41.0008C29.2818 41.0008 26.1623 43.0394 26.1623 46.5297C26.1623 49.5566 28.2936 51.4719 31.6602 51.4719L31.6607 51.4714ZM34.6569 43.9034C35.0277 43.9034 35.6146 43.9349 35.831 43.966V45.2319C35.831 46.9312 34.6875 48.1048 33.0508 48.1048C31.599 48.1048 30.703 47.4563 30.703 46.1589C30.703 44.6761 32.1237 43.9039 34.6569 43.9039V43.9034ZM48.0315 51.4714C49.9774 51.4714 51.3058 50.7608 52.3562 49.3401L52.4178 51.0695H56.9275V35.0389H52.2329V44.4907C52.2329 46.4366 51.2753 47.6719 49.7002 47.6719C48.1251 47.6719 47.3218 46.622 47.3218 44.6756V35.0389H42.6273V45.4483C42.6273 49.1236 44.7275 51.4714 48.032 51.4714H48.0315ZM53.9313 32.8766V28.7994L46.1171 30.1895V32.8766H53.9313Z" fill="white"/>
</svg>