<svg xmlns="http://www.w3.org/2000/svg" width="72" height="17" viewBox="0 0 72 17" fill="none">
<g clip-path="url(#clip0_4571_131070)">
<path d="M69.1775 12.7192C69.1775 12.7192 70.0889 12.8332 70.8861 12.3774C72.0004 11.6938 71.8545 10.4981 71.8545 10.4981C71.9087 9.02734 70.6871 8.3623 69.6617 8.3623H66.8994V16.5915H67.725V12.6908H68.1805L71.0565 16.5915H71.9997L69.1775 12.7192ZM67.7537 11.9502V9.13124H69.7754C69.7754 9.13124 71.0569 9.30196 71.0569 10.5407C71.0569 11.7795 69.8041 11.9502 69.8041 11.9502H67.7537Z" fill="#C7C6C6"/>
<path d="M64.2512 8.42871V9.15952H60.4926V11.7507H64.2512V12.5197H60.4926V15.7375H64.1945V16.5914H59.7236V8.42871H64.2512Z" fill="#C7C6C6"/>
<path d="M53.1455 8.30859H57.474V9.15974H55.6514V16.5916H54.9111V9.15974H53.1455V8.30859Z" fill="#C7C6C6"/>
<path d="M46.4531 14.9688L47.0797 14.5417C47.7286 15.6412 48.6242 16.1866 49.5856 15.6237C50.3545 14.9972 50.3517 14.0869 49.4432 13.2319L47.3644 11.3526C47.3644 11.3526 46.3961 10.2989 47.4498 8.93206C48.2471 8.04942 49.3008 8.36252 49.3008 8.36252C49.9403 8.55039 50.4199 9.03806 50.867 9.58695L50.2404 10.0995L49.3578 9.24516C48.9023 8.96039 48.4367 9.02056 47.9623 9.4729C47.6776 9.81469 47.6338 10.4199 47.934 10.8114C47.9976 11.0395 49.3291 12.0075 50.3545 13.0041C50.8855 13.5006 51.1591 14.1785 50.867 15.2536C50.5081 16.0022 49.9431 16.4154 49.2154 16.5634C47.8661 16.7544 47.1108 15.9442 46.4531 14.9688Z" fill="#C7C6C6"/>
<path d="M37.6829 16.478H38.5659L41.4989 10.1564L44.4032 16.478H45.2575L41.4702 8.36247L37.6829 16.478Z" fill="#C7C6C6"/>
<path d="M22.0977 16.4777H22.9614L25.8185 10.1751L28.7799 16.4777H29.6912L32.6525 10.1751L35.5761 16.4777H36.3734L32.6525 8.42871L29.2353 15.4905L25.8944 8.42871L22.0977 16.4777Z" fill="#C7C6C6"/>
<path d="M14.9324 0H2.41876C1.08292 0 0 1.08292 0 2.41876V14.0592C0 15.395 1.08292 16.478 2.41876 16.478H14.9324C16.2682 16.478 17.3511 15.395 17.3511 14.0592V2.41876C17.3511 1.08292 16.2682 0 14.9324 0Z" fill="url(#paint0_linear_4571_131070)"/>
<path d="M0.72168 13.3648H1.67078L4.93615 7.59356L8.12525 13.2889H9.1884L12.3778 5.84718L15.681 13.3648H16.5923L13.0611 5.1636H11.6943L8.657 12.4535L4.93615 5.61909L0.72168 13.3648Z" fill="#C7C6C6"/>
<path d="M11.8461 4.40446H12.9852L12.4156 3.34131L11.8461 4.40446Z" fill="#C7C6C6"/>
<path d="M38.3496 4.91994C38.3496 4.052 39.0398 3.35303 39.9169 3.35303C40.7939 3.35303 41.4838 4.052 41.4838 4.91994C41.4838 5.78788 40.7936 6.4872 39.9169 6.4872C39.0402 6.4872 38.3496 5.78823 38.3496 4.91994ZM41.2536 4.91994C41.2536 4.17339 40.6676 3.57447 39.9169 3.57447C39.1661 3.57447 38.5798 4.17339 38.5798 4.91994C38.5798 5.66649 39.1658 6.26541 39.9169 6.26541C40.668 6.26541 41.2536 5.66649 41.2536 4.91994Z" fill="#C7C6C6"/>
<path d="M34.0488 4.91994C34.0488 4.052 34.7044 3.35303 35.629 3.35303C36.1888 3.35303 36.6796 3.63954 36.9311 4.08243L36.7272 4.19963C36.5274 3.82635 36.1066 3.57447 35.629 3.57447C34.8304 3.57447 34.279 4.17339 34.279 4.91994C34.279 5.66649 34.8304 6.26541 35.629 6.26541C36.1108 6.26541 36.5362 6.00933 36.7359 5.62731L36.9399 5.7445C36.6925 6.19159 36.1975 6.48685 35.629 6.48685C34.7044 6.48685 34.0488 5.78823 34.0488 4.91994Z" fill="#C7C6C6"/>
<path d="M32.2527 3.40088V6.4392H32.0488L30.2562 3.82593V6.4392H30.0264V3.40088H30.2261L32.0232 6.01415V3.40088H32.2527Z" fill="#C7C6C6"/>
<path d="M27.7427 5.66664H26.2191L25.9239 6.43907H25.6807L26.8614 3.40075H27.1046L28.2807 6.43907H28.0376L27.7427 5.66664ZM27.6601 5.44939L26.9828 3.68272L26.3055 5.44939H27.6601Z" fill="#C7C6C6"/>
<path d="M24.3011 5.61009C24.3011 6.07012 23.932 6.4392 23.472 6.4392H22.1611V3.40088H23.3723C23.8152 3.40088 24.1709 3.76121 24.1709 4.19955C24.1709 4.49481 24.0146 4.7376 23.7802 4.86354C24.0842 4.98074 24.3011 5.26305 24.3011 5.61009ZM22.391 3.61778V4.78098H23.3719C23.6843 4.78098 23.9404 4.5207 23.9404 4.1992C23.9404 3.8777 23.6843 3.61743 23.3719 3.61743L22.391 3.61778ZM24.0709 5.61009C24.0709 5.27145 23.8019 4.99788 23.472 4.99788H22.3913V6.22195H23.472C23.8019 6.22195 24.0709 5.94873 24.0709 5.61009Z" fill="#C7C6C6"/>
</g>
<defs>
<linearGradient id="paint0_linear_4571_131070" x1="-2.42051" y1="8.0798" x2="21.3512" y2="8.42089" gradientUnits="userSpaceOnUse">
<stop offset="0.09" stop-color="#161C33"/>
<stop offset="0.89" stop-color="#0E447E"/>
</linearGradient>
<clipPath id="clip0_4571_131070">
<rect width="72" height="16.5916" fill="white"/>
</clipPath>
</defs>
</svg>