<svg xmlns="http://www.w3.org/2000/svg" width="73" height="58" viewBox="0 0 73 58" fill="none">
<path fillRule="evenodd" clipRule="evenodd" d="M12.1855 39.0498C10.6152 37.1235 9.85709 26.8661 12.7102 26.3716C16.0762 25.7876 15.3998 36.7781 13.8111 39.0774C13.4063 39.5824 12.6456 39.6312 12.1855 39.0498ZM10.1814 19.674C3.18974 21.4367 -0.14196 27.2774 0.951027 36.1189C1.86866 43.5443 8.18399 48.0692 16.0986 45.8068C30.3061 41.7447 28.0463 15.1689 10.1814 19.674Z" fill="#DA2120"/>
<path fillRule="evenodd" clipRule="evenodd" d="M63.7096 37.7654C61.0503 37.5294 55.9941 41.279 54.0771 36.8689C54.1694 36.8148 54.3171 36.6474 54.3711 36.7357L56.7865 36.1305C59.3416 35.6453 61.9996 34.7567 63.7821 32.9294C68.6076 27.9826 65.7743 17.2201 54.0837 19.538C41.5414 22.0245 40.6554 40.8255 49.75 45.0049C54.6875 47.274 66.0789 45.9938 65.7624 42.459C65.6715 41.4438 64.386 38.5156 63.7096 37.7654ZM53.3493 30.5575C61.2125 30.2279 57.3468 23.4986 54.4937 26.9173C53.6578 27.9193 53.4759 29.1969 53.3493 30.5575Z" fill="#DA2120"/>
<path fillRule="evenodd" clipRule="evenodd" d="M43.7562 44.0507C44.0252 41.8871 42.6026 39.2331 41.6705 37.9555C41.4978 37.7643 40.9691 37.7736 40.7898 37.8461C39.0837 38.5356 37.4554 39.4308 37.4501 36.6674L37.4027 12.4701C37.4027 12.0693 37.0572 10.9961 36.1884 10.8233C34.2134 10.7179 30.9291 10.6045 28.8711 10.8616C27.898 10.9815 27.4221 11.8952 27.4102 12.6019C27.4102 17.8308 27.3654 32.5077 27.3641 37.738C27.3641 39.3267 27.227 42.2879 30.5442 44.6861C34.0604 47.2294 43.4187 46.0586 43.7549 44.0507H43.7562Z" fill="#DA2120"/>
<path fillRule="evenodd" clipRule="evenodd" d="M56.8524 1.93842C57.0317 3.06964 57.9005 4.35512 58.3343 6.95244C57.9216 8.66114 50.5608 14.3555 51.2833 17.198C54.8562 15.111 59.7371 13.045 61.8862 13.9692C62.9356 15.5909 63.4657 17.7702 64.0748 17.5145C64.8355 16.0075 65.8217 13.8611 66.9002 12.6824C68.2951 11.1569 70.8305 11.5749 72.7475 10.9671C72.0948 8.4436 70.373 7.92413 69.9379 6.51077C69.276 4.35775 70.7448 2.00829 70.6103 0.0622753C69.516 -0.417637 66.6286 2.01884 64.7037 2.49084C62.3542 2.21001 59.8479 1.38072 56.851 1.94105L56.8524 1.93842Z" fill="#164887"/>
<path d="M21.7908 55.8572C21.4348 56.0708 21.0142 56.1776 20.5251 56.1776C19.8659 56.1776 19.3332 55.9627 18.9271 55.5342C18.5211 55.1057 18.3193 54.548 18.3193 53.865C18.3193 53.103 18.5382 52.4912 18.9746 52.0285C19.411 51.5657 19.9938 51.335 20.7229 51.335C21.1289 51.335 21.4875 51.4101 21.7987 51.5604V52.3198C21.4559 52.0786 21.0881 51.9586 20.6965 51.9586C20.2232 51.9586 19.8355 52.1287 19.5323 52.4675C19.2291 52.8063 19.0788 53.252 19.0788 53.8031C19.0788 54.3542 19.2211 54.7734 19.5059 55.0859C19.7907 55.3997 20.1731 55.5553 20.6517 55.5553C21.0551 55.5553 21.4348 55.4208 21.7908 55.1532V55.8585V55.8572Z" fill="#DA2120"/>
<path d="M32.2674 56.0695H31.5264V53.4313C31.5264 52.449 31.1678 51.9586 30.4506 51.9586C30.0801 51.9586 29.7729 52.0983 29.5316 52.3765C29.2903 52.6547 29.1677 53.0067 29.1677 53.4313V56.0695H28.4268V51.4431H29.1677V52.2117H29.1862C29.5356 51.6277 30.0418 51.335 30.7037 51.335C31.21 51.335 31.5963 51.4984 31.8652 51.8254C32.1329 52.1524 32.2674 52.6244 32.2674 53.2427V56.0708V56.0695Z" fill="#DA2120"/>
<path d="M33.5042 55.9022V55.1072C33.9077 55.4052 34.6196 55.479 35.1035 55.5172C36.0436 55.5924 36.7476 54.8303 35.8985 54.2805C35.1879 53.8217 33.9697 53.9852 33.6255 53.0939C33.5728 52.9608 33.5464 52.8065 33.5464 52.6285C33.5464 52.411 33.5965 52.2198 33.6954 52.0524C34.2386 50.9884 35.8168 51.2191 36.7516 51.521V52.2712C36.1965 51.7913 33.6981 51.7214 34.3111 52.8935C34.3428 52.9542 34.3916 53.003 34.4522 53.0346C34.9585 53.3036 35.7917 53.3405 36.3086 53.6226C37.8103 54.4427 36.8874 56.3254 35.2459 56.1791C34.7212 56.1316 33.7416 56.0288 33.5029 55.9035L33.5042 55.9022Z" fill="#DA2120"/>
<path d="M39.0007 56.0693H38.2598V51.4429H39.0007V56.0693ZM39.0007 50.6096H38.2598V49.6577H39.0007V50.6096Z" fill="#DA2120"/>
<path d="M44.4523 55.6992C44.2137 57.3934 43.627 57.7098 42.3955 57.8773C41.9328 57.9405 41.3237 57.7691 40.8952 57.5516V56.8106C41.4159 57.0994 41.851 57.3143 42.3204 57.251C42.8873 57.1745 43.7127 56.9728 43.7127 55.7981V55.2918H43.6942C43.3422 55.8825 42.8109 56.1237 42.1042 56.1237C41.5293 56.1237 41.0652 55.9181 40.7145 55.5067C40.3638 55.0953 40.1885 54.5429 40.1885 53.8507C40.1885 53.065 40.377 52.44 40.7554 51.9759C41.1338 51.5118 41.6506 51.2798 42.3072 51.2798C42.9638 51.2798 43.3936 51.5843 43.6942 52.084H43.7127V51.442H44.4536V55.6979L44.4523 55.6992ZM43.7113 53.8811V53.2311C43.7113 52.8817 43.5927 52.5811 43.3567 52.3319C43.1194 52.0827 42.8254 51.9575 42.4733 51.9575C42.0369 51.9575 41.6955 52.1157 41.4489 52.4334C41.2024 52.7512 41.0784 53.1942 41.0784 53.765C41.0784 54.2555 41.1971 54.6471 41.4331 54.9411C41.6704 55.2351 41.9829 55.3815 42.3731 55.3815C42.7634 55.3815 43.0904 55.2404 43.3382 54.9596C43.5861 54.6787 43.71 54.3188 43.71 53.8797L43.7113 53.8811Z" fill="#DA2120"/>
<path d="M49.8064 56.0695H49.0655V53.4313C49.0655 52.449 48.7069 51.9586 47.9896 51.9586C47.6191 51.9586 47.3119 52.0983 47.0707 52.3765C46.8294 52.6547 46.7068 53.0067 46.7068 53.4313V56.0695H45.9658V51.4431H46.7068V52.2117H46.7252C47.0746 51.6277 47.5809 51.335 48.2428 51.335C48.749 51.335 49.1353 51.4984 49.4043 51.8254C49.672 52.1524 49.8064 52.6244 49.8064 53.2427V56.0708V56.0695Z" fill="#DA2120"/>
<path d="M55.0252 56.0697H54.2842V55.3472H54.2658C53.9427 55.9009 53.4694 56.1791 52.8418 56.1791C52.3804 56.1791 52.0205 56.0578 51.7594 55.8126C51.4983 55.5687 51.3691 55.2443 51.3691 54.8409C51.3691 53.976 51.8781 53.4737 52.8959 53.3313L54.2829 53.1375C54.2829 52.3517 53.625 51.9034 52.9895 51.9034C52.4318 51.9034 51.9295 51.972 51.4799 52.3517V51.5923C51.9348 51.3035 52.4582 51.2798 53.0528 51.2798C54.1405 51.2798 55.0252 51.91 55.0252 53.0597V56.0697ZM54.2842 53.7294L52.8616 53.7571C52.5188 53.8059 52.2591 53.8903 52.0851 54.0129C51.911 54.1355 51.8227 54.3517 51.8227 54.6616C51.8227 54.887 51.9611 55.2285 52.122 55.3722C52.2828 55.5159 52.7456 55.5568 53.0145 55.5568C53.3824 55.5568 53.6856 55.4276 53.9256 55.1705C54.1656 54.9134 54.2842 54.5864 54.2842 54.1922V53.7294Z" fill="#DA2120"/>
<path d="M60.4458 56.0497H59.7048V55.2639H59.6864C59.3423 55.8598 58.8123 56.1591 58.0964 56.1591C57.5149 56.1591 57.0508 55.9521 56.7028 55.5381C56.3547 55.1241 56.1807 54.5598 56.1807 53.8465C56.1807 53.0819 56.3732 52.4688 56.7595 52.0073C57.1444 51.5459 57.6586 51.3165 58.3007 51.3165C58.9428 51.3165 59.399 51.567 59.6877 52.0667H59.7062V49.6196H60.4471V56.0523L60.4458 56.0497ZM59.7048 53.9573V53.2757C59.7048 52.9025 59.5809 52.5861 59.3344 52.3264C59.0878 52.0667 58.774 51.9374 58.3943 51.9374C57.9421 51.9374 57.5874 52.1036 57.3277 52.4345C57.0693 52.7654 56.9388 53.2242 56.9388 53.8083C56.9388 54.341 57.0627 54.7629 57.3119 55.0714C57.5611 55.3799 57.8946 55.5342 58.3126 55.5342C58.7305 55.5342 59.0601 55.3852 59.3172 55.0872C59.5743 54.7892 59.7035 54.4122 59.7035 53.9573H59.7048Z" fill="#DA2120"/>
<path d="M63.7648 56.1774C63.1227 56.1774 62.6099 55.9612 62.2262 55.5288C61.8425 55.0963 61.6514 54.5241 61.6514 53.8095C61.6514 53.0316 61.8505 52.4252 62.2499 51.9888C62.6481 51.5524 63.1873 51.3335 63.8663 51.3335C64.5453 51.3335 65.02 51.5458 65.3825 51.9703C65.7464 52.3948 65.9284 52.9842 65.9284 53.737C65.9284 54.4898 65.7319 55.066 65.3404 55.5103C64.9488 55.9546 64.4227 56.1761 63.7648 56.1761V56.1774ZM63.8136 51.9571C63.3996 51.9571 63.0726 52.1193 62.8327 52.4423C62.5914 52.7666 62.4714 53.2123 62.4714 53.7818C62.4714 54.3514 62.5927 54.7628 62.8366 55.0792C63.0806 55.3956 63.4062 55.5538 63.8136 55.5538C64.221 55.5538 64.5493 55.3982 64.7734 55.0884C64.9976 54.7786 65.1096 54.3369 65.1096 53.7647C65.1096 53.1925 64.9976 52.7403 64.7734 52.4278C64.5493 52.1153 64.2302 51.9584 63.8136 51.9584V51.9571Z" fill="#DA2120"/>
<path d="M24.9758 56.1774C24.3337 56.1774 23.8208 55.9612 23.4371 55.5288C23.0535 55.0963 22.8623 54.5241 22.8623 53.8095C22.8623 53.0316 23.0614 52.4252 23.4609 51.9888C23.859 51.5524 24.3983 51.3335 25.0773 51.3335C25.7563 51.3335 26.2309 51.5458 26.5935 51.9703C26.9574 52.3948 27.1393 52.9842 27.1393 53.737C27.1393 54.4898 26.9429 55.066 26.5513 55.5103C26.1597 55.9546 25.6337 56.1761 24.9758 56.1761V56.1774ZM25.0245 51.9571C24.6106 51.9571 24.2836 52.1193 24.0436 52.4423C23.8024 52.7666 23.6824 53.2123 23.6824 53.7818C23.6824 54.3514 23.8037 54.7628 24.0476 55.0792C24.2915 55.3956 24.6171 55.5538 25.0245 55.5538C25.4319 55.5538 25.7602 55.3982 25.9844 55.0884C26.2085 54.7786 26.3206 54.3369 26.3206 53.7647C26.3206 53.1925 26.2085 52.7403 25.9844 52.4278C25.7602 52.1153 25.4412 51.9584 25.0245 51.9584V51.9571Z" fill="#DA2120"/>
</svg>