<svg xmlns="http://www.w3.org/2000/svg" width="72" height="13" viewBox="0 0 72 13" fill="none">
<g clip-path="url(#clip0_4571_131208)">
<path d="M9.49877 5.77342C9.48112 5.31437 9.3487 4.86415 9.11918 4.45807L7.04463 0.873958C6.88573 0.600294 6.77979 0.308975 6.718 0L6.62972 0.150074C6.1177 1.04169 6.1177 2.13634 6.62972 3.02795L8.28936 5.90584C8.80137 6.79745 8.80137 7.8921 8.28936 8.78372L8.20108 8.93379C8.13928 8.62482 8.03335 8.3335 7.87445 8.06866L6.35606 5.42913L5.38499 3.75184C5.22609 3.47818 5.12016 3.18686 5.05836 2.88671L4.97008 3.03678C4.45807 3.91957 4.45807 5.01422 4.96126 5.90584L6.62972 8.78372C7.14174 9.67533 7.14174 10.77 6.62972 11.6616L6.54144 11.8117C6.47965 11.5027 6.36488 11.2114 6.21481 10.9465L4.14026 7.34478C3.8666 6.86807 3.73418 6.32957 3.76067 5.78225C1.53605 6.35606 0 7.59196 0 9.02207C0 11.0083 2.96616 12.615 6.62972 12.615C10.2933 12.615 13.2594 11.0083 13.2594 9.02207C13.2594 7.59196 11.7234 6.35606 9.49877 5.77342ZM15.7577 11.9176C15.7754 11.485 15.8548 11.0613 15.9961 10.6641C16.7111 10.9819 17.488 11.1408 18.2737 11.1496C19.4301 11.1496 20.0745 10.7788 20.0745 10.0373C20.0745 9.29573 19.5978 8.97793 18.4326 8.46591L17.797 8.19225C16.6229 7.68024 15.8283 7.01815 15.8283 5.7028C15.8283 4.28151 16.8082 3.37224 18.8298 3.37224C19.6067 3.36341 20.3747 3.487 21.1074 3.73418C21.0809 4.15792 20.9926 4.57283 20.8602 4.97891C20.207 4.74939 19.5184 4.6258 18.821 4.61697C17.7352 4.61697 17.2408 5.04071 17.2408 5.7028C17.2408 6.36488 17.7263 6.72683 18.6003 7.0976L19.2712 7.38009C20.8514 8.05101 21.5135 8.76606 21.5135 9.97548C21.5135 11.4056 20.4277 12.3943 18.3178 12.3943C17.2938 12.3943 16.4551 12.2442 15.7577 11.9176ZM28.205 5.96763V12.1913H26.9514L26.8808 11.4409C26.5277 11.9882 25.998 12.3325 25.1241 12.3325C23.4821 12.3325 22.3874 11.1408 22.3874 9.04855C22.3874 6.95635 23.5616 5.61452 25.8656 5.61452C26.7484 5.61452 27.4811 5.71162 28.205 5.96763ZM26.8279 10.77V6.85924C26.5012 6.80628 26.1746 6.77979 25.848 6.78862C24.4267 6.78862 23.7734 7.66258 23.7734 9.05738C23.7734 10.3286 24.2854 11.2202 25.5037 11.2202C25.9804 11.2202 26.4483 11.0613 26.8279 10.77ZM35.2143 8.00687V12.1913H33.846V8.24522C33.846 7.26533 33.5194 6.78862 32.1511 6.78862C31.7891 6.79745 31.4272 6.82393 31.0652 6.88573V12.1913H29.6969V5.96763C30.5709 5.75576 31.5243 5.62334 32.1864 5.62334C34.4728 5.61452 35.2143 6.4973 35.2143 8.00687ZM39.0103 11.1672C39.3722 11.1672 39.7342 11.1054 40.0785 10.9819C40.0432 11.3526 39.9902 11.7764 39.9196 12.1383C39.5488 12.2795 39.1604 12.3413 38.7631 12.3325C37.4301 12.3325 36.5826 11.7234 36.5826 10.205V3.67239C37.024 3.53997 37.4919 3.46935 37.951 3.46935V5.82639H40.1138C40.0961 6.21481 40.052 6.61206 39.9902 7.00049H37.951V10.0549C37.951 10.8583 38.3482 11.1672 39.0103 11.1672ZM46.3551 5.9588V12.1824H45.1015L45.0221 11.4321C44.669 11.9794 44.1393 12.3237 43.2653 12.3237C41.6233 12.3237 40.5287 11.1319 40.5287 9.03973C40.5287 6.94752 41.7028 5.60569 44.0069 5.60569C44.8985 5.61452 45.6312 5.71162 46.3551 5.9588ZM44.9868 10.77V6.85924C44.6601 6.80628 44.3335 6.77979 44.0069 6.78862C42.5856 6.78862 41.9235 7.66258 41.9235 9.05738C41.9235 10.3286 42.4355 11.2202 43.6538 11.2202C44.1393 11.2202 44.6072 11.0613 44.9868 10.77ZM53.3644 8.00687V12.1913H51.9961V8.24522C51.9961 7.26533 51.6694 6.78862 50.3011 6.78862C49.9392 6.79745 49.5772 6.82393 49.2241 6.88573V12.1913H47.847V5.96763C48.7209 5.75576 49.6744 5.62334 50.3364 5.62334C52.6317 5.61452 53.3644 6.4973 53.3644 8.00687ZM60.3119 3.46935V12.1824H59.0584L58.9877 11.3879C58.6346 11.9706 58.105 12.3325 57.2045 12.3325C55.5625 12.3325 54.4679 11.1408 54.4679 9.04855C54.4679 6.95635 55.642 5.61452 57.9372 5.61452C58.2815 5.61452 58.6258 5.64983 58.9613 5.71162V3.66356C59.385 3.51349 59.8705 3.46935 60.3119 3.46935ZM58.9613 10.7435V6.91221C58.5993 6.83276 58.2374 6.78862 57.8666 6.78862C56.5071 6.78862 55.8627 7.6361 55.8627 9.05738C55.8627 10.3286 56.3747 11.2202 57.5929 11.2202C58.0873 11.2202 58.5728 11.0525 58.9613 10.7435ZM67.2065 9.52526H62.8367C63.0132 10.6376 63.6577 11.1672 64.8759 11.1672C65.6351 11.1672 66.3767 11.0083 67.0652 10.6905C67.0123 11.0525 66.9416 11.5292 66.8534 11.9353C66.2266 12.2178 65.5733 12.3325 64.8406 12.3325C62.5454 12.3325 61.4419 11.0613 61.4419 8.93379C61.4419 7.07994 62.2982 5.60569 64.4787 5.60569C66.4296 5.60569 67.2771 6.88573 67.2771 8.45709C67.2771 8.81903 67.2506 9.17214 67.2065 9.52526ZM62.8102 8.37764H65.9C65.9 7.3536 65.3526 6.76214 64.408 6.76214C63.4282 6.76214 62.9161 7.31829 62.8102 8.37764ZM72 5.66748C72 6.06474 71.9647 6.45316 71.8764 6.84159C71.5321 6.80628 71.1878 6.78862 70.8436 6.78862C70.4993 6.78862 70.1726 6.81511 69.8372 6.85924V12.1913H68.4689V5.96763C69.0515 5.77342 70.0402 5.62334 70.8082 5.62334C71.1967 5.61452 71.6027 5.63217 72 5.66748Z" fill="#EC0000"/>
</g>
<defs>
<clipPath id="clip0_4571_131208">
<rect width="72" height="12.615" fill="white"/>
</clipPath>
</defs>
</svg>