<svg width="80" height="80" viewBox="0 0 110 110" fill="none" xmlns="http://www.w3.org/2000/svg">
<circle cx="55" cy="55" r="55" fill="#FEC52E"/>
<path d="M75.8068 77.3805C74.7335 76.3072 72.6185 75.4286 71.1014 75.4286H50.6672C49.15 75.4286 48.5884 74.3915 49.4172 73.1188L52.0802 69.0429C52.909 67.7748 52.7097 65.8591 51.6409 64.7858L45.8032 58.9481C44.7299 57.8747 43.172 58.0333 42.3341 59.3013L24.264 86.728C23.4307 87.9961 23.9877 89.0287 25.5049 89.0287H84.7015C86.2187 89.0287 86.581 88.1501 85.5076 87.0768L75.8068 77.376V77.3805Z" fill="#1D1D1B"/>
<path d="M55.6439 34.9179C57.1611 34.9179 57.7181 35.955 56.8848 37.2186L52.7907 43.4322C51.9574 44.7003 52.1522 46.6114 53.2255 47.6848L59.027 53.4862C60.1003 54.5596 61.6537 54.3965 62.487 53.1284L81.7663 23.6275C82.5951 22.3594 82.0335 21.3178 80.5163 21.3178H27.5515C26.0343 21.3178 25.672 22.1964 26.7453 23.2697L36.4461 32.9705C37.5195 34.0439 39.6344 34.9225 41.1516 34.9225H55.6439V34.9179Z" fill="#1D1D1B"/>
</svg>
